G04 #@! TF.GenerationSoftware,KiCad,Pcbnew,(5.0.1)-rc2*
G04 #@! TF.CreationDate,2018-12-03T18:09:08-05:00*
G04 #@! TF.ProjectId,tpms_silencer,74706D735F73696C656E6365722E6B69,rev?*
G04 #@! TF.SameCoordinates,Original*
G04 #@! TF.FileFunction,Soldermask,Top*
G04 #@! TF.FilePolarity,Negative*
%FSLAX46Y46*%
G04 Gerber Fmt 4.6, Leading zero omitted, Abs format (unit mm)*
G04 Created by KiCad (PCBNEW (5.0.1)-rc2) date 2018-12-03 6:09:08 PM*
%MOMM*%
%LPD*%
G01*
G04 APERTURE LIST*
%ADD10C,0.100000*%
G04 APERTURE END LIST*
D10*
G36*
X40462348Y-71343664D02*
X40501000Y-71355389D01*
X40536624Y-71374430D01*
X40567846Y-71400054D01*
X40593470Y-71431276D01*
X40612511Y-71466900D01*
X40624236Y-71505552D01*
X40628800Y-71551891D01*
X40628800Y-72202909D01*
X40624236Y-72249248D01*
X40612511Y-72287900D01*
X40593470Y-72323524D01*
X40567846Y-72354746D01*
X40536624Y-72380370D01*
X40501000Y-72399411D01*
X40462348Y-72411136D01*
X40416009Y-72415700D01*
X39339991Y-72415700D01*
X39293652Y-72411136D01*
X39255000Y-72399411D01*
X39219376Y-72380370D01*
X39188154Y-72354746D01*
X39162530Y-72323524D01*
X39143489Y-72287900D01*
X39131764Y-72249248D01*
X39127200Y-72202909D01*
X39127200Y-71551891D01*
X39131764Y-71505552D01*
X39143489Y-71466900D01*
X39162530Y-71431276D01*
X39188154Y-71400054D01*
X39219376Y-71374430D01*
X39255000Y-71355389D01*
X39293652Y-71343664D01*
X39339991Y-71339100D01*
X40416009Y-71339100D01*
X40462348Y-71343664D01*
X40462348Y-71343664D01*
G37*
G36*
X31572348Y-70078264D02*
X31611000Y-70089989D01*
X31646624Y-70109030D01*
X31677846Y-70134654D01*
X31703470Y-70165876D01*
X31722511Y-70201500D01*
X31734236Y-70240152D01*
X31738800Y-70286491D01*
X31738800Y-70937509D01*
X31734236Y-70983848D01*
X31722511Y-71022500D01*
X31703470Y-71058124D01*
X31677846Y-71089346D01*
X31646624Y-71114970D01*
X31611000Y-71134011D01*
X31572348Y-71145736D01*
X31526009Y-71150300D01*
X30449991Y-71150300D01*
X30403652Y-71145736D01*
X30365000Y-71134011D01*
X30329376Y-71114970D01*
X30298154Y-71089346D01*
X30272530Y-71058124D01*
X30253489Y-71022500D01*
X30241764Y-70983848D01*
X30237200Y-70937509D01*
X30237200Y-70286491D01*
X30241764Y-70240152D01*
X30253489Y-70201500D01*
X30272530Y-70165876D01*
X30298154Y-70134654D01*
X30329376Y-70109030D01*
X30365000Y-70089989D01*
X30403652Y-70078264D01*
X30449991Y-70073700D01*
X31526009Y-70073700D01*
X31572348Y-70078264D01*
X31572348Y-70078264D01*
G37*
G36*
X27762348Y-70078264D02*
X27801000Y-70089989D01*
X27836624Y-70109030D01*
X27867846Y-70134654D01*
X27893470Y-70165876D01*
X27912511Y-70201500D01*
X27924236Y-70240152D01*
X27928800Y-70286491D01*
X27928800Y-70937509D01*
X27924236Y-70983848D01*
X27912511Y-71022500D01*
X27893470Y-71058124D01*
X27867846Y-71089346D01*
X27836624Y-71114970D01*
X27801000Y-71134011D01*
X27762348Y-71145736D01*
X27716009Y-71150300D01*
X26639991Y-71150300D01*
X26593652Y-71145736D01*
X26555000Y-71134011D01*
X26519376Y-71114970D01*
X26488154Y-71089346D01*
X26462530Y-71058124D01*
X26443489Y-71022500D01*
X26431764Y-70983848D01*
X26427200Y-70937509D01*
X26427200Y-70286491D01*
X26431764Y-70240152D01*
X26443489Y-70201500D01*
X26462530Y-70165876D01*
X26488154Y-70134654D01*
X26519376Y-70109030D01*
X26555000Y-70089989D01*
X26593652Y-70078264D01*
X26639991Y-70073700D01*
X27716009Y-70073700D01*
X27762348Y-70078264D01*
X27762348Y-70078264D01*
G37*
G36*
X40462348Y-69468664D02*
X40501000Y-69480389D01*
X40536624Y-69499430D01*
X40567846Y-69525054D01*
X40593470Y-69556276D01*
X40612511Y-69591900D01*
X40624236Y-69630552D01*
X40628800Y-69676891D01*
X40628800Y-70327909D01*
X40624236Y-70374248D01*
X40612511Y-70412900D01*
X40593470Y-70448524D01*
X40567846Y-70479746D01*
X40536624Y-70505370D01*
X40501000Y-70524411D01*
X40462348Y-70536136D01*
X40416009Y-70540700D01*
X39339991Y-70540700D01*
X39293652Y-70536136D01*
X39255000Y-70524411D01*
X39219376Y-70505370D01*
X39188154Y-70479746D01*
X39162530Y-70448524D01*
X39143489Y-70412900D01*
X39131764Y-70374248D01*
X39127200Y-70327909D01*
X39127200Y-69676891D01*
X39131764Y-69630552D01*
X39143489Y-69591900D01*
X39162530Y-69556276D01*
X39188154Y-69525054D01*
X39219376Y-69499430D01*
X39255000Y-69480389D01*
X39293652Y-69468664D01*
X39339991Y-69464100D01*
X40416009Y-69464100D01*
X40462348Y-69468664D01*
X40462348Y-69468664D01*
G37*
G36*
X31572348Y-68203264D02*
X31611000Y-68214989D01*
X31646624Y-68234030D01*
X31677846Y-68259654D01*
X31703470Y-68290876D01*
X31722511Y-68326500D01*
X31734236Y-68365152D01*
X31738800Y-68411491D01*
X31738800Y-69062509D01*
X31734236Y-69108848D01*
X31722511Y-69147500D01*
X31703470Y-69183124D01*
X31677846Y-69214346D01*
X31646624Y-69239970D01*
X31611000Y-69259011D01*
X31572348Y-69270736D01*
X31526009Y-69275300D01*
X30449991Y-69275300D01*
X30403652Y-69270736D01*
X30365000Y-69259011D01*
X30329376Y-69239970D01*
X30298154Y-69214346D01*
X30272530Y-69183124D01*
X30253489Y-69147500D01*
X30241764Y-69108848D01*
X30237200Y-69062509D01*
X30237200Y-68411491D01*
X30241764Y-68365152D01*
X30253489Y-68326500D01*
X30272530Y-68290876D01*
X30298154Y-68259654D01*
X30329376Y-68234030D01*
X30365000Y-68214989D01*
X30403652Y-68203264D01*
X30449991Y-68198700D01*
X31526009Y-68198700D01*
X31572348Y-68203264D01*
X31572348Y-68203264D01*
G37*
G36*
X27762348Y-68203264D02*
X27801000Y-68214989D01*
X27836624Y-68234030D01*
X27867846Y-68259654D01*
X27893470Y-68290876D01*
X27912511Y-68326500D01*
X27924236Y-68365152D01*
X27928800Y-68411491D01*
X27928800Y-69062509D01*
X27924236Y-69108848D01*
X27912511Y-69147500D01*
X27893470Y-69183124D01*
X27867846Y-69214346D01*
X27836624Y-69239970D01*
X27801000Y-69259011D01*
X27762348Y-69270736D01*
X27716009Y-69275300D01*
X26639991Y-69275300D01*
X26593652Y-69270736D01*
X26555000Y-69259011D01*
X26519376Y-69239970D01*
X26488154Y-69214346D01*
X26462530Y-69183124D01*
X26443489Y-69147500D01*
X26431764Y-69108848D01*
X26427200Y-69062509D01*
X26427200Y-68411491D01*
X26431764Y-68365152D01*
X26443489Y-68326500D01*
X26462530Y-68290876D01*
X26488154Y-68259654D01*
X26519376Y-68234030D01*
X26555000Y-68214989D01*
X26593652Y-68203264D01*
X26639991Y-68198700D01*
X27716009Y-68198700D01*
X27762348Y-68203264D01*
X27762348Y-68203264D01*
G37*
G36*
X31778800Y-66782800D02*
X29977200Y-66782800D01*
X29977200Y-64281200D01*
X31778800Y-64281200D01*
X31778800Y-66782800D01*
X31778800Y-66782800D01*
G37*
G36*
X28078800Y-66782800D02*
X26277200Y-66782800D01*
X26277200Y-64281200D01*
X28078800Y-64281200D01*
X28078800Y-66782800D01*
X28078800Y-66782800D01*
G37*
G36*
X44091800Y-66690000D02*
X42440200Y-66690000D01*
X42440200Y-65288400D01*
X44091800Y-65288400D01*
X44091800Y-66690000D01*
X44091800Y-66690000D01*
G37*
G36*
X36131800Y-66690000D02*
X34480200Y-66690000D01*
X34480200Y-65288400D01*
X36131800Y-65288400D01*
X36131800Y-66690000D01*
X36131800Y-66690000D01*
G37*
G36*
X36131800Y-62190000D02*
X34480200Y-62190000D01*
X34480200Y-60788400D01*
X36131800Y-60788400D01*
X36131800Y-62190000D01*
X36131800Y-62190000D01*
G37*
G36*
X44091800Y-62190000D02*
X42440200Y-62190000D01*
X42440200Y-60788400D01*
X44091800Y-60788400D01*
X44091800Y-62190000D01*
X44091800Y-62190000D01*
G37*
G36*
X28798800Y-59794800D02*
X28097200Y-59794800D01*
X28097200Y-58193200D01*
X28798800Y-58193200D01*
X28798800Y-59794800D01*
X28798800Y-59794800D01*
G37*
G36*
X27528800Y-59794800D02*
X26827200Y-59794800D01*
X26827200Y-58193200D01*
X27528800Y-58193200D01*
X27528800Y-59794800D01*
X27528800Y-59794800D01*
G37*
G36*
X30068800Y-59794800D02*
X29367200Y-59794800D01*
X29367200Y-58193200D01*
X30068800Y-58193200D01*
X30068800Y-59794800D01*
X30068800Y-59794800D01*
G37*
G36*
X35148800Y-59794800D02*
X34447200Y-59794800D01*
X34447200Y-58193200D01*
X35148800Y-58193200D01*
X35148800Y-59794800D01*
X35148800Y-59794800D01*
G37*
G36*
X31338800Y-59794800D02*
X30637200Y-59794800D01*
X30637200Y-58193200D01*
X31338800Y-58193200D01*
X31338800Y-59794800D01*
X31338800Y-59794800D01*
G37*
G36*
X33878800Y-59794800D02*
X33177200Y-59794800D01*
X33177200Y-58193200D01*
X33878800Y-58193200D01*
X33878800Y-59794800D01*
X33878800Y-59794800D01*
G37*
G36*
X32608800Y-59794800D02*
X31907200Y-59794800D01*
X31907200Y-58193200D01*
X32608800Y-58193200D01*
X32608800Y-59794800D01*
X32608800Y-59794800D01*
G37*
G36*
X25730348Y-56870264D02*
X25769000Y-56881989D01*
X25804624Y-56901030D01*
X25835846Y-56926654D01*
X25861470Y-56957876D01*
X25880511Y-56993500D01*
X25892236Y-57032152D01*
X25896800Y-57078491D01*
X25896800Y-57729509D01*
X25892236Y-57775848D01*
X25880511Y-57814500D01*
X25861470Y-57850124D01*
X25835846Y-57881346D01*
X25804624Y-57906970D01*
X25769000Y-57926011D01*
X25730348Y-57937736D01*
X25684009Y-57942300D01*
X24607991Y-57942300D01*
X24561652Y-57937736D01*
X24523000Y-57926011D01*
X24487376Y-57906970D01*
X24456154Y-57881346D01*
X24430530Y-57850124D01*
X24411489Y-57814500D01*
X24399764Y-57775848D01*
X24395200Y-57729509D01*
X24395200Y-57078491D01*
X24399764Y-57032152D01*
X24411489Y-56993500D01*
X24430530Y-56957876D01*
X24456154Y-56926654D01*
X24487376Y-56901030D01*
X24523000Y-56881989D01*
X24561652Y-56870264D01*
X24607991Y-56865700D01*
X25684009Y-56865700D01*
X25730348Y-56870264D01*
X25730348Y-56870264D01*
G37*
G36*
X50114348Y-56616264D02*
X50153000Y-56627989D01*
X50188624Y-56647030D01*
X50219846Y-56672654D01*
X50245470Y-56703876D01*
X50264511Y-56739500D01*
X50276236Y-56778152D01*
X50280800Y-56824491D01*
X50280800Y-57475509D01*
X50276236Y-57521848D01*
X50264511Y-57560500D01*
X50245470Y-57596124D01*
X50219846Y-57627346D01*
X50188624Y-57652970D01*
X50153000Y-57672011D01*
X50114348Y-57683736D01*
X50068009Y-57688300D01*
X48991991Y-57688300D01*
X48945652Y-57683736D01*
X48907000Y-57672011D01*
X48871376Y-57652970D01*
X48840154Y-57627346D01*
X48814530Y-57596124D01*
X48795489Y-57560500D01*
X48783764Y-57521848D01*
X48779200Y-57475509D01*
X48779200Y-56824491D01*
X48783764Y-56778152D01*
X48795489Y-56739500D01*
X48814530Y-56703876D01*
X48840154Y-56672654D01*
X48871376Y-56647030D01*
X48907000Y-56627989D01*
X48945652Y-56616264D01*
X48991991Y-56611700D01*
X50068009Y-56611700D01*
X50114348Y-56616264D01*
X50114348Y-56616264D01*
G37*
G36*
X25730348Y-54995264D02*
X25769000Y-55006989D01*
X25804624Y-55026030D01*
X25835846Y-55051654D01*
X25861470Y-55082876D01*
X25880511Y-55118500D01*
X25892236Y-55157152D01*
X25896800Y-55203491D01*
X25896800Y-55854509D01*
X25892236Y-55900848D01*
X25880511Y-55939500D01*
X25861470Y-55975124D01*
X25835846Y-56006346D01*
X25804624Y-56031970D01*
X25769000Y-56051011D01*
X25730348Y-56062736D01*
X25684009Y-56067300D01*
X24607991Y-56067300D01*
X24561652Y-56062736D01*
X24523000Y-56051011D01*
X24487376Y-56031970D01*
X24456154Y-56006346D01*
X24430530Y-55975124D01*
X24411489Y-55939500D01*
X24399764Y-55900848D01*
X24395200Y-55854509D01*
X24395200Y-55203491D01*
X24399764Y-55157152D01*
X24411489Y-55118500D01*
X24430530Y-55082876D01*
X24456154Y-55051654D01*
X24487376Y-55026030D01*
X24523000Y-55006989D01*
X24561652Y-54995264D01*
X24607991Y-54990700D01*
X25684009Y-54990700D01*
X25730348Y-54995264D01*
X25730348Y-54995264D01*
G37*
G36*
X50114348Y-54741264D02*
X50153000Y-54752989D01*
X50188624Y-54772030D01*
X50219846Y-54797654D01*
X50245470Y-54828876D01*
X50264511Y-54864500D01*
X50276236Y-54903152D01*
X50280800Y-54949491D01*
X50280800Y-55600509D01*
X50276236Y-55646848D01*
X50264511Y-55685500D01*
X50245470Y-55721124D01*
X50219846Y-55752346D01*
X50188624Y-55777970D01*
X50153000Y-55797011D01*
X50114348Y-55808736D01*
X50068009Y-55813300D01*
X48991991Y-55813300D01*
X48945652Y-55808736D01*
X48907000Y-55797011D01*
X48871376Y-55777970D01*
X48840154Y-55752346D01*
X48814530Y-55721124D01*
X48795489Y-55685500D01*
X48783764Y-55646848D01*
X48779200Y-55600509D01*
X48779200Y-54949491D01*
X48783764Y-54903152D01*
X48795489Y-54864500D01*
X48814530Y-54828876D01*
X48840154Y-54797654D01*
X48871376Y-54772030D01*
X48907000Y-54752989D01*
X48945652Y-54741264D01*
X48991991Y-54736700D01*
X50068009Y-54736700D01*
X50114348Y-54741264D01*
X50114348Y-54741264D01*
G37*
G36*
X41182800Y-55640800D02*
X39081200Y-55640800D01*
X39081200Y-51039200D01*
X41182800Y-51039200D01*
X41182800Y-55640800D01*
X41182800Y-55640800D01*
G37*
G36*
X47107848Y-53863764D02*
X47146500Y-53875489D01*
X47182124Y-53894530D01*
X47213346Y-53920154D01*
X47238970Y-53951376D01*
X47258011Y-53987000D01*
X47269736Y-54025652D01*
X47274300Y-54071991D01*
X47274300Y-55148009D01*
X47269736Y-55194348D01*
X47258011Y-55233000D01*
X47238970Y-55268624D01*
X47213346Y-55299846D01*
X47182124Y-55325470D01*
X47146500Y-55344511D01*
X47107848Y-55356236D01*
X47061509Y-55360800D01*
X46410491Y-55360800D01*
X46364152Y-55356236D01*
X46325500Y-55344511D01*
X46289876Y-55325470D01*
X46258654Y-55299846D01*
X46233030Y-55268624D01*
X46213989Y-55233000D01*
X46202264Y-55194348D01*
X46197700Y-55148009D01*
X46197700Y-54071991D01*
X46202264Y-54025652D01*
X46213989Y-53987000D01*
X46233030Y-53951376D01*
X46258654Y-53920154D01*
X46289876Y-53894530D01*
X46325500Y-53875489D01*
X46364152Y-53863764D01*
X46410491Y-53859200D01*
X47061509Y-53859200D01*
X47107848Y-53863764D01*
X47107848Y-53863764D01*
G37*
G36*
X45232848Y-53863764D02*
X45271500Y-53875489D01*
X45307124Y-53894530D01*
X45338346Y-53920154D01*
X45363970Y-53951376D01*
X45383011Y-53987000D01*
X45394736Y-54025652D01*
X45399300Y-54071991D01*
X45399300Y-55148009D01*
X45394736Y-55194348D01*
X45383011Y-55233000D01*
X45363970Y-55268624D01*
X45338346Y-55299846D01*
X45307124Y-55325470D01*
X45271500Y-55344511D01*
X45232848Y-55356236D01*
X45186509Y-55360800D01*
X44535491Y-55360800D01*
X44489152Y-55356236D01*
X44450500Y-55344511D01*
X44414876Y-55325470D01*
X44383654Y-55299846D01*
X44358030Y-55268624D01*
X44338989Y-55233000D01*
X44327264Y-55194348D01*
X44322700Y-55148009D01*
X44322700Y-54071991D01*
X44327264Y-54025652D01*
X44338989Y-53987000D01*
X44358030Y-53951376D01*
X44383654Y-53920154D01*
X44414876Y-53894530D01*
X44450500Y-53875489D01*
X44489152Y-53863764D01*
X44535491Y-53859200D01*
X45186509Y-53859200D01*
X45232848Y-53863764D01*
X45232848Y-53863764D01*
G37*
G36*
X32608800Y-54394800D02*
X31907200Y-54394800D01*
X31907200Y-52793200D01*
X32608800Y-52793200D01*
X32608800Y-54394800D01*
X32608800Y-54394800D01*
G37*
G36*
X33878800Y-54394800D02*
X33177200Y-54394800D01*
X33177200Y-52793200D01*
X33878800Y-52793200D01*
X33878800Y-54394800D01*
X33878800Y-54394800D01*
G37*
G36*
X35148800Y-54394800D02*
X34447200Y-54394800D01*
X34447200Y-52793200D01*
X35148800Y-52793200D01*
X35148800Y-54394800D01*
X35148800Y-54394800D01*
G37*
G36*
X31338800Y-54394800D02*
X30637200Y-54394800D01*
X30637200Y-52793200D01*
X31338800Y-52793200D01*
X31338800Y-54394800D01*
X31338800Y-54394800D01*
G37*
G36*
X30068800Y-54394800D02*
X29367200Y-54394800D01*
X29367200Y-52793200D01*
X30068800Y-52793200D01*
X30068800Y-54394800D01*
X30068800Y-54394800D01*
G37*
G36*
X28798800Y-54394800D02*
X28097200Y-54394800D01*
X28097200Y-52793200D01*
X28798800Y-52793200D01*
X28798800Y-54394800D01*
X28798800Y-54394800D01*
G37*
G36*
X27528800Y-54394800D02*
X26827200Y-54394800D01*
X26827200Y-52793200D01*
X27528800Y-52793200D01*
X27528800Y-54394800D01*
X27528800Y-54394800D01*
G37*
G36*
X50114348Y-52903264D02*
X50153000Y-52914989D01*
X50188624Y-52934030D01*
X50219846Y-52959654D01*
X50245470Y-52990876D01*
X50264511Y-53026500D01*
X50276236Y-53065152D01*
X50280800Y-53111491D01*
X50280800Y-53762509D01*
X50276236Y-53808848D01*
X50264511Y-53847500D01*
X50245470Y-53883124D01*
X50219846Y-53914346D01*
X50188624Y-53939970D01*
X50153000Y-53959011D01*
X50114348Y-53970736D01*
X50068009Y-53975300D01*
X48991991Y-53975300D01*
X48945652Y-53970736D01*
X48907000Y-53959011D01*
X48871376Y-53939970D01*
X48840154Y-53914346D01*
X48814530Y-53883124D01*
X48795489Y-53847500D01*
X48783764Y-53808848D01*
X48779200Y-53762509D01*
X48779200Y-53111491D01*
X48783764Y-53065152D01*
X48795489Y-53026500D01*
X48814530Y-52990876D01*
X48840154Y-52959654D01*
X48871376Y-52934030D01*
X48907000Y-52914989D01*
X48945652Y-52903264D01*
X48991991Y-52898700D01*
X50068009Y-52898700D01*
X50114348Y-52903264D01*
X50114348Y-52903264D01*
G37*
G36*
X54686348Y-52903264D02*
X54725000Y-52914989D01*
X54760624Y-52934030D01*
X54791846Y-52959654D01*
X54817470Y-52990876D01*
X54836511Y-53026500D01*
X54848236Y-53065152D01*
X54852800Y-53111491D01*
X54852800Y-53762509D01*
X54848236Y-53808848D01*
X54836511Y-53847500D01*
X54817470Y-53883124D01*
X54791846Y-53914346D01*
X54760624Y-53939970D01*
X54725000Y-53959011D01*
X54686348Y-53970736D01*
X54640009Y-53975300D01*
X53563991Y-53975300D01*
X53517652Y-53970736D01*
X53479000Y-53959011D01*
X53443376Y-53939970D01*
X53412154Y-53914346D01*
X53386530Y-53883124D01*
X53367489Y-53847500D01*
X53355764Y-53808848D01*
X53351200Y-53762509D01*
X53351200Y-53111491D01*
X53355764Y-53065152D01*
X53367489Y-53026500D01*
X53386530Y-52990876D01*
X53412154Y-52959654D01*
X53443376Y-52934030D01*
X53479000Y-52914989D01*
X53517652Y-52903264D01*
X53563991Y-52898700D01*
X54640009Y-52898700D01*
X54686348Y-52903264D01*
X54686348Y-52903264D01*
G37*
G36*
X52400348Y-52903264D02*
X52439000Y-52914989D01*
X52474624Y-52934030D01*
X52505846Y-52959654D01*
X52531470Y-52990876D01*
X52550511Y-53026500D01*
X52562236Y-53065152D01*
X52566800Y-53111491D01*
X52566800Y-53762509D01*
X52562236Y-53808848D01*
X52550511Y-53847500D01*
X52531470Y-53883124D01*
X52505846Y-53914346D01*
X52474624Y-53939970D01*
X52439000Y-53959011D01*
X52400348Y-53970736D01*
X52354009Y-53975300D01*
X51277991Y-53975300D01*
X51231652Y-53970736D01*
X51193000Y-53959011D01*
X51157376Y-53939970D01*
X51126154Y-53914346D01*
X51100530Y-53883124D01*
X51081489Y-53847500D01*
X51069764Y-53808848D01*
X51065200Y-53762509D01*
X51065200Y-53111491D01*
X51069764Y-53065152D01*
X51081489Y-53026500D01*
X51100530Y-52990876D01*
X51126154Y-52959654D01*
X51157376Y-52934030D01*
X51193000Y-52914989D01*
X51231652Y-52903264D01*
X51277991Y-52898700D01*
X52354009Y-52898700D01*
X52400348Y-52903264D01*
X52400348Y-52903264D01*
G37*
G36*
X50114348Y-51028264D02*
X50153000Y-51039989D01*
X50188624Y-51059030D01*
X50219846Y-51084654D01*
X50245470Y-51115876D01*
X50264511Y-51151500D01*
X50276236Y-51190152D01*
X50280800Y-51236491D01*
X50280800Y-51887509D01*
X50276236Y-51933848D01*
X50264511Y-51972500D01*
X50245470Y-52008124D01*
X50219846Y-52039346D01*
X50188624Y-52064970D01*
X50153000Y-52084011D01*
X50114348Y-52095736D01*
X50068009Y-52100300D01*
X48991991Y-52100300D01*
X48945652Y-52095736D01*
X48907000Y-52084011D01*
X48871376Y-52064970D01*
X48840154Y-52039346D01*
X48814530Y-52008124D01*
X48795489Y-51972500D01*
X48783764Y-51933848D01*
X48779200Y-51887509D01*
X48779200Y-51236491D01*
X48783764Y-51190152D01*
X48795489Y-51151500D01*
X48814530Y-51115876D01*
X48840154Y-51084654D01*
X48871376Y-51059030D01*
X48907000Y-51039989D01*
X48945652Y-51028264D01*
X48991991Y-51023700D01*
X50068009Y-51023700D01*
X50114348Y-51028264D01*
X50114348Y-51028264D01*
G37*
G36*
X54686348Y-51028264D02*
X54725000Y-51039989D01*
X54760624Y-51059030D01*
X54791846Y-51084654D01*
X54817470Y-51115876D01*
X54836511Y-51151500D01*
X54848236Y-51190152D01*
X54852800Y-51236491D01*
X54852800Y-51887509D01*
X54848236Y-51933848D01*
X54836511Y-51972500D01*
X54817470Y-52008124D01*
X54791846Y-52039346D01*
X54760624Y-52064970D01*
X54725000Y-52084011D01*
X54686348Y-52095736D01*
X54640009Y-52100300D01*
X53563991Y-52100300D01*
X53517652Y-52095736D01*
X53479000Y-52084011D01*
X53443376Y-52064970D01*
X53412154Y-52039346D01*
X53386530Y-52008124D01*
X53367489Y-51972500D01*
X53355764Y-51933848D01*
X53351200Y-51887509D01*
X53351200Y-51236491D01*
X53355764Y-51190152D01*
X53367489Y-51151500D01*
X53386530Y-51115876D01*
X53412154Y-51084654D01*
X53443376Y-51059030D01*
X53479000Y-51039989D01*
X53517652Y-51028264D01*
X53563991Y-51023700D01*
X54640009Y-51023700D01*
X54686348Y-51028264D01*
X54686348Y-51028264D01*
G37*
G36*
X52400348Y-51028264D02*
X52439000Y-51039989D01*
X52474624Y-51059030D01*
X52505846Y-51084654D01*
X52531470Y-51115876D01*
X52550511Y-51151500D01*
X52562236Y-51190152D01*
X52566800Y-51236491D01*
X52566800Y-51887509D01*
X52562236Y-51933848D01*
X52550511Y-51972500D01*
X52531470Y-52008124D01*
X52505846Y-52039346D01*
X52474624Y-52064970D01*
X52439000Y-52084011D01*
X52400348Y-52095736D01*
X52354009Y-52100300D01*
X51277991Y-52100300D01*
X51231652Y-52095736D01*
X51193000Y-52084011D01*
X51157376Y-52064970D01*
X51126154Y-52039346D01*
X51100530Y-52008124D01*
X51081489Y-51972500D01*
X51069764Y-51933848D01*
X51065200Y-51887509D01*
X51065200Y-51236491D01*
X51069764Y-51190152D01*
X51081489Y-51151500D01*
X51100530Y-51115876D01*
X51126154Y-51084654D01*
X51157376Y-51059030D01*
X51193000Y-51039989D01*
X51231652Y-51028264D01*
X51277991Y-51023700D01*
X52354009Y-51023700D01*
X52400348Y-51028264D01*
X52400348Y-51028264D01*
G37*
G36*
X46412800Y-51972800D02*
X44011200Y-51972800D01*
X44011200Y-50471200D01*
X46412800Y-50471200D01*
X46412800Y-51972800D01*
X46412800Y-51972800D01*
G37*
G36*
X34564848Y-50053764D02*
X34603500Y-50065489D01*
X34639124Y-50084530D01*
X34670346Y-50110154D01*
X34695970Y-50141376D01*
X34715011Y-50177000D01*
X34726736Y-50215652D01*
X34731300Y-50261991D01*
X34731300Y-51338009D01*
X34726736Y-51384348D01*
X34715011Y-51423000D01*
X34695970Y-51458624D01*
X34670346Y-51489846D01*
X34639124Y-51515470D01*
X34603500Y-51534511D01*
X34564848Y-51546236D01*
X34518509Y-51550800D01*
X33867491Y-51550800D01*
X33821152Y-51546236D01*
X33782500Y-51534511D01*
X33746876Y-51515470D01*
X33715654Y-51489846D01*
X33690030Y-51458624D01*
X33670989Y-51423000D01*
X33659264Y-51384348D01*
X33654700Y-51338009D01*
X33654700Y-50261991D01*
X33659264Y-50215652D01*
X33670989Y-50177000D01*
X33690030Y-50141376D01*
X33715654Y-50110154D01*
X33746876Y-50084530D01*
X33782500Y-50065489D01*
X33821152Y-50053764D01*
X33867491Y-50049200D01*
X34518509Y-50049200D01*
X34564848Y-50053764D01*
X34564848Y-50053764D01*
G37*
G36*
X36439848Y-50053764D02*
X36478500Y-50065489D01*
X36514124Y-50084530D01*
X36545346Y-50110154D01*
X36570970Y-50141376D01*
X36590011Y-50177000D01*
X36601736Y-50215652D01*
X36606300Y-50261991D01*
X36606300Y-51338009D01*
X36601736Y-51384348D01*
X36590011Y-51423000D01*
X36570970Y-51458624D01*
X36545346Y-51489846D01*
X36514124Y-51515470D01*
X36478500Y-51534511D01*
X36439848Y-51546236D01*
X36393509Y-51550800D01*
X35742491Y-51550800D01*
X35696152Y-51546236D01*
X35657500Y-51534511D01*
X35621876Y-51515470D01*
X35590654Y-51489846D01*
X35565030Y-51458624D01*
X35545989Y-51423000D01*
X35534264Y-51384348D01*
X35529700Y-51338009D01*
X35529700Y-50261991D01*
X35534264Y-50215652D01*
X35545989Y-50177000D01*
X35565030Y-50141376D01*
X35590654Y-50110154D01*
X35621876Y-50084530D01*
X35657500Y-50065489D01*
X35696152Y-50053764D01*
X35742491Y-50049200D01*
X36393509Y-50049200D01*
X36439848Y-50053764D01*
X36439848Y-50053764D01*
G37*
G36*
X29032348Y-48234264D02*
X29071000Y-48245989D01*
X29106624Y-48265030D01*
X29137846Y-48290654D01*
X29163470Y-48321876D01*
X29182511Y-48357500D01*
X29194236Y-48396152D01*
X29198800Y-48442491D01*
X29198800Y-49093509D01*
X29194236Y-49139848D01*
X29182511Y-49178500D01*
X29163470Y-49214124D01*
X29137846Y-49245346D01*
X29106624Y-49270970D01*
X29071000Y-49290011D01*
X29032348Y-49301736D01*
X28986009Y-49306300D01*
X27909991Y-49306300D01*
X27863652Y-49301736D01*
X27825000Y-49290011D01*
X27789376Y-49270970D01*
X27758154Y-49245346D01*
X27732530Y-49214124D01*
X27713489Y-49178500D01*
X27701764Y-49139848D01*
X27697200Y-49093509D01*
X27697200Y-48442491D01*
X27701764Y-48396152D01*
X27713489Y-48357500D01*
X27732530Y-48321876D01*
X27758154Y-48290654D01*
X27789376Y-48265030D01*
X27825000Y-48245989D01*
X27863652Y-48234264D01*
X27909991Y-48229700D01*
X28986009Y-48229700D01*
X29032348Y-48234264D01*
X29032348Y-48234264D01*
G37*
G36*
X50114348Y-47980264D02*
X50153000Y-47991989D01*
X50188624Y-48011030D01*
X50219846Y-48036654D01*
X50245470Y-48067876D01*
X50264511Y-48103500D01*
X50276236Y-48142152D01*
X50280800Y-48188491D01*
X50280800Y-48839509D01*
X50276236Y-48885848D01*
X50264511Y-48924500D01*
X50245470Y-48960124D01*
X50219846Y-48991346D01*
X50188624Y-49016970D01*
X50153000Y-49036011D01*
X50114348Y-49047736D01*
X50068009Y-49052300D01*
X48991991Y-49052300D01*
X48945652Y-49047736D01*
X48907000Y-49036011D01*
X48871376Y-49016970D01*
X48840154Y-48991346D01*
X48814530Y-48960124D01*
X48795489Y-48924500D01*
X48783764Y-48885848D01*
X48779200Y-48839509D01*
X48779200Y-48188491D01*
X48783764Y-48142152D01*
X48795489Y-48103500D01*
X48814530Y-48067876D01*
X48840154Y-48036654D01*
X48871376Y-48011030D01*
X48907000Y-47991989D01*
X48945652Y-47980264D01*
X48991991Y-47975700D01*
X50068009Y-47975700D01*
X50114348Y-47980264D01*
X50114348Y-47980264D01*
G37*
G36*
X52400348Y-47980264D02*
X52439000Y-47991989D01*
X52474624Y-48011030D01*
X52505846Y-48036654D01*
X52531470Y-48067876D01*
X52550511Y-48103500D01*
X52562236Y-48142152D01*
X52566800Y-48188491D01*
X52566800Y-48839509D01*
X52562236Y-48885848D01*
X52550511Y-48924500D01*
X52531470Y-48960124D01*
X52505846Y-48991346D01*
X52474624Y-49016970D01*
X52439000Y-49036011D01*
X52400348Y-49047736D01*
X52354009Y-49052300D01*
X51277991Y-49052300D01*
X51231652Y-49047736D01*
X51193000Y-49036011D01*
X51157376Y-49016970D01*
X51126154Y-48991346D01*
X51100530Y-48960124D01*
X51081489Y-48924500D01*
X51069764Y-48885848D01*
X51065200Y-48839509D01*
X51065200Y-48188491D01*
X51069764Y-48142152D01*
X51081489Y-48103500D01*
X51100530Y-48067876D01*
X51126154Y-48036654D01*
X51157376Y-48011030D01*
X51193000Y-47991989D01*
X51231652Y-47980264D01*
X51277991Y-47975700D01*
X52354009Y-47975700D01*
X52400348Y-47980264D01*
X52400348Y-47980264D01*
G37*
G36*
X54686348Y-47980264D02*
X54725000Y-47991989D01*
X54760624Y-48011030D01*
X54791846Y-48036654D01*
X54817470Y-48067876D01*
X54836511Y-48103500D01*
X54848236Y-48142152D01*
X54852800Y-48188491D01*
X54852800Y-48839509D01*
X54848236Y-48885848D01*
X54836511Y-48924500D01*
X54817470Y-48960124D01*
X54791846Y-48991346D01*
X54760624Y-49016970D01*
X54725000Y-49036011D01*
X54686348Y-49047736D01*
X54640009Y-49052300D01*
X53563991Y-49052300D01*
X53517652Y-49047736D01*
X53479000Y-49036011D01*
X53443376Y-49016970D01*
X53412154Y-48991346D01*
X53386530Y-48960124D01*
X53367489Y-48924500D01*
X53355764Y-48885848D01*
X53351200Y-48839509D01*
X53351200Y-48188491D01*
X53355764Y-48142152D01*
X53367489Y-48103500D01*
X53386530Y-48067876D01*
X53412154Y-48036654D01*
X53443376Y-48011030D01*
X53479000Y-47991989D01*
X53517652Y-47980264D01*
X53563991Y-47975700D01*
X54640009Y-47975700D01*
X54686348Y-47980264D01*
X54686348Y-47980264D01*
G37*
G36*
X34564848Y-46243764D02*
X34603500Y-46255489D01*
X34639124Y-46274530D01*
X34670346Y-46300154D01*
X34695970Y-46331376D01*
X34715011Y-46367000D01*
X34726736Y-46405652D01*
X34731300Y-46451991D01*
X34731300Y-47528009D01*
X34726736Y-47574348D01*
X34715011Y-47613000D01*
X34695970Y-47648624D01*
X34670346Y-47679846D01*
X34639124Y-47705470D01*
X34603500Y-47724511D01*
X34564848Y-47736236D01*
X34518509Y-47740800D01*
X33867491Y-47740800D01*
X33821152Y-47736236D01*
X33782500Y-47724511D01*
X33746876Y-47705470D01*
X33715654Y-47679846D01*
X33690030Y-47648624D01*
X33670989Y-47613000D01*
X33659264Y-47574348D01*
X33654700Y-47528009D01*
X33654700Y-46451991D01*
X33659264Y-46405652D01*
X33670989Y-46367000D01*
X33690030Y-46331376D01*
X33715654Y-46300154D01*
X33746876Y-46274530D01*
X33782500Y-46255489D01*
X33821152Y-46243764D01*
X33867491Y-46239200D01*
X34518509Y-46239200D01*
X34564848Y-46243764D01*
X34564848Y-46243764D01*
G37*
G36*
X36439848Y-46243764D02*
X36478500Y-46255489D01*
X36514124Y-46274530D01*
X36545346Y-46300154D01*
X36570970Y-46331376D01*
X36590011Y-46367000D01*
X36601736Y-46405652D01*
X36606300Y-46451991D01*
X36606300Y-47528009D01*
X36601736Y-47574348D01*
X36590011Y-47613000D01*
X36570970Y-47648624D01*
X36545346Y-47679846D01*
X36514124Y-47705470D01*
X36478500Y-47724511D01*
X36439848Y-47736236D01*
X36393509Y-47740800D01*
X35742491Y-47740800D01*
X35696152Y-47736236D01*
X35657500Y-47724511D01*
X35621876Y-47705470D01*
X35590654Y-47679846D01*
X35565030Y-47648624D01*
X35545989Y-47613000D01*
X35534264Y-47574348D01*
X35529700Y-47528009D01*
X35529700Y-46451991D01*
X35534264Y-46405652D01*
X35545989Y-46367000D01*
X35565030Y-46331376D01*
X35590654Y-46300154D01*
X35621876Y-46274530D01*
X35657500Y-46255489D01*
X35696152Y-46243764D01*
X35742491Y-46239200D01*
X36393509Y-46239200D01*
X36439848Y-46243764D01*
X36439848Y-46243764D01*
G37*
G36*
X46412800Y-47572800D02*
X44011200Y-47572800D01*
X44011200Y-46071200D01*
X46412800Y-46071200D01*
X46412800Y-47572800D01*
X46412800Y-47572800D01*
G37*
G36*
X29032348Y-46359264D02*
X29071000Y-46370989D01*
X29106624Y-46390030D01*
X29137846Y-46415654D01*
X29163470Y-46446876D01*
X29182511Y-46482500D01*
X29194236Y-46521152D01*
X29198800Y-46567491D01*
X29198800Y-47218509D01*
X29194236Y-47264848D01*
X29182511Y-47303500D01*
X29163470Y-47339124D01*
X29137846Y-47370346D01*
X29106624Y-47395970D01*
X29071000Y-47415011D01*
X29032348Y-47426736D01*
X28986009Y-47431300D01*
X27909991Y-47431300D01*
X27863652Y-47426736D01*
X27825000Y-47415011D01*
X27789376Y-47395970D01*
X27758154Y-47370346D01*
X27732530Y-47339124D01*
X27713489Y-47303500D01*
X27701764Y-47264848D01*
X27697200Y-47218509D01*
X27697200Y-46567491D01*
X27701764Y-46521152D01*
X27713489Y-46482500D01*
X27732530Y-46446876D01*
X27758154Y-46415654D01*
X27789376Y-46390030D01*
X27825000Y-46370989D01*
X27863652Y-46359264D01*
X27909991Y-46354700D01*
X28986009Y-46354700D01*
X29032348Y-46359264D01*
X29032348Y-46359264D01*
G37*
G36*
X52400348Y-46105264D02*
X52439000Y-46116989D01*
X52474624Y-46136030D01*
X52505846Y-46161654D01*
X52531470Y-46192876D01*
X52550511Y-46228500D01*
X52562236Y-46267152D01*
X52566800Y-46313491D01*
X52566800Y-46964509D01*
X52562236Y-47010848D01*
X52550511Y-47049500D01*
X52531470Y-47085124D01*
X52505846Y-47116346D01*
X52474624Y-47141970D01*
X52439000Y-47161011D01*
X52400348Y-47172736D01*
X52354009Y-47177300D01*
X51277991Y-47177300D01*
X51231652Y-47172736D01*
X51193000Y-47161011D01*
X51157376Y-47141970D01*
X51126154Y-47116346D01*
X51100530Y-47085124D01*
X51081489Y-47049500D01*
X51069764Y-47010848D01*
X51065200Y-46964509D01*
X51065200Y-46313491D01*
X51069764Y-46267152D01*
X51081489Y-46228500D01*
X51100530Y-46192876D01*
X51126154Y-46161654D01*
X51157376Y-46136030D01*
X51193000Y-46116989D01*
X51231652Y-46105264D01*
X51277991Y-46100700D01*
X52354009Y-46100700D01*
X52400348Y-46105264D01*
X52400348Y-46105264D01*
G37*
G36*
X54686348Y-46105264D02*
X54725000Y-46116989D01*
X54760624Y-46136030D01*
X54791846Y-46161654D01*
X54817470Y-46192876D01*
X54836511Y-46228500D01*
X54848236Y-46267152D01*
X54852800Y-46313491D01*
X54852800Y-46964509D01*
X54848236Y-47010848D01*
X54836511Y-47049500D01*
X54817470Y-47085124D01*
X54791846Y-47116346D01*
X54760624Y-47141970D01*
X54725000Y-47161011D01*
X54686348Y-47172736D01*
X54640009Y-47177300D01*
X53563991Y-47177300D01*
X53517652Y-47172736D01*
X53479000Y-47161011D01*
X53443376Y-47141970D01*
X53412154Y-47116346D01*
X53386530Y-47085124D01*
X53367489Y-47049500D01*
X53355764Y-47010848D01*
X53351200Y-46964509D01*
X53351200Y-46313491D01*
X53355764Y-46267152D01*
X53367489Y-46228500D01*
X53386530Y-46192876D01*
X53412154Y-46161654D01*
X53443376Y-46136030D01*
X53479000Y-46116989D01*
X53517652Y-46105264D01*
X53563991Y-46100700D01*
X54640009Y-46100700D01*
X54686348Y-46105264D01*
X54686348Y-46105264D01*
G37*
G36*
X50114348Y-46105264D02*
X50153000Y-46116989D01*
X50188624Y-46136030D01*
X50219846Y-46161654D01*
X50245470Y-46192876D01*
X50264511Y-46228500D01*
X50276236Y-46267152D01*
X50280800Y-46313491D01*
X50280800Y-46964509D01*
X50276236Y-47010848D01*
X50264511Y-47049500D01*
X50245470Y-47085124D01*
X50219846Y-47116346D01*
X50188624Y-47141970D01*
X50153000Y-47161011D01*
X50114348Y-47172736D01*
X50068009Y-47177300D01*
X48991991Y-47177300D01*
X48945652Y-47172736D01*
X48907000Y-47161011D01*
X48871376Y-47141970D01*
X48840154Y-47116346D01*
X48814530Y-47085124D01*
X48795489Y-47049500D01*
X48783764Y-47010848D01*
X48779200Y-46964509D01*
X48779200Y-46313491D01*
X48783764Y-46267152D01*
X48795489Y-46228500D01*
X48814530Y-46192876D01*
X48840154Y-46161654D01*
X48871376Y-46136030D01*
X48907000Y-46116989D01*
X48945652Y-46105264D01*
X48991991Y-46100700D01*
X50068009Y-46100700D01*
X50114348Y-46105264D01*
X50114348Y-46105264D01*
G37*
G36*
X41182800Y-47140800D02*
X39081200Y-47140800D01*
X39081200Y-42539200D01*
X41182800Y-42539200D01*
X41182800Y-47140800D01*
X41182800Y-47140800D01*
G37*
G36*
X46696848Y-43195764D02*
X46735500Y-43207489D01*
X46771124Y-43226530D01*
X46802346Y-43252154D01*
X46827970Y-43283376D01*
X46847011Y-43319000D01*
X46858736Y-43357652D01*
X46863300Y-43403991D01*
X46863300Y-44480009D01*
X46858736Y-44526348D01*
X46847011Y-44565000D01*
X46827970Y-44600624D01*
X46802346Y-44631846D01*
X46771124Y-44657470D01*
X46735500Y-44676511D01*
X46696848Y-44688236D01*
X46650509Y-44692800D01*
X45999491Y-44692800D01*
X45953152Y-44688236D01*
X45914500Y-44676511D01*
X45878876Y-44657470D01*
X45847654Y-44631846D01*
X45822030Y-44600624D01*
X45802989Y-44565000D01*
X45791264Y-44526348D01*
X45786700Y-44480009D01*
X45786700Y-43403991D01*
X45791264Y-43357652D01*
X45802989Y-43319000D01*
X45822030Y-43283376D01*
X45847654Y-43252154D01*
X45878876Y-43226530D01*
X45914500Y-43207489D01*
X45953152Y-43195764D01*
X45999491Y-43191200D01*
X46650509Y-43191200D01*
X46696848Y-43195764D01*
X46696848Y-43195764D01*
G37*
G36*
X44821848Y-43195764D02*
X44860500Y-43207489D01*
X44896124Y-43226530D01*
X44927346Y-43252154D01*
X44952970Y-43283376D01*
X44972011Y-43319000D01*
X44983736Y-43357652D01*
X44988300Y-43403991D01*
X44988300Y-44480009D01*
X44983736Y-44526348D01*
X44972011Y-44565000D01*
X44952970Y-44600624D01*
X44927346Y-44631846D01*
X44896124Y-44657470D01*
X44860500Y-44676511D01*
X44821848Y-44688236D01*
X44775509Y-44692800D01*
X44124491Y-44692800D01*
X44078152Y-44688236D01*
X44039500Y-44676511D01*
X44003876Y-44657470D01*
X43972654Y-44631846D01*
X43947030Y-44600624D01*
X43927989Y-44565000D01*
X43916264Y-44526348D01*
X43911700Y-44480009D01*
X43911700Y-43403991D01*
X43916264Y-43357652D01*
X43927989Y-43319000D01*
X43947030Y-43283376D01*
X43972654Y-43252154D01*
X44003876Y-43226530D01*
X44039500Y-43207489D01*
X44078152Y-43195764D01*
X44124491Y-43191200D01*
X44775509Y-43191200D01*
X44821848Y-43195764D01*
X44821848Y-43195764D01*
G37*
G36*
X52400348Y-42646264D02*
X52439000Y-42657989D01*
X52474624Y-42677030D01*
X52505846Y-42702654D01*
X52531470Y-42733876D01*
X52550511Y-42769500D01*
X52562236Y-42808152D01*
X52566800Y-42854491D01*
X52566800Y-43505509D01*
X52562236Y-43551848D01*
X52550511Y-43590500D01*
X52531470Y-43626124D01*
X52505846Y-43657346D01*
X52474624Y-43682970D01*
X52439000Y-43702011D01*
X52400348Y-43713736D01*
X52354009Y-43718300D01*
X51277991Y-43718300D01*
X51231652Y-43713736D01*
X51193000Y-43702011D01*
X51157376Y-43682970D01*
X51126154Y-43657346D01*
X51100530Y-43626124D01*
X51081489Y-43590500D01*
X51069764Y-43551848D01*
X51065200Y-43505509D01*
X51065200Y-42854491D01*
X51069764Y-42808152D01*
X51081489Y-42769500D01*
X51100530Y-42733876D01*
X51126154Y-42702654D01*
X51157376Y-42677030D01*
X51193000Y-42657989D01*
X51231652Y-42646264D01*
X51277991Y-42641700D01*
X52354009Y-42641700D01*
X52400348Y-42646264D01*
X52400348Y-42646264D01*
G37*
G36*
X54686348Y-42646264D02*
X54725000Y-42657989D01*
X54760624Y-42677030D01*
X54791846Y-42702654D01*
X54817470Y-42733876D01*
X54836511Y-42769500D01*
X54848236Y-42808152D01*
X54852800Y-42854491D01*
X54852800Y-43505509D01*
X54848236Y-43551848D01*
X54836511Y-43590500D01*
X54817470Y-43626124D01*
X54791846Y-43657346D01*
X54760624Y-43682970D01*
X54725000Y-43702011D01*
X54686348Y-43713736D01*
X54640009Y-43718300D01*
X53563991Y-43718300D01*
X53517652Y-43713736D01*
X53479000Y-43702011D01*
X53443376Y-43682970D01*
X53412154Y-43657346D01*
X53386530Y-43626124D01*
X53367489Y-43590500D01*
X53355764Y-43551848D01*
X53351200Y-43505509D01*
X53351200Y-42854491D01*
X53355764Y-42808152D01*
X53367489Y-42769500D01*
X53386530Y-42733876D01*
X53412154Y-42702654D01*
X53443376Y-42677030D01*
X53479000Y-42657989D01*
X53517652Y-42646264D01*
X53563991Y-42641700D01*
X54640009Y-42641700D01*
X54686348Y-42646264D01*
X54686348Y-42646264D01*
G37*
G36*
X52400348Y-40771264D02*
X52439000Y-40782989D01*
X52474624Y-40802030D01*
X52505846Y-40827654D01*
X52531470Y-40858876D01*
X52550511Y-40894500D01*
X52562236Y-40933152D01*
X52566800Y-40979491D01*
X52566800Y-41630509D01*
X52562236Y-41676848D01*
X52550511Y-41715500D01*
X52531470Y-41751124D01*
X52505846Y-41782346D01*
X52474624Y-41807970D01*
X52439000Y-41827011D01*
X52400348Y-41838736D01*
X52354009Y-41843300D01*
X51277991Y-41843300D01*
X51231652Y-41838736D01*
X51193000Y-41827011D01*
X51157376Y-41807970D01*
X51126154Y-41782346D01*
X51100530Y-41751124D01*
X51081489Y-41715500D01*
X51069764Y-41676848D01*
X51065200Y-41630509D01*
X51065200Y-40979491D01*
X51069764Y-40933152D01*
X51081489Y-40894500D01*
X51100530Y-40858876D01*
X51126154Y-40827654D01*
X51157376Y-40802030D01*
X51193000Y-40782989D01*
X51231652Y-40771264D01*
X51277991Y-40766700D01*
X52354009Y-40766700D01*
X52400348Y-40771264D01*
X52400348Y-40771264D01*
G37*
G36*
X54686348Y-40771264D02*
X54725000Y-40782989D01*
X54760624Y-40802030D01*
X54791846Y-40827654D01*
X54817470Y-40858876D01*
X54836511Y-40894500D01*
X54848236Y-40933152D01*
X54852800Y-40979491D01*
X54852800Y-41630509D01*
X54848236Y-41676848D01*
X54836511Y-41715500D01*
X54817470Y-41751124D01*
X54791846Y-41782346D01*
X54760624Y-41807970D01*
X54725000Y-41827011D01*
X54686348Y-41838736D01*
X54640009Y-41843300D01*
X53563991Y-41843300D01*
X53517652Y-41838736D01*
X53479000Y-41827011D01*
X53443376Y-41807970D01*
X53412154Y-41782346D01*
X53386530Y-41751124D01*
X53367489Y-41715500D01*
X53355764Y-41676848D01*
X53351200Y-41630509D01*
X53351200Y-40979491D01*
X53355764Y-40933152D01*
X53367489Y-40894500D01*
X53386530Y-40858876D01*
X53412154Y-40827654D01*
X53443376Y-40802030D01*
X53479000Y-40782989D01*
X53517652Y-40771264D01*
X53563991Y-40766700D01*
X54640009Y-40766700D01*
X54686348Y-40771264D01*
X54686348Y-40771264D01*
G37*
G36*
X52857431Y-23277562D02*
X52859666Y-23277578D01*
X52859664Y-23277797D01*
X52859785Y-23277809D01*
X52860035Y-23277810D01*
X52860037Y-23277581D01*
X52862575Y-23277599D01*
X52868087Y-23277086D01*
X52878970Y-23277733D01*
X52966599Y-23287562D01*
X52967901Y-23287701D01*
X53052798Y-23296325D01*
X53057566Y-23297286D01*
X53059844Y-23297643D01*
X53068529Y-23299489D01*
X53069818Y-23299756D01*
X53078375Y-23301481D01*
X53080568Y-23302048D01*
X53085355Y-23303066D01*
X53166776Y-23328895D01*
X53168027Y-23329285D01*
X53249551Y-23354209D01*
X53254044Y-23356079D01*
X53256170Y-23356857D01*
X53264301Y-23360342D01*
X53265504Y-23360850D01*
X53273661Y-23364245D01*
X53275708Y-23365231D01*
X53280185Y-23367150D01*
X53354965Y-23408261D01*
X53356117Y-23408886D01*
X53431321Y-23449210D01*
X53435381Y-23451927D01*
X53437318Y-23453105D01*
X53444564Y-23458067D01*
X53445655Y-23458805D01*
X53453002Y-23463723D01*
X53454837Y-23465101D01*
X53458849Y-23467848D01*
X53524199Y-23522683D01*
X53525206Y-23523519D01*
X53593528Y-23579639D01*
X53601798Y-23587138D01*
X55096854Y-25082194D01*
X55100619Y-25086832D01*
X55101776Y-25088005D01*
X55101662Y-25088117D01*
X55101897Y-25088407D01*
X55102036Y-25088270D01*
X55103675Y-25089931D01*
X55107948Y-25093465D01*
X55115314Y-25101762D01*
X55170325Y-25170674D01*
X55171148Y-25171694D01*
X55225087Y-25237829D01*
X55227777Y-25241878D01*
X55229122Y-25243722D01*
X55233947Y-25251153D01*
X55234666Y-25252249D01*
X55239535Y-25259578D01*
X55240682Y-25261524D01*
X55243339Y-25265616D01*
X55282614Y-25341385D01*
X55283222Y-25342543D01*
X55323284Y-25417891D01*
X55325145Y-25422404D01*
X55326109Y-25424482D01*
X55329378Y-25432654D01*
X55329870Y-25433866D01*
X55333222Y-25441999D01*
X55333979Y-25444161D01*
X55335792Y-25448693D01*
X55359592Y-25530612D01*
X55359963Y-25531865D01*
X55384634Y-25613582D01*
X55385581Y-25618364D01*
X55386120Y-25620574D01*
X55387735Y-25629206D01*
X55387983Y-25630494D01*
X55389705Y-25639191D01*
X55390027Y-25641452D01*
X55390923Y-25646240D01*
X55398359Y-25731230D01*
X55398480Y-25732533D01*
X55407106Y-25820506D01*
X55407651Y-25831658D01*
X55407651Y-38328600D01*
X55407650Y-38328959D01*
X55407576Y-38339644D01*
X55406867Y-38351572D01*
X55386159Y-38536191D01*
X55381532Y-38557958D01*
X55326217Y-38732331D01*
X55317448Y-38752788D01*
X55229321Y-38913092D01*
X55216751Y-38931451D01*
X55099160Y-39071590D01*
X55083260Y-39087161D01*
X54940701Y-39201781D01*
X54922068Y-39213973D01*
X54759953Y-39298725D01*
X54739324Y-39307060D01*
X54563834Y-39358709D01*
X54541977Y-39362879D01*
X54359786Y-39379460D01*
X54337537Y-39379305D01*
X54155604Y-39360182D01*
X54133809Y-39355709D01*
X53959053Y-39301613D01*
X53938537Y-39292988D01*
X53777615Y-39205979D01*
X53759174Y-39193540D01*
X53618218Y-39076931D01*
X53602537Y-39061141D01*
X53486917Y-38919376D01*
X53474606Y-38900846D01*
X53388717Y-38739312D01*
X53380241Y-38718748D01*
X53327365Y-38543614D01*
X53323043Y-38521785D01*
X53304894Y-38336694D01*
X53304349Y-38325541D01*
X53304349Y-26315985D01*
X53301947Y-26291599D01*
X53294834Y-26268150D01*
X53283283Y-26246539D01*
X53267737Y-26227597D01*
X52457003Y-25416863D01*
X52438061Y-25401317D01*
X52416450Y-25389766D01*
X52393001Y-25382653D01*
X52368615Y-25380251D01*
X26343385Y-25380251D01*
X26318999Y-25382653D01*
X26295550Y-25389766D01*
X26273939Y-25401317D01*
X26254997Y-25416863D01*
X25444263Y-26227597D01*
X25428717Y-26246539D01*
X25417166Y-26268150D01*
X25410053Y-26291599D01*
X25407651Y-26315985D01*
X25407651Y-38328600D01*
X25407650Y-38328959D01*
X25407576Y-38339644D01*
X25406867Y-38351572D01*
X25386159Y-38536191D01*
X25381532Y-38557958D01*
X25326217Y-38732331D01*
X25317448Y-38752788D01*
X25229321Y-38913092D01*
X25216751Y-38931451D01*
X25099160Y-39071590D01*
X25083260Y-39087161D01*
X24940701Y-39201781D01*
X24922068Y-39213973D01*
X24759953Y-39298725D01*
X24739324Y-39307060D01*
X24563834Y-39358709D01*
X24541977Y-39362879D01*
X24359786Y-39379460D01*
X24337537Y-39379305D01*
X24155604Y-39360182D01*
X24133809Y-39355709D01*
X23959053Y-39301613D01*
X23938537Y-39292988D01*
X23777615Y-39205979D01*
X23759174Y-39193540D01*
X23618218Y-39076931D01*
X23602537Y-39061141D01*
X23486917Y-38919376D01*
X23474606Y-38900846D01*
X23388717Y-38739312D01*
X23380241Y-38718748D01*
X23327365Y-38543614D01*
X23323043Y-38521785D01*
X23304894Y-38336694D01*
X23304349Y-38325541D01*
X23304349Y-25833019D01*
X23304962Y-25827169D01*
X23304978Y-25824934D01*
X23305197Y-25824936D01*
X23305209Y-25824815D01*
X23305210Y-25824565D01*
X23304981Y-25824563D01*
X23304999Y-25822025D01*
X23304486Y-25816513D01*
X23305133Y-25805630D01*
X23314962Y-25718001D01*
X23315101Y-25716699D01*
X23323725Y-25631802D01*
X23324686Y-25627034D01*
X23325043Y-25624756D01*
X23326889Y-25616071D01*
X23327156Y-25614782D01*
X23328881Y-25606225D01*
X23329448Y-25604032D01*
X23330466Y-25599245D01*
X23356295Y-25517824D01*
X23356685Y-25516573D01*
X23381609Y-25435049D01*
X23383479Y-25430556D01*
X23384257Y-25428430D01*
X23387742Y-25420299D01*
X23388250Y-25419096D01*
X23391645Y-25410939D01*
X23392631Y-25408892D01*
X23394550Y-25404415D01*
X23435661Y-25329635D01*
X23436286Y-25328483D01*
X23476610Y-25253279D01*
X23479327Y-25249219D01*
X23480505Y-25247282D01*
X23485467Y-25240036D01*
X23486205Y-25238945D01*
X23491123Y-25231598D01*
X23492501Y-25229763D01*
X23495248Y-25225751D01*
X23550083Y-25160401D01*
X23550919Y-25159394D01*
X23607039Y-25091072D01*
X23614538Y-25082802D01*
X25109594Y-23587746D01*
X25114232Y-23583981D01*
X25115405Y-23582824D01*
X25115517Y-23582938D01*
X25115807Y-23582703D01*
X25115670Y-23582564D01*
X25117331Y-23580925D01*
X25120865Y-23576652D01*
X25129162Y-23569286D01*
X25198074Y-23514275D01*
X25199094Y-23513452D01*
X25265229Y-23459513D01*
X25269278Y-23456823D01*
X25271122Y-23455478D01*
X25278553Y-23450653D01*
X25279649Y-23449934D01*
X25286978Y-23445065D01*
X25288924Y-23443918D01*
X25293016Y-23441261D01*
X25368785Y-23401986D01*
X25369943Y-23401378D01*
X25445291Y-23361316D01*
X25449804Y-23359455D01*
X25451882Y-23358491D01*
X25460054Y-23355222D01*
X25461266Y-23354730D01*
X25469399Y-23351378D01*
X25471561Y-23350621D01*
X25476093Y-23348808D01*
X25558012Y-23325008D01*
X25559265Y-23324637D01*
X25640982Y-23299966D01*
X25645764Y-23299019D01*
X25647960Y-23298484D01*
X25656630Y-23296861D01*
X25657910Y-23296614D01*
X25666598Y-23294894D01*
X25668852Y-23294573D01*
X25673640Y-23293677D01*
X25758630Y-23286241D01*
X25759933Y-23286120D01*
X25847906Y-23277494D01*
X25859058Y-23276949D01*
X52851581Y-23276949D01*
X52857431Y-23277562D01*
X52857431Y-23277562D01*
G37*
M02*
