M48
;DRILL file {KiCad (5.0.1)-rc2} date 2018-12-03 6:09:10 PM
;FORMAT={-:-/ absolute / inch / decimal}
FMAT,2
INCH,TZ
T1C0.0118
T2C0.0150
%
G90
G05
M72
T1
X1.02Y-1.93
X1.02Y-2.11
X1.05Y-2.46
X1.15Y-2.78
X1.19Y-1.83
X1.22Y-2.25
X1.31Y-2.04
X1.37Y-1.79
X1.37Y-2.18
X1.38Y-1.95
X1.44Y-2.32
X1.5Y-2.26
X1.64Y-2.66
X1.67Y-1.96
X1.71Y-2.13
X1.74Y-2.08
X1.77Y-1.91
X1.7988Y-1.9391
X1.805Y-2.09
X1.855Y-2.71
X1.86Y-1.9
X1.95Y-1.96
X1.95Y-2.3
X2.04Y-1.75
X2.04Y-2.16
X2.08Y-2.38
X2.13Y-2.16
T2
X0.9353Y-1.509
X0.9825Y-1.509
T0
M30
