G04 #@! TF.GenerationSoftware,KiCad,Pcbnew,(5.0.1)-rc2*
G04 #@! TF.CreationDate,2018-12-03T18:09:08-05:00*
G04 #@! TF.ProjectId,tpms_silencer,74706D735F73696C656E6365722E6B69,rev?*
G04 #@! TF.SameCoordinates,Original*
G04 #@! TF.FileFunction,Legend,Top*
G04 #@! TF.FilePolarity,Positive*
%FSLAX46Y46*%
G04 Gerber Fmt 4.6, Leading zero omitted, Abs format (unit mm)*
G04 Created by KiCad (PCBNEW (5.0.1)-rc2) date 2018-12-03 6:09:08 PM*
%MOMM*%
%LPD*%
G01*
G04 APERTURE LIST*
%ADD10C,0.300000*%
%ADD11C,0.120000*%
%ADD12C,0.150000*%
%ADD13C,0.100000*%
G04 APERTURE END LIST*
D10*
X31258857Y-28891571D02*
X32116000Y-28891571D01*
X31687428Y-30391571D02*
X31687428Y-28891571D01*
X32616000Y-30391571D02*
X32616000Y-28891571D01*
X33187428Y-28891571D01*
X33330285Y-28963000D01*
X33401714Y-29034428D01*
X33473142Y-29177285D01*
X33473142Y-29391571D01*
X33401714Y-29534428D01*
X33330285Y-29605857D01*
X33187428Y-29677285D01*
X32616000Y-29677285D01*
X34116000Y-30391571D02*
X34116000Y-28891571D01*
X34616000Y-29963000D01*
X35116000Y-28891571D01*
X35116000Y-30391571D01*
X35758857Y-30320142D02*
X35973142Y-30391571D01*
X36330285Y-30391571D01*
X36473142Y-30320142D01*
X36544571Y-30248714D01*
X36616000Y-30105857D01*
X36616000Y-29963000D01*
X36544571Y-29820142D01*
X36473142Y-29748714D01*
X36330285Y-29677285D01*
X36044571Y-29605857D01*
X35901714Y-29534428D01*
X35830285Y-29463000D01*
X35758857Y-29320142D01*
X35758857Y-29177285D01*
X35830285Y-29034428D01*
X35901714Y-28963000D01*
X36044571Y-28891571D01*
X36401714Y-28891571D01*
X36616000Y-28963000D01*
X38330285Y-30320142D02*
X38544571Y-30391571D01*
X38901714Y-30391571D01*
X39044571Y-30320142D01*
X39116000Y-30248714D01*
X39187428Y-30105857D01*
X39187428Y-29963000D01*
X39116000Y-29820142D01*
X39044571Y-29748714D01*
X38901714Y-29677285D01*
X38616000Y-29605857D01*
X38473142Y-29534428D01*
X38401714Y-29463000D01*
X38330285Y-29320142D01*
X38330285Y-29177285D01*
X38401714Y-29034428D01*
X38473142Y-28963000D01*
X38616000Y-28891571D01*
X38973142Y-28891571D01*
X39187428Y-28963000D01*
X39830285Y-30391571D02*
X39830285Y-29391571D01*
X39830285Y-28891571D02*
X39758857Y-28963000D01*
X39830285Y-29034428D01*
X39901714Y-28963000D01*
X39830285Y-28891571D01*
X39830285Y-29034428D01*
X40758857Y-30391571D02*
X40616000Y-30320142D01*
X40544571Y-30177285D01*
X40544571Y-28891571D01*
X41901714Y-30320142D02*
X41758857Y-30391571D01*
X41473142Y-30391571D01*
X41330285Y-30320142D01*
X41258857Y-30177285D01*
X41258857Y-29605857D01*
X41330285Y-29463000D01*
X41473142Y-29391571D01*
X41758857Y-29391571D01*
X41901714Y-29463000D01*
X41973142Y-29605857D01*
X41973142Y-29748714D01*
X41258857Y-29891571D01*
X42616000Y-29391571D02*
X42616000Y-30391571D01*
X42616000Y-29534428D02*
X42687428Y-29463000D01*
X42830285Y-29391571D01*
X43044571Y-29391571D01*
X43187428Y-29463000D01*
X43258857Y-29605857D01*
X43258857Y-30391571D01*
X44616000Y-30320142D02*
X44473142Y-30391571D01*
X44187428Y-30391571D01*
X44044571Y-30320142D01*
X43973142Y-30248714D01*
X43901714Y-30105857D01*
X43901714Y-29677285D01*
X43973142Y-29534428D01*
X44044571Y-29463000D01*
X44187428Y-29391571D01*
X44473142Y-29391571D01*
X44616000Y-29463000D01*
X45830285Y-30320142D02*
X45687428Y-30391571D01*
X45401714Y-30391571D01*
X45258857Y-30320142D01*
X45187428Y-30177285D01*
X45187428Y-29605857D01*
X45258857Y-29463000D01*
X45401714Y-29391571D01*
X45687428Y-29391571D01*
X45830285Y-29463000D01*
X45901714Y-29605857D01*
X45901714Y-29748714D01*
X45187428Y-29891571D01*
X46544571Y-30391571D02*
X46544571Y-29391571D01*
X46544571Y-29677285D02*
X46616000Y-29534428D01*
X46687428Y-29463000D01*
X46830285Y-29391571D01*
X46973142Y-29391571D01*
X38044571Y-31941571D02*
X38401714Y-32941571D01*
X38758857Y-31941571D01*
X39258857Y-31584428D02*
X39330285Y-31513000D01*
X39473142Y-31441571D01*
X39830285Y-31441571D01*
X39973142Y-31513000D01*
X40044571Y-31584428D01*
X40116000Y-31727285D01*
X40116000Y-31870142D01*
X40044571Y-32084428D01*
X39187428Y-32941571D01*
X40116000Y-32941571D01*
D11*
G04 #@! TO.C,Y2*
X37582000Y-42390000D02*
X37582000Y-54990000D01*
X42682000Y-42390000D02*
X37582000Y-42390000D01*
X42682000Y-54990000D02*
X42682000Y-42390000D01*
G04 #@! TO.C,C1*
X24436000Y-56207922D02*
X24436000Y-56725078D01*
X25856000Y-56207922D02*
X25856000Y-56725078D01*
G04 #@! TO.C,C2*
X27888000Y-69933078D02*
X27888000Y-69415922D01*
X26468000Y-69933078D02*
X26468000Y-69415922D01*
G04 #@! TO.C,C3*
X30278000Y-69415922D02*
X30278000Y-69933078D01*
X31698000Y-69415922D02*
X31698000Y-69933078D01*
G04 #@! TO.C,C4*
X35389078Y-47700000D02*
X34871922Y-47700000D01*
X35389078Y-46280000D02*
X34871922Y-46280000D01*
G04 #@! TO.C,C5*
X35389078Y-51510000D02*
X34871922Y-51510000D01*
X35389078Y-50090000D02*
X34871922Y-50090000D01*
G04 #@! TO.C,C6*
X45539922Y-55320000D02*
X46057078Y-55320000D01*
X45539922Y-53900000D02*
X46057078Y-53900000D01*
G04 #@! TO.C,C7*
X48820000Y-55953922D02*
X48820000Y-56471078D01*
X50240000Y-55953922D02*
X50240000Y-56471078D01*
G04 #@! TO.C,C8*
X48820000Y-47317922D02*
X48820000Y-47835078D01*
X50240000Y-47317922D02*
X50240000Y-47835078D01*
G04 #@! TO.C,C9*
X53392000Y-52240922D02*
X53392000Y-52758078D01*
X54812000Y-52240922D02*
X54812000Y-52758078D01*
G04 #@! TO.C,C10*
X48820000Y-52240922D02*
X48820000Y-52758078D01*
X50240000Y-52240922D02*
X50240000Y-52758078D01*
G04 #@! TO.C,C11*
X53392000Y-47317922D02*
X53392000Y-47835078D01*
X54812000Y-47317922D02*
X54812000Y-47835078D01*
G04 #@! TO.C,C12*
X51106000Y-52240922D02*
X51106000Y-52758078D01*
X52526000Y-52240922D02*
X52526000Y-52758078D01*
G04 #@! TO.C,C13*
X51106000Y-41983922D02*
X51106000Y-42501078D01*
X52526000Y-41983922D02*
X52526000Y-42501078D01*
G04 #@! TO.C,L1*
X52526000Y-47835078D02*
X52526000Y-47317922D01*
X51106000Y-47835078D02*
X51106000Y-47317922D01*
G04 #@! TO.C,L2*
X54812000Y-42501078D02*
X54812000Y-41983922D01*
X53392000Y-42501078D02*
X53392000Y-41983922D01*
G04 #@! TO.C,R2*
X29158000Y-48089078D02*
X29158000Y-47571922D01*
X27738000Y-48089078D02*
X27738000Y-47571922D01*
G04 #@! TO.C,R3*
X45128922Y-44652000D02*
X45646078Y-44652000D01*
X45128922Y-43232000D02*
X45646078Y-43232000D01*
D12*
G04 #@! TO.C,U1*
X26563000Y-58369000D02*
X26563000Y-59744000D01*
X35438000Y-58369000D02*
X35438000Y-54219000D01*
X26538000Y-58369000D02*
X26538000Y-54219000D01*
X35438000Y-58369000D02*
X35323000Y-58369000D01*
X35438000Y-54219000D02*
X35323000Y-54219000D01*
X26538000Y-54219000D02*
X26653000Y-54219000D01*
X26538000Y-58369000D02*
X26563000Y-58369000D01*
G04 #@! TO.C,U2*
X43762000Y-50697000D02*
X43762000Y-51922000D01*
X46887000Y-50697000D02*
X46887000Y-47347000D01*
X43537000Y-50697000D02*
X43537000Y-47347000D01*
X46887000Y-50697000D02*
X46587000Y-50697000D01*
X46887000Y-47347000D02*
X46587000Y-47347000D01*
X43537000Y-47347000D02*
X43837000Y-47347000D01*
X43537000Y-50697000D02*
X43762000Y-50697000D01*
D11*
G04 #@! TO.C,R1*
X40588000Y-70681322D02*
X40588000Y-71198478D01*
X39168000Y-70681322D02*
X39168000Y-71198478D01*
G04 #@! TO.C,SW1*
X42516000Y-60509200D02*
X42516000Y-60539200D01*
X42516000Y-66969200D02*
X42516000Y-66939200D01*
X36056000Y-66969200D02*
X36056000Y-66939200D01*
X36056000Y-60539200D02*
X36056000Y-60509200D01*
X42516000Y-62439200D02*
X42516000Y-65039200D01*
X36056000Y-60509200D02*
X42516000Y-60509200D01*
X36056000Y-62439200D02*
X36056000Y-65039200D01*
X36056000Y-66969200D02*
X42516000Y-66969200D01*
G04 #@! TO.C,Y1*
X26528000Y-63822000D02*
X31528000Y-63822000D01*
X26528000Y-67242000D02*
X31528000Y-67242000D01*
G04 #@! TO.C,Y2*
D13*
X37021295Y-49328095D02*
X37259390Y-49328095D01*
X36759390Y-49494761D02*
X37021295Y-49328095D01*
X36759390Y-49161428D01*
X36807009Y-49018571D02*
X36783200Y-48994761D01*
X36759390Y-48947142D01*
X36759390Y-48828095D01*
X36783200Y-48780476D01*
X36807009Y-48756666D01*
X36854628Y-48732857D01*
X36902247Y-48732857D01*
X36973676Y-48756666D01*
X37259390Y-49042380D01*
X37259390Y-48732857D01*
G04 #@! TO.C,AE1*
D12*
X36689333Y-21995266D02*
X37165523Y-21995266D01*
X36594095Y-22280980D02*
X36927428Y-21280980D01*
X37260761Y-22280980D01*
X37594095Y-21757171D02*
X37927428Y-21757171D01*
X38070285Y-22280980D02*
X37594095Y-22280980D01*
X37594095Y-21280980D01*
X38070285Y-21280980D01*
X39022666Y-22280980D02*
X38451238Y-22280980D01*
X38736952Y-22280980D02*
X38736952Y-21280980D01*
X38641714Y-21423838D01*
X38546476Y-21519076D01*
X38451238Y-21566695D01*
G04 #@! TO.C,C1*
D13*
X25062666Y-54613071D02*
X25038857Y-54636880D01*
X24967428Y-54660690D01*
X24919809Y-54660690D01*
X24848380Y-54636880D01*
X24800761Y-54589261D01*
X24776952Y-54541642D01*
X24753142Y-54446404D01*
X24753142Y-54374976D01*
X24776952Y-54279738D01*
X24800761Y-54232119D01*
X24848380Y-54184500D01*
X24919809Y-54160690D01*
X24967428Y-54160690D01*
X25038857Y-54184500D01*
X25062666Y-54208309D01*
X25538857Y-54660690D02*
X25253142Y-54660690D01*
X25396000Y-54660690D02*
X25396000Y-54160690D01*
X25348380Y-54232119D01*
X25300761Y-54279738D01*
X25253142Y-54303547D01*
G04 #@! TO.C,C2*
X25706571Y-69757833D02*
X25730380Y-69781642D01*
X25754190Y-69853071D01*
X25754190Y-69900690D01*
X25730380Y-69972119D01*
X25682761Y-70019738D01*
X25635142Y-70043547D01*
X25539904Y-70067357D01*
X25468476Y-70067357D01*
X25373238Y-70043547D01*
X25325619Y-70019738D01*
X25278000Y-69972119D01*
X25254190Y-69900690D01*
X25254190Y-69853071D01*
X25278000Y-69781642D01*
X25301809Y-69757833D01*
X25301809Y-69567357D02*
X25278000Y-69543547D01*
X25254190Y-69495928D01*
X25254190Y-69376880D01*
X25278000Y-69329261D01*
X25301809Y-69305452D01*
X25349428Y-69281642D01*
X25397047Y-69281642D01*
X25468476Y-69305452D01*
X25754190Y-69591166D01*
X25754190Y-69281642D01*
G04 #@! TO.C,C3*
X32816571Y-69757833D02*
X32840380Y-69781642D01*
X32864190Y-69853071D01*
X32864190Y-69900690D01*
X32840380Y-69972119D01*
X32792761Y-70019738D01*
X32745142Y-70043547D01*
X32649904Y-70067357D01*
X32578476Y-70067357D01*
X32483238Y-70043547D01*
X32435619Y-70019738D01*
X32388000Y-69972119D01*
X32364190Y-69900690D01*
X32364190Y-69853071D01*
X32388000Y-69781642D01*
X32411809Y-69757833D01*
X32364190Y-69591166D02*
X32364190Y-69281642D01*
X32554666Y-69448309D01*
X32554666Y-69376880D01*
X32578476Y-69329261D01*
X32602285Y-69305452D01*
X32649904Y-69281642D01*
X32768952Y-69281642D01*
X32816571Y-69305452D01*
X32840380Y-69329261D01*
X32864190Y-69376880D01*
X32864190Y-69519738D01*
X32840380Y-69567357D01*
X32816571Y-69591166D01*
G04 #@! TO.C,C4*
X35047166Y-45898571D02*
X35023357Y-45922380D01*
X34951928Y-45946190D01*
X34904309Y-45946190D01*
X34832880Y-45922380D01*
X34785261Y-45874761D01*
X34761452Y-45827142D01*
X34737642Y-45731904D01*
X34737642Y-45660476D01*
X34761452Y-45565238D01*
X34785261Y-45517619D01*
X34832880Y-45470000D01*
X34904309Y-45446190D01*
X34951928Y-45446190D01*
X35023357Y-45470000D01*
X35047166Y-45493809D01*
X35475738Y-45612857D02*
X35475738Y-45946190D01*
X35356690Y-45422380D02*
X35237642Y-45779523D01*
X35547166Y-45779523D01*
G04 #@! TO.C,C5*
X34968666Y-49708571D02*
X34944857Y-49732380D01*
X34873428Y-49756190D01*
X34825809Y-49756190D01*
X34754380Y-49732380D01*
X34706761Y-49684761D01*
X34682952Y-49637142D01*
X34659142Y-49541904D01*
X34659142Y-49470476D01*
X34682952Y-49375238D01*
X34706761Y-49327619D01*
X34754380Y-49280000D01*
X34825809Y-49256190D01*
X34873428Y-49256190D01*
X34944857Y-49280000D01*
X34968666Y-49303809D01*
X35421047Y-49256190D02*
X35182952Y-49256190D01*
X35159142Y-49494285D01*
X35182952Y-49470476D01*
X35230571Y-49446666D01*
X35349619Y-49446666D01*
X35397238Y-49470476D01*
X35421047Y-49494285D01*
X35444857Y-49541904D01*
X35444857Y-49660952D01*
X35421047Y-49708571D01*
X35397238Y-49732380D01*
X35349619Y-49756190D01*
X35230571Y-49756190D01*
X35182952Y-49732380D01*
X35159142Y-49708571D01*
G04 #@! TO.C,C6*
X45715166Y-56312571D02*
X45691357Y-56336380D01*
X45619928Y-56360190D01*
X45572309Y-56360190D01*
X45500880Y-56336380D01*
X45453261Y-56288761D01*
X45429452Y-56241142D01*
X45405642Y-56145904D01*
X45405642Y-56074476D01*
X45429452Y-55979238D01*
X45453261Y-55931619D01*
X45500880Y-55884000D01*
X45572309Y-55860190D01*
X45619928Y-55860190D01*
X45691357Y-55884000D01*
X45715166Y-55907809D01*
X46143738Y-55860190D02*
X46048500Y-55860190D01*
X46000880Y-55884000D01*
X45977071Y-55907809D01*
X45929452Y-55979238D01*
X45905642Y-56074476D01*
X45905642Y-56264952D01*
X45929452Y-56312571D01*
X45953261Y-56336380D01*
X46000880Y-56360190D01*
X46096119Y-56360190D01*
X46143738Y-56336380D01*
X46167547Y-56312571D01*
X46191357Y-56264952D01*
X46191357Y-56145904D01*
X46167547Y-56098285D01*
X46143738Y-56074476D01*
X46096119Y-56050666D01*
X46000880Y-56050666D01*
X45953261Y-56074476D01*
X45929452Y-56098285D01*
X45905642Y-56145904D01*
G04 #@! TO.C,C7*
X51358571Y-56295833D02*
X51382380Y-56319642D01*
X51406190Y-56391071D01*
X51406190Y-56438690D01*
X51382380Y-56510119D01*
X51334761Y-56557738D01*
X51287142Y-56581547D01*
X51191904Y-56605357D01*
X51120476Y-56605357D01*
X51025238Y-56581547D01*
X50977619Y-56557738D01*
X50930000Y-56510119D01*
X50906190Y-56438690D01*
X50906190Y-56391071D01*
X50930000Y-56319642D01*
X50953809Y-56295833D01*
X50906190Y-56129166D02*
X50906190Y-55795833D01*
X51406190Y-56010119D01*
G04 #@! TO.C,C8*
X49708571Y-45295333D02*
X49732380Y-45319142D01*
X49756190Y-45390571D01*
X49756190Y-45438190D01*
X49732380Y-45509619D01*
X49684761Y-45557238D01*
X49637142Y-45581047D01*
X49541904Y-45604857D01*
X49470476Y-45604857D01*
X49375238Y-45581047D01*
X49327619Y-45557238D01*
X49280000Y-45509619D01*
X49256190Y-45438190D01*
X49256190Y-45390571D01*
X49280000Y-45319142D01*
X49303809Y-45295333D01*
X49470476Y-45009619D02*
X49446666Y-45057238D01*
X49422857Y-45081047D01*
X49375238Y-45104857D01*
X49351428Y-45104857D01*
X49303809Y-45081047D01*
X49280000Y-45057238D01*
X49256190Y-45009619D01*
X49256190Y-44914380D01*
X49280000Y-44866761D01*
X49303809Y-44842952D01*
X49351428Y-44819142D01*
X49375238Y-44819142D01*
X49422857Y-44842952D01*
X49446666Y-44866761D01*
X49470476Y-44914380D01*
X49470476Y-45009619D01*
X49494285Y-45057238D01*
X49518095Y-45081047D01*
X49565714Y-45104857D01*
X49660952Y-45104857D01*
X49708571Y-45081047D01*
X49732380Y-45057238D01*
X49756190Y-45009619D01*
X49756190Y-44914380D01*
X49732380Y-44866761D01*
X49708571Y-44842952D01*
X49660952Y-44819142D01*
X49565714Y-44819142D01*
X49518095Y-44842952D01*
X49494285Y-44866761D01*
X49470476Y-44914380D01*
G04 #@! TO.C,C9*
X54280571Y-50375333D02*
X54304380Y-50399142D01*
X54328190Y-50470571D01*
X54328190Y-50518190D01*
X54304380Y-50589619D01*
X54256761Y-50637238D01*
X54209142Y-50661047D01*
X54113904Y-50684857D01*
X54042476Y-50684857D01*
X53947238Y-50661047D01*
X53899619Y-50637238D01*
X53852000Y-50589619D01*
X53828190Y-50518190D01*
X53828190Y-50470571D01*
X53852000Y-50399142D01*
X53875809Y-50375333D01*
X54328190Y-50137238D02*
X54328190Y-50042000D01*
X54304380Y-49994380D01*
X54280571Y-49970571D01*
X54209142Y-49922952D01*
X54113904Y-49899142D01*
X53923428Y-49899142D01*
X53875809Y-49922952D01*
X53852000Y-49946761D01*
X53828190Y-49994380D01*
X53828190Y-50089619D01*
X53852000Y-50137238D01*
X53875809Y-50161047D01*
X53923428Y-50184857D01*
X54042476Y-50184857D01*
X54090095Y-50161047D01*
X54113904Y-50137238D01*
X54137714Y-50089619D01*
X54137714Y-49994380D01*
X54113904Y-49946761D01*
X54090095Y-49922952D01*
X54042476Y-49899142D01*
G04 #@! TO.C,C10*
X49708571Y-50359428D02*
X49732380Y-50383238D01*
X49756190Y-50454666D01*
X49756190Y-50502285D01*
X49732380Y-50573714D01*
X49684761Y-50621333D01*
X49637142Y-50645142D01*
X49541904Y-50668952D01*
X49470476Y-50668952D01*
X49375238Y-50645142D01*
X49327619Y-50621333D01*
X49280000Y-50573714D01*
X49256190Y-50502285D01*
X49256190Y-50454666D01*
X49280000Y-50383238D01*
X49303809Y-50359428D01*
X49756190Y-49883238D02*
X49756190Y-50168952D01*
X49756190Y-50026095D02*
X49256190Y-50026095D01*
X49327619Y-50073714D01*
X49375238Y-50121333D01*
X49399047Y-50168952D01*
X49256190Y-49573714D02*
X49256190Y-49526095D01*
X49280000Y-49478476D01*
X49303809Y-49454666D01*
X49351428Y-49430857D01*
X49446666Y-49407047D01*
X49565714Y-49407047D01*
X49660952Y-49430857D01*
X49708571Y-49454666D01*
X49732380Y-49478476D01*
X49756190Y-49526095D01*
X49756190Y-49573714D01*
X49732380Y-49621333D01*
X49708571Y-49645142D01*
X49660952Y-49668952D01*
X49565714Y-49692761D01*
X49446666Y-49692761D01*
X49351428Y-49668952D01*
X49303809Y-49645142D01*
X49280000Y-49621333D01*
X49256190Y-49573714D01*
G04 #@! TO.C,C11*
X54280571Y-45279428D02*
X54304380Y-45303238D01*
X54328190Y-45374666D01*
X54328190Y-45422285D01*
X54304380Y-45493714D01*
X54256761Y-45541333D01*
X54209142Y-45565142D01*
X54113904Y-45588952D01*
X54042476Y-45588952D01*
X53947238Y-45565142D01*
X53899619Y-45541333D01*
X53852000Y-45493714D01*
X53828190Y-45422285D01*
X53828190Y-45374666D01*
X53852000Y-45303238D01*
X53875809Y-45279428D01*
X54328190Y-44803238D02*
X54328190Y-45088952D01*
X54328190Y-44946095D02*
X53828190Y-44946095D01*
X53899619Y-44993714D01*
X53947238Y-45041333D01*
X53971047Y-45088952D01*
X54328190Y-44327047D02*
X54328190Y-44612761D01*
X54328190Y-44469904D02*
X53828190Y-44469904D01*
X53899619Y-44517523D01*
X53947238Y-44565142D01*
X53971047Y-44612761D01*
G04 #@! TO.C,C12*
X51994571Y-50359428D02*
X52018380Y-50383238D01*
X52042190Y-50454666D01*
X52042190Y-50502285D01*
X52018380Y-50573714D01*
X51970761Y-50621333D01*
X51923142Y-50645142D01*
X51827904Y-50668952D01*
X51756476Y-50668952D01*
X51661238Y-50645142D01*
X51613619Y-50621333D01*
X51566000Y-50573714D01*
X51542190Y-50502285D01*
X51542190Y-50454666D01*
X51566000Y-50383238D01*
X51589809Y-50359428D01*
X52042190Y-49883238D02*
X52042190Y-50168952D01*
X52042190Y-50026095D02*
X51542190Y-50026095D01*
X51613619Y-50073714D01*
X51661238Y-50121333D01*
X51685047Y-50168952D01*
X51589809Y-49692761D02*
X51566000Y-49668952D01*
X51542190Y-49621333D01*
X51542190Y-49502285D01*
X51566000Y-49454666D01*
X51589809Y-49430857D01*
X51637428Y-49407047D01*
X51685047Y-49407047D01*
X51756476Y-49430857D01*
X52042190Y-49716571D01*
X52042190Y-49407047D01*
G04 #@! TO.C,C13*
X51994571Y-39945428D02*
X52018380Y-39969238D01*
X52042190Y-40040666D01*
X52042190Y-40088285D01*
X52018380Y-40159714D01*
X51970761Y-40207333D01*
X51923142Y-40231142D01*
X51827904Y-40254952D01*
X51756476Y-40254952D01*
X51661238Y-40231142D01*
X51613619Y-40207333D01*
X51566000Y-40159714D01*
X51542190Y-40088285D01*
X51542190Y-40040666D01*
X51566000Y-39969238D01*
X51589809Y-39945428D01*
X52042190Y-39469238D02*
X52042190Y-39754952D01*
X52042190Y-39612095D02*
X51542190Y-39612095D01*
X51613619Y-39659714D01*
X51661238Y-39707333D01*
X51685047Y-39754952D01*
X51542190Y-39302571D02*
X51542190Y-38993047D01*
X51732666Y-39159714D01*
X51732666Y-39088285D01*
X51756476Y-39040666D01*
X51780285Y-39016857D01*
X51827904Y-38993047D01*
X51946952Y-38993047D01*
X51994571Y-39016857D01*
X52018380Y-39040666D01*
X52042190Y-39088285D01*
X52042190Y-39231142D01*
X52018380Y-39278761D01*
X51994571Y-39302571D01*
G04 #@! TO.C,L1*
X52042190Y-45371533D02*
X52042190Y-45609628D01*
X51542190Y-45609628D01*
X52042190Y-44942961D02*
X52042190Y-45228676D01*
X52042190Y-45085819D02*
X51542190Y-45085819D01*
X51613619Y-45133438D01*
X51661238Y-45181057D01*
X51685047Y-45228676D01*
G04 #@! TO.C,L2*
X54328190Y-39961333D02*
X54328190Y-40199428D01*
X53828190Y-40199428D01*
X53875809Y-39818476D02*
X53852000Y-39794666D01*
X53828190Y-39747047D01*
X53828190Y-39628000D01*
X53852000Y-39580380D01*
X53875809Y-39556571D01*
X53923428Y-39532761D01*
X53971047Y-39532761D01*
X54042476Y-39556571D01*
X54328190Y-39842285D01*
X54328190Y-39532761D01*
G04 #@! TO.C,R2*
X29888666Y-47978190D02*
X29722000Y-47740095D01*
X29602952Y-47978190D02*
X29602952Y-47478190D01*
X29793428Y-47478190D01*
X29841047Y-47502000D01*
X29864857Y-47525809D01*
X29888666Y-47573428D01*
X29888666Y-47644857D01*
X29864857Y-47692476D01*
X29841047Y-47716285D01*
X29793428Y-47740095D01*
X29602952Y-47740095D01*
X30079142Y-47525809D02*
X30102952Y-47502000D01*
X30150571Y-47478190D01*
X30269619Y-47478190D01*
X30317238Y-47502000D01*
X30341047Y-47525809D01*
X30364857Y-47573428D01*
X30364857Y-47621047D01*
X30341047Y-47692476D01*
X30055333Y-47978190D01*
X30364857Y-47978190D01*
G04 #@! TO.C,R3*
X45304166Y-42518190D02*
X45137500Y-42280095D01*
X45018452Y-42518190D02*
X45018452Y-42018190D01*
X45208928Y-42018190D01*
X45256547Y-42042000D01*
X45280357Y-42065809D01*
X45304166Y-42113428D01*
X45304166Y-42184857D01*
X45280357Y-42232476D01*
X45256547Y-42256285D01*
X45208928Y-42280095D01*
X45018452Y-42280095D01*
X45470833Y-42018190D02*
X45780357Y-42018190D01*
X45613690Y-42208666D01*
X45685119Y-42208666D01*
X45732738Y-42232476D01*
X45756547Y-42256285D01*
X45780357Y-42303904D01*
X45780357Y-42422952D01*
X45756547Y-42470571D01*
X45732738Y-42494380D01*
X45685119Y-42518190D01*
X45542261Y-42518190D01*
X45494642Y-42494380D01*
X45470833Y-42470571D01*
G04 #@! TO.C,U1*
X35794190Y-56674952D02*
X36198952Y-56674952D01*
X36246571Y-56651142D01*
X36270380Y-56627333D01*
X36294190Y-56579714D01*
X36294190Y-56484476D01*
X36270380Y-56436857D01*
X36246571Y-56413047D01*
X36198952Y-56389238D01*
X35794190Y-56389238D01*
X36294190Y-55889238D02*
X36294190Y-56174952D01*
X36294190Y-56032095D02*
X35794190Y-56032095D01*
X35865619Y-56079714D01*
X35913238Y-56127333D01*
X35937047Y-56174952D01*
G04 #@! TO.C,U2*
X47224190Y-49402952D02*
X47628952Y-49402952D01*
X47676571Y-49379142D01*
X47700380Y-49355333D01*
X47724190Y-49307714D01*
X47724190Y-49212476D01*
X47700380Y-49164857D01*
X47676571Y-49141047D01*
X47628952Y-49117238D01*
X47224190Y-49117238D01*
X47271809Y-48902952D02*
X47248000Y-48879142D01*
X47224190Y-48831523D01*
X47224190Y-48712476D01*
X47248000Y-48664857D01*
X47271809Y-48641047D01*
X47319428Y-48617238D01*
X47367047Y-48617238D01*
X47438476Y-48641047D01*
X47724190Y-48926761D01*
X47724190Y-48617238D01*
G04 #@! TO.C,R1*
X41754190Y-71023233D02*
X41516095Y-71189900D01*
X41754190Y-71308947D02*
X41254190Y-71308947D01*
X41254190Y-71118471D01*
X41278000Y-71070852D01*
X41301809Y-71047042D01*
X41349428Y-71023233D01*
X41420857Y-71023233D01*
X41468476Y-71047042D01*
X41492285Y-71070852D01*
X41516095Y-71118471D01*
X41516095Y-71308947D01*
X41754190Y-70547042D02*
X41754190Y-70832757D01*
X41754190Y-70689900D02*
X41254190Y-70689900D01*
X41325619Y-70737519D01*
X41373238Y-70785138D01*
X41397047Y-70832757D01*
G04 #@! TO.C,SW1*
D12*
X37952666Y-60093961D02*
X38095523Y-60141580D01*
X38333619Y-60141580D01*
X38428857Y-60093961D01*
X38476476Y-60046342D01*
X38524095Y-59951104D01*
X38524095Y-59855866D01*
X38476476Y-59760628D01*
X38428857Y-59713009D01*
X38333619Y-59665390D01*
X38143142Y-59617771D01*
X38047904Y-59570152D01*
X38000285Y-59522533D01*
X37952666Y-59427295D01*
X37952666Y-59332057D01*
X38000285Y-59236819D01*
X38047904Y-59189200D01*
X38143142Y-59141580D01*
X38381238Y-59141580D01*
X38524095Y-59189200D01*
X38857428Y-59141580D02*
X39095523Y-60141580D01*
X39286000Y-59427295D01*
X39476476Y-60141580D01*
X39714571Y-59141580D01*
X40619333Y-60141580D02*
X40047904Y-60141580D01*
X40333619Y-60141580D02*
X40333619Y-59141580D01*
X40238380Y-59284438D01*
X40143142Y-59379676D01*
X40047904Y-59427295D01*
G04 #@! TO.C,Y1*
X28551809Y-63008190D02*
X28551809Y-63484380D01*
X28218476Y-62484380D02*
X28551809Y-63008190D01*
X28885142Y-62484380D01*
X29742285Y-63484380D02*
X29170857Y-63484380D01*
X29456571Y-63484380D02*
X29456571Y-62484380D01*
X29361333Y-62627238D01*
X29266095Y-62722476D01*
X29170857Y-62770095D01*
G04 #@! TD*
M02*
