G04 #@! TF.GenerationSoftware,KiCad,Pcbnew,(5.0.1)-rc2*
G04 #@! TF.CreationDate,2018-12-03T18:09:08-05:00*
G04 #@! TF.ProjectId,tpms_silencer,74706D735F73696C656E6365722E6B69,rev?*
G04 #@! TF.SameCoordinates,Original*
G04 #@! TF.FileFunction,Soldermask,Bot*
G04 #@! TF.FilePolarity,Negative*
%FSLAX46Y46*%
G04 Gerber Fmt 4.6, Leading zero omitted, Abs format (unit mm)*
G04 Created by KiCad (PCBNEW (5.0.1)-rc2) date 2018-12-03 6:09:08 PM*
%MOMM*%
%LPD*%
G01*
G04 APERTURE LIST*
%ADD10C,0.100000*%
G04 APERTURE END LIST*
D10*
G36*
X29007800Y-66344800D02*
X27636200Y-66344800D01*
X27636200Y-61163200D01*
X29007800Y-61163200D01*
X29007800Y-66344800D01*
X29007800Y-66344800D01*
G37*
G36*
X50977800Y-66344800D02*
X49606200Y-66344800D01*
X49606200Y-61163200D01*
X50977800Y-61163200D01*
X50977800Y-66344800D01*
X50977800Y-66344800D01*
G37*
G36*
X41337800Y-65784800D02*
X37276200Y-65784800D01*
X37276200Y-61723200D01*
X41337800Y-61723200D01*
X41337800Y-65784800D01*
X41337800Y-65784800D01*
G37*
G36*
X34137800Y-50842800D02*
X30886200Y-50842800D01*
X30886200Y-49741200D01*
X34137800Y-49741200D01*
X34137800Y-50842800D01*
X34137800Y-50842800D01*
G37*
G36*
X29087800Y-50842800D02*
X25836200Y-50842800D01*
X25836200Y-49741200D01*
X29087800Y-49741200D01*
X29087800Y-50842800D01*
X29087800Y-50842800D01*
G37*
G36*
X34137800Y-48302800D02*
X30886200Y-48302800D01*
X30886200Y-47201200D01*
X34137800Y-47201200D01*
X34137800Y-48302800D01*
X34137800Y-48302800D01*
G37*
G36*
X29087800Y-48302800D02*
X25836200Y-48302800D01*
X25836200Y-47201200D01*
X29087800Y-47201200D01*
X29087800Y-48302800D01*
X29087800Y-48302800D01*
G37*
G36*
X34137800Y-45762800D02*
X30886200Y-45762800D01*
X30886200Y-44661200D01*
X34137800Y-44661200D01*
X34137800Y-45762800D01*
X34137800Y-45762800D01*
G37*
G36*
X29087800Y-45762800D02*
X25836200Y-45762800D01*
X25836200Y-44661200D01*
X29087800Y-44661200D01*
X29087800Y-45762800D01*
X29087800Y-45762800D01*
G37*
M02*
