G04 #@! TF.GenerationSoftware,KiCad,Pcbnew,(5.0.1)-rc2*
G04 #@! TF.CreationDate,2018-12-03T18:09:08-05:00*
G04 #@! TF.ProjectId,tpms_silencer,74706D735F73696C656E6365722E6B69,rev?*
G04 #@! TF.SameCoordinates,Original*
G04 #@! TF.FileFunction,Copper,L2,Bot,Signal*
G04 #@! TF.FilePolarity,Positive*
%FSLAX46Y46*%
G04 Gerber Fmt 4.6, Leading zero omitted, Abs format (unit mm)*
G04 Created by KiCad (PCBNEW (5.0.1)-rc2) date 2018-12-03 6:09:08 PM*
%MOMM*%
%LPD*%
G01*
G04 APERTURE LIST*
G04 #@! TA.AperFunction,ViaPad*
%ADD10C,0.500000*%
G04 #@! TD*
G04 #@! TA.AperFunction,SMDPad,CuDef*
%ADD11R,1.270000X5.080000*%
G04 #@! TD*
G04 #@! TA.AperFunction,SMDPad,CuDef*
%ADD12R,3.960000X3.960000*%
G04 #@! TD*
G04 #@! TA.AperFunction,SMDPad,CuDef*
%ADD13R,3.150000X1.000000*%
G04 #@! TD*
G04 #@! TA.AperFunction,ViaPad*
%ADD14C,0.600000*%
G04 #@! TD*
G04 #@! TA.AperFunction,Conductor*
%ADD15C,0.228600*%
G04 #@! TD*
G04 #@! TA.AperFunction,Conductor*
%ADD16C,0.152400*%
G04 #@! TD*
G04 #@! TA.AperFunction,Conductor*
%ADD17C,0.254000*%
G04 #@! TD*
G04 APERTURE END LIST*
D10*
G04 #@! TO.N,GNDREF*
G04 #@! TO.C,AE1*
X23756000Y-38328600D03*
X24956000Y-38328600D03*
G04 #@! TD*
D11*
G04 #@! TO.P,BT1,1*
G04 #@! TO.N,VDD*
X50292000Y-63754000D03*
X28322000Y-63754000D03*
D12*
G04 #@! TO.P,BT1,2*
G04 #@! TO.N,GNDREF*
X39307000Y-63754000D03*
G04 #@! TD*
D13*
G04 #@! TO.P,J1,1*
G04 #@! TO.N,/MISO*
X27462000Y-50292000D03*
G04 #@! TO.P,J1,2*
G04 #@! TO.N,VDD*
X32512000Y-50292000D03*
G04 #@! TO.P,J1,3*
G04 #@! TO.N,/SCK*
X27462000Y-47752000D03*
G04 #@! TO.P,J1,4*
G04 #@! TO.N,/MOSI*
X32512000Y-47752000D03*
G04 #@! TO.P,J1,5*
G04 #@! TO.N,/RST*
X27462000Y-45212000D03*
G04 #@! TO.P,J1,6*
G04 #@! TO.N,GNDREF*
X32512000Y-45212000D03*
G04 #@! TD*
D14*
G04 #@! TO.N,VDD*
X26670000Y-62484000D03*
X52832000Y-60452000D03*
X47117000Y-68834000D03*
X25908000Y-49022000D03*
G04 #@! TO.N,GNDREF*
X54102000Y-54864000D03*
X51816000Y-54864000D03*
X49530000Y-58420000D03*
X51816000Y-44450000D03*
X49530000Y-49784000D03*
X45847000Y-53086000D03*
X25908000Y-53594000D03*
X41656000Y-67564000D03*
X33274000Y-51816000D03*
X34798000Y-45466000D03*
X30226000Y-46482000D03*
X29210000Y-70612000D03*
X44958000Y-48514000D03*
G04 #@! TO.N,/MISO*
X34798000Y-55372000D03*
G04 #@! TO.N,/SCK*
X35052000Y-49530000D03*
G04 #@! TO.N,/MOSI*
X36576000Y-58928000D03*
G04 #@! TO.N,/RST*
X30988000Y-57150000D03*
G04 #@! TO.N,/EN*
X42418002Y-49784000D03*
X45688958Y-49254143D03*
G04 #@! TO.N,/ASK*
X43434000Y-54102000D03*
X44196000Y-52832000D03*
G04 #@! TO.N,/FSK*
X47244000Y-48260000D03*
X38100000Y-57404000D03*
G04 #@! TD*
D15*
G04 #@! TO.N,VDD*
X26670000Y-62484000D02*
X27178000Y-62992000D01*
X27178000Y-62992000D02*
X28194000Y-62992000D01*
X51155600Y-63754000D02*
X52832000Y-62077600D01*
X52832000Y-62077600D02*
X52832000Y-60452000D01*
X50292000Y-63754000D02*
X51155600Y-63754000D01*
X50292000Y-65659000D02*
X47117000Y-68834000D01*
X50292000Y-63754000D02*
X50292000Y-65659000D01*
X47117000Y-68834000D02*
X33020000Y-68834000D01*
X33020000Y-68834000D02*
X28194000Y-64008000D01*
X29438400Y-49022000D02*
X25908000Y-49022000D01*
X32512000Y-50292000D02*
X30708400Y-50292000D01*
X30708400Y-50292000D02*
X29438400Y-49022000D01*
G04 #@! TO.N,GNDREF*
X34544000Y-45212000D02*
X32512000Y-45212000D01*
X34798000Y-45466000D02*
X34544000Y-45212000D01*
D16*
G04 #@! TO.N,/MISO*
X27462000Y-50292000D02*
X29718000Y-50292000D01*
X29718000Y-50292000D02*
X34798000Y-55372000D01*
G04 #@! TO.N,/SCK*
X30967400Y-49530000D02*
X35052000Y-49530000D01*
X27462000Y-47752000D02*
X29189400Y-47752000D01*
X29189400Y-47752000D02*
X30967400Y-49530000D01*
G04 #@! TO.N,/MOSI*
X36576000Y-50088600D02*
X36576000Y-58928000D01*
X32512000Y-47752000D02*
X34239400Y-47752000D01*
X34239400Y-47752000D02*
X36576000Y-50088600D01*
G04 #@! TO.N,/RST*
X25146000Y-51308000D02*
X30988000Y-57150000D01*
X25146000Y-46453000D02*
X25146000Y-51308000D01*
X27462000Y-45212000D02*
X26387000Y-45212000D01*
X26387000Y-45212000D02*
X25146000Y-46453000D01*
G04 #@! TO.N,/EN*
X45518311Y-49784000D02*
X45688958Y-49613353D01*
X42418002Y-49784000D02*
X45518311Y-49784000D01*
X45688958Y-49613353D02*
X45688958Y-49254143D01*
G04 #@! TO.N,/ASK*
X44196000Y-53340000D02*
X44196000Y-52832000D01*
X43434000Y-54102000D02*
X44196000Y-53340000D01*
G04 #@! TO.N,/FSK*
X47244000Y-48260000D02*
X47244000Y-54610000D01*
X47244000Y-54610000D02*
X44450000Y-57404000D01*
X44450000Y-57404000D02*
X38100000Y-57404000D01*
G04 #@! TD*
D17*
G04 #@! TO.N,GNDREF*
G36*
X26035000Y-42418000D02*
X26044667Y-42466601D01*
X26072197Y-42507803D01*
X26113399Y-42535333D01*
X26162000Y-42545000D01*
X49657000Y-42545000D01*
X49705601Y-42535333D01*
X49746803Y-42507803D01*
X49774333Y-42466601D01*
X49784000Y-42418000D01*
X49784000Y-40005000D01*
X55145000Y-40005000D01*
X55145001Y-69802163D01*
X55039356Y-69571415D01*
X54539168Y-68979522D01*
X53898233Y-68543943D01*
X53163774Y-68296770D01*
X52389900Y-68256213D01*
X51633627Y-68425260D01*
X50950673Y-68791456D01*
X50391355Y-69327823D01*
X49996881Y-69994843D01*
X49796313Y-70743374D01*
X49804427Y-71518267D01*
X50020628Y-72262433D01*
X50428985Y-72921045D01*
X50999413Y-73445581D01*
X51473224Y-73687000D01*
X23595000Y-73687000D01*
X23595000Y-62298017D01*
X25735000Y-62298017D01*
X25735000Y-62669983D01*
X25877345Y-63013635D01*
X26140365Y-63276655D01*
X26484017Y-63419000D01*
X26545330Y-63419000D01*
X26595983Y-63469653D01*
X26637785Y-63532215D01*
X26885638Y-63697825D01*
X27039560Y-63728442D01*
X27039560Y-66294000D01*
X27088843Y-66541765D01*
X27229191Y-66751809D01*
X27439235Y-66892157D01*
X27687000Y-66941440D01*
X28957000Y-66941440D01*
X29204765Y-66892157D01*
X29414809Y-66751809D01*
X29555157Y-66541765D01*
X29573895Y-66447564D01*
X32437981Y-69311651D01*
X32479785Y-69374215D01*
X32627788Y-69473108D01*
X32727637Y-69539825D01*
X33020000Y-69597979D01*
X33093797Y-69583300D01*
X46544010Y-69583300D01*
X46587365Y-69626655D01*
X46931017Y-69769000D01*
X47302983Y-69769000D01*
X47646635Y-69626655D01*
X47909655Y-69363635D01*
X48052000Y-69019983D01*
X48052000Y-68958669D01*
X50069230Y-66941440D01*
X50927000Y-66941440D01*
X51174765Y-66892157D01*
X51384809Y-66751809D01*
X51525157Y-66541765D01*
X51574440Y-66294000D01*
X51574440Y-64375315D01*
X51695815Y-64294215D01*
X51737621Y-64231648D01*
X53309652Y-62659618D01*
X53372215Y-62617815D01*
X53483153Y-62451785D01*
X53537825Y-62369963D01*
X53595979Y-62077600D01*
X53581300Y-62003803D01*
X53581300Y-61024990D01*
X53624655Y-60981635D01*
X53767000Y-60637983D01*
X53767000Y-60266017D01*
X53624655Y-59922365D01*
X53361635Y-59659345D01*
X53017983Y-59517000D01*
X52646017Y-59517000D01*
X52302365Y-59659345D01*
X52039345Y-59922365D01*
X51897000Y-60266017D01*
X51897000Y-60637983D01*
X52039345Y-60981635D01*
X52082701Y-61024991D01*
X52082700Y-61767230D01*
X51574440Y-62275490D01*
X51574440Y-61214000D01*
X51525157Y-60966235D01*
X51384809Y-60756191D01*
X51174765Y-60615843D01*
X50927000Y-60566560D01*
X49657000Y-60566560D01*
X49409235Y-60615843D01*
X49199191Y-60756191D01*
X49058843Y-60966235D01*
X49009560Y-61214000D01*
X49009560Y-65881770D01*
X46992331Y-67899000D01*
X46931017Y-67899000D01*
X46587365Y-68041345D01*
X46544010Y-68084700D01*
X33330370Y-68084700D01*
X29604440Y-64358771D01*
X29604440Y-64039750D01*
X36692000Y-64039750D01*
X36692000Y-65860310D01*
X36788673Y-66093699D01*
X36967302Y-66272327D01*
X37200691Y-66369000D01*
X39021250Y-66369000D01*
X39180000Y-66210250D01*
X39180000Y-63881000D01*
X39434000Y-63881000D01*
X39434000Y-66210250D01*
X39592750Y-66369000D01*
X41413309Y-66369000D01*
X41646698Y-66272327D01*
X41825327Y-66093699D01*
X41922000Y-65860310D01*
X41922000Y-64039750D01*
X41763250Y-63881000D01*
X39434000Y-63881000D01*
X39180000Y-63881000D01*
X36850750Y-63881000D01*
X36692000Y-64039750D01*
X29604440Y-64039750D01*
X29604440Y-61647690D01*
X36692000Y-61647690D01*
X36692000Y-63468250D01*
X36850750Y-63627000D01*
X39180000Y-63627000D01*
X39180000Y-61297750D01*
X39434000Y-61297750D01*
X39434000Y-63627000D01*
X41763250Y-63627000D01*
X41922000Y-63468250D01*
X41922000Y-61647690D01*
X41825327Y-61414301D01*
X41646698Y-61235673D01*
X41413309Y-61139000D01*
X39592750Y-61139000D01*
X39434000Y-61297750D01*
X39180000Y-61297750D01*
X39021250Y-61139000D01*
X37200691Y-61139000D01*
X36967302Y-61235673D01*
X36788673Y-61414301D01*
X36692000Y-61647690D01*
X29604440Y-61647690D01*
X29604440Y-61214000D01*
X29555157Y-60966235D01*
X29414809Y-60756191D01*
X29204765Y-60615843D01*
X28957000Y-60566560D01*
X27687000Y-60566560D01*
X27439235Y-60615843D01*
X27229191Y-60756191D01*
X27088843Y-60966235D01*
X27039560Y-61214000D01*
X27039560Y-61625040D01*
X26855983Y-61549000D01*
X26484017Y-61549000D01*
X26140365Y-61691345D01*
X25877345Y-61954365D01*
X25735000Y-62298017D01*
X23595000Y-62298017D01*
X23595000Y-46453000D01*
X24420868Y-46453000D01*
X24434800Y-46523042D01*
X24434801Y-51237954D01*
X24420868Y-51308000D01*
X24476065Y-51585496D01*
X24593576Y-51761364D01*
X24593579Y-51761367D01*
X24633255Y-51820746D01*
X24692634Y-51860422D01*
X30053000Y-57220789D01*
X30053000Y-57335983D01*
X30195345Y-57679635D01*
X30458365Y-57942655D01*
X30802017Y-58085000D01*
X31173983Y-58085000D01*
X31517635Y-57942655D01*
X31780655Y-57679635D01*
X31923000Y-57335983D01*
X31923000Y-56964017D01*
X31780655Y-56620365D01*
X31517635Y-56357345D01*
X31173983Y-56215000D01*
X31058789Y-56215000D01*
X26283228Y-51439440D01*
X29037000Y-51439440D01*
X29284765Y-51390157D01*
X29494809Y-51249809D01*
X29564989Y-51144777D01*
X33863000Y-55442789D01*
X33863000Y-55557983D01*
X34005345Y-55901635D01*
X34268365Y-56164655D01*
X34612017Y-56307000D01*
X34983983Y-56307000D01*
X35327635Y-56164655D01*
X35590655Y-55901635D01*
X35733000Y-55557983D01*
X35733000Y-55186017D01*
X35590655Y-54842365D01*
X35327635Y-54579345D01*
X34983983Y-54437000D01*
X34868789Y-54437000D01*
X31871228Y-51439440D01*
X34087000Y-51439440D01*
X34334765Y-51390157D01*
X34544809Y-51249809D01*
X34685157Y-51039765D01*
X34734440Y-50792000D01*
X34734440Y-50410499D01*
X34866017Y-50465000D01*
X35237983Y-50465000D01*
X35581635Y-50322655D01*
X35692951Y-50211339D01*
X35864800Y-50383189D01*
X35864801Y-58316909D01*
X35783345Y-58398365D01*
X35641000Y-58742017D01*
X35641000Y-59113983D01*
X35783345Y-59457635D01*
X36046365Y-59720655D01*
X36390017Y-59863000D01*
X36761983Y-59863000D01*
X37105635Y-59720655D01*
X37368655Y-59457635D01*
X37511000Y-59113983D01*
X37511000Y-58742017D01*
X37368655Y-58398365D01*
X37287200Y-58316910D01*
X37287200Y-57885001D01*
X37307345Y-57933635D01*
X37570365Y-58196655D01*
X37914017Y-58339000D01*
X38285983Y-58339000D01*
X38629635Y-58196655D01*
X38711090Y-58115200D01*
X44379959Y-58115200D01*
X44450000Y-58129132D01*
X44520041Y-58115200D01*
X44520046Y-58115200D01*
X44727496Y-58073936D01*
X44962746Y-57916746D01*
X45002424Y-57857364D01*
X47697367Y-55162422D01*
X47756746Y-55122746D01*
X47796422Y-55063367D01*
X47796424Y-55063365D01*
X47913935Y-54887497D01*
X47913936Y-54887496D01*
X47955200Y-54680046D01*
X47955200Y-54680042D01*
X47969132Y-54610000D01*
X47955200Y-54539958D01*
X47955200Y-48871090D01*
X48036655Y-48789635D01*
X48179000Y-48445983D01*
X48179000Y-48074017D01*
X48036655Y-47730365D01*
X47773635Y-47467345D01*
X47429983Y-47325000D01*
X47058017Y-47325000D01*
X46714365Y-47467345D01*
X46451345Y-47730365D01*
X46309000Y-48074017D01*
X46309000Y-48445983D01*
X46383891Y-48626786D01*
X46218593Y-48461488D01*
X45874941Y-48319143D01*
X45502975Y-48319143D01*
X45159323Y-48461488D01*
X44896303Y-48724508D01*
X44753958Y-49068160D01*
X44753958Y-49072800D01*
X43029092Y-49072800D01*
X42947637Y-48991345D01*
X42603985Y-48849000D01*
X42232019Y-48849000D01*
X41888367Y-48991345D01*
X41625347Y-49254365D01*
X41483002Y-49598017D01*
X41483002Y-49969983D01*
X41625347Y-50313635D01*
X41888367Y-50576655D01*
X42232019Y-50719000D01*
X42603985Y-50719000D01*
X42947637Y-50576655D01*
X43029092Y-50495200D01*
X45448270Y-50495200D01*
X45518311Y-50509132D01*
X45588352Y-50495200D01*
X45588357Y-50495200D01*
X45795807Y-50453936D01*
X46031057Y-50296746D01*
X46070735Y-50237364D01*
X46142324Y-50165775D01*
X46201703Y-50126099D01*
X46241380Y-50066719D01*
X46241382Y-50066717D01*
X46327383Y-49938008D01*
X46481613Y-49783778D01*
X46532800Y-49660201D01*
X46532801Y-54315410D01*
X44155412Y-56692800D01*
X38711090Y-56692800D01*
X38629635Y-56611345D01*
X38285983Y-56469000D01*
X37914017Y-56469000D01*
X37570365Y-56611345D01*
X37307345Y-56874365D01*
X37287200Y-56922999D01*
X37287200Y-53916017D01*
X42499000Y-53916017D01*
X42499000Y-54287983D01*
X42641345Y-54631635D01*
X42904365Y-54894655D01*
X43248017Y-55037000D01*
X43619983Y-55037000D01*
X43963635Y-54894655D01*
X44226655Y-54631635D01*
X44369000Y-54287983D01*
X44369000Y-54172789D01*
X44649369Y-53892420D01*
X44708745Y-53852746D01*
X44748420Y-53793369D01*
X44748424Y-53793365D01*
X44865935Y-53617497D01*
X44865936Y-53617496D01*
X44898995Y-53451295D01*
X44988655Y-53361635D01*
X45131000Y-53017983D01*
X45131000Y-52646017D01*
X44988655Y-52302365D01*
X44725635Y-52039345D01*
X44381983Y-51897000D01*
X44010017Y-51897000D01*
X43666365Y-52039345D01*
X43403345Y-52302365D01*
X43261000Y-52646017D01*
X43261000Y-53017983D01*
X43322725Y-53167000D01*
X43248017Y-53167000D01*
X42904365Y-53309345D01*
X42641345Y-53572365D01*
X42499000Y-53916017D01*
X37287200Y-53916017D01*
X37287200Y-50158641D01*
X37301132Y-50088599D01*
X37287200Y-50018555D01*
X37287200Y-50018554D01*
X37245936Y-49811104D01*
X37243526Y-49807497D01*
X37128424Y-49635235D01*
X37128420Y-49635231D01*
X37088745Y-49575854D01*
X37029369Y-49536180D01*
X34791824Y-47298636D01*
X34752146Y-47239254D01*
X34728802Y-47223656D01*
X34685157Y-47004235D01*
X34544809Y-46794191D01*
X34334765Y-46653843D01*
X34087000Y-46604560D01*
X30937000Y-46604560D01*
X30689235Y-46653843D01*
X30479191Y-46794191D01*
X30338843Y-47004235D01*
X30289560Y-47252000D01*
X30289560Y-47846372D01*
X29741824Y-47298636D01*
X29702146Y-47239254D01*
X29678802Y-47223656D01*
X29635157Y-47004235D01*
X29494809Y-46794191D01*
X29284765Y-46653843D01*
X29037000Y-46604560D01*
X26000228Y-46604560D01*
X26245348Y-46359440D01*
X29037000Y-46359440D01*
X29284765Y-46310157D01*
X29494809Y-46169809D01*
X29635157Y-45959765D01*
X29684440Y-45712000D01*
X29684440Y-45497750D01*
X30302000Y-45497750D01*
X30302000Y-45838310D01*
X30398673Y-46071699D01*
X30577302Y-46250327D01*
X30810691Y-46347000D01*
X32226250Y-46347000D01*
X32385000Y-46188250D01*
X32385000Y-45339000D01*
X32639000Y-45339000D01*
X32639000Y-46188250D01*
X32797750Y-46347000D01*
X34213309Y-46347000D01*
X34446698Y-46250327D01*
X34625327Y-46071699D01*
X34722000Y-45838310D01*
X34722000Y-45497750D01*
X34563250Y-45339000D01*
X32639000Y-45339000D01*
X32385000Y-45339000D01*
X30460750Y-45339000D01*
X30302000Y-45497750D01*
X29684440Y-45497750D01*
X29684440Y-44712000D01*
X29659316Y-44585690D01*
X30302000Y-44585690D01*
X30302000Y-44926250D01*
X30460750Y-45085000D01*
X32385000Y-45085000D01*
X32385000Y-44235750D01*
X32639000Y-44235750D01*
X32639000Y-45085000D01*
X34563250Y-45085000D01*
X34722000Y-44926250D01*
X34722000Y-44585690D01*
X34625327Y-44352301D01*
X34446698Y-44173673D01*
X34213309Y-44077000D01*
X32797750Y-44077000D01*
X32639000Y-44235750D01*
X32385000Y-44235750D01*
X32226250Y-44077000D01*
X30810691Y-44077000D01*
X30577302Y-44173673D01*
X30398673Y-44352301D01*
X30302000Y-44585690D01*
X29659316Y-44585690D01*
X29635157Y-44464235D01*
X29494809Y-44254191D01*
X29284765Y-44113843D01*
X29037000Y-44064560D01*
X25887000Y-44064560D01*
X25639235Y-44113843D01*
X25429191Y-44254191D01*
X25288843Y-44464235D01*
X25239560Y-44712000D01*
X25239560Y-45353652D01*
X24692634Y-45900578D01*
X24633254Y-45940255D01*
X24593578Y-45999634D01*
X24593576Y-45999636D01*
X24545425Y-46071699D01*
X24476064Y-46175505D01*
X24434800Y-46382955D01*
X24434800Y-46382959D01*
X24420868Y-46453000D01*
X23595000Y-46453000D01*
X23595000Y-37465000D01*
X26035000Y-37465000D01*
X26035000Y-42418000D01*
X26035000Y-42418000D01*
G37*
X26035000Y-42418000D02*
X26044667Y-42466601D01*
X26072197Y-42507803D01*
X26113399Y-42535333D01*
X26162000Y-42545000D01*
X49657000Y-42545000D01*
X49705601Y-42535333D01*
X49746803Y-42507803D01*
X49774333Y-42466601D01*
X49784000Y-42418000D01*
X49784000Y-40005000D01*
X55145000Y-40005000D01*
X55145001Y-69802163D01*
X55039356Y-69571415D01*
X54539168Y-68979522D01*
X53898233Y-68543943D01*
X53163774Y-68296770D01*
X52389900Y-68256213D01*
X51633627Y-68425260D01*
X50950673Y-68791456D01*
X50391355Y-69327823D01*
X49996881Y-69994843D01*
X49796313Y-70743374D01*
X49804427Y-71518267D01*
X50020628Y-72262433D01*
X50428985Y-72921045D01*
X50999413Y-73445581D01*
X51473224Y-73687000D01*
X23595000Y-73687000D01*
X23595000Y-62298017D01*
X25735000Y-62298017D01*
X25735000Y-62669983D01*
X25877345Y-63013635D01*
X26140365Y-63276655D01*
X26484017Y-63419000D01*
X26545330Y-63419000D01*
X26595983Y-63469653D01*
X26637785Y-63532215D01*
X26885638Y-63697825D01*
X27039560Y-63728442D01*
X27039560Y-66294000D01*
X27088843Y-66541765D01*
X27229191Y-66751809D01*
X27439235Y-66892157D01*
X27687000Y-66941440D01*
X28957000Y-66941440D01*
X29204765Y-66892157D01*
X29414809Y-66751809D01*
X29555157Y-66541765D01*
X29573895Y-66447564D01*
X32437981Y-69311651D01*
X32479785Y-69374215D01*
X32627788Y-69473108D01*
X32727637Y-69539825D01*
X33020000Y-69597979D01*
X33093797Y-69583300D01*
X46544010Y-69583300D01*
X46587365Y-69626655D01*
X46931017Y-69769000D01*
X47302983Y-69769000D01*
X47646635Y-69626655D01*
X47909655Y-69363635D01*
X48052000Y-69019983D01*
X48052000Y-68958669D01*
X50069230Y-66941440D01*
X50927000Y-66941440D01*
X51174765Y-66892157D01*
X51384809Y-66751809D01*
X51525157Y-66541765D01*
X51574440Y-66294000D01*
X51574440Y-64375315D01*
X51695815Y-64294215D01*
X51737621Y-64231648D01*
X53309652Y-62659618D01*
X53372215Y-62617815D01*
X53483153Y-62451785D01*
X53537825Y-62369963D01*
X53595979Y-62077600D01*
X53581300Y-62003803D01*
X53581300Y-61024990D01*
X53624655Y-60981635D01*
X53767000Y-60637983D01*
X53767000Y-60266017D01*
X53624655Y-59922365D01*
X53361635Y-59659345D01*
X53017983Y-59517000D01*
X52646017Y-59517000D01*
X52302365Y-59659345D01*
X52039345Y-59922365D01*
X51897000Y-60266017D01*
X51897000Y-60637983D01*
X52039345Y-60981635D01*
X52082701Y-61024991D01*
X52082700Y-61767230D01*
X51574440Y-62275490D01*
X51574440Y-61214000D01*
X51525157Y-60966235D01*
X51384809Y-60756191D01*
X51174765Y-60615843D01*
X50927000Y-60566560D01*
X49657000Y-60566560D01*
X49409235Y-60615843D01*
X49199191Y-60756191D01*
X49058843Y-60966235D01*
X49009560Y-61214000D01*
X49009560Y-65881770D01*
X46992331Y-67899000D01*
X46931017Y-67899000D01*
X46587365Y-68041345D01*
X46544010Y-68084700D01*
X33330370Y-68084700D01*
X29604440Y-64358771D01*
X29604440Y-64039750D01*
X36692000Y-64039750D01*
X36692000Y-65860310D01*
X36788673Y-66093699D01*
X36967302Y-66272327D01*
X37200691Y-66369000D01*
X39021250Y-66369000D01*
X39180000Y-66210250D01*
X39180000Y-63881000D01*
X39434000Y-63881000D01*
X39434000Y-66210250D01*
X39592750Y-66369000D01*
X41413309Y-66369000D01*
X41646698Y-66272327D01*
X41825327Y-66093699D01*
X41922000Y-65860310D01*
X41922000Y-64039750D01*
X41763250Y-63881000D01*
X39434000Y-63881000D01*
X39180000Y-63881000D01*
X36850750Y-63881000D01*
X36692000Y-64039750D01*
X29604440Y-64039750D01*
X29604440Y-61647690D01*
X36692000Y-61647690D01*
X36692000Y-63468250D01*
X36850750Y-63627000D01*
X39180000Y-63627000D01*
X39180000Y-61297750D01*
X39434000Y-61297750D01*
X39434000Y-63627000D01*
X41763250Y-63627000D01*
X41922000Y-63468250D01*
X41922000Y-61647690D01*
X41825327Y-61414301D01*
X41646698Y-61235673D01*
X41413309Y-61139000D01*
X39592750Y-61139000D01*
X39434000Y-61297750D01*
X39180000Y-61297750D01*
X39021250Y-61139000D01*
X37200691Y-61139000D01*
X36967302Y-61235673D01*
X36788673Y-61414301D01*
X36692000Y-61647690D01*
X29604440Y-61647690D01*
X29604440Y-61214000D01*
X29555157Y-60966235D01*
X29414809Y-60756191D01*
X29204765Y-60615843D01*
X28957000Y-60566560D01*
X27687000Y-60566560D01*
X27439235Y-60615843D01*
X27229191Y-60756191D01*
X27088843Y-60966235D01*
X27039560Y-61214000D01*
X27039560Y-61625040D01*
X26855983Y-61549000D01*
X26484017Y-61549000D01*
X26140365Y-61691345D01*
X25877345Y-61954365D01*
X25735000Y-62298017D01*
X23595000Y-62298017D01*
X23595000Y-46453000D01*
X24420868Y-46453000D01*
X24434800Y-46523042D01*
X24434801Y-51237954D01*
X24420868Y-51308000D01*
X24476065Y-51585496D01*
X24593576Y-51761364D01*
X24593579Y-51761367D01*
X24633255Y-51820746D01*
X24692634Y-51860422D01*
X30053000Y-57220789D01*
X30053000Y-57335983D01*
X30195345Y-57679635D01*
X30458365Y-57942655D01*
X30802017Y-58085000D01*
X31173983Y-58085000D01*
X31517635Y-57942655D01*
X31780655Y-57679635D01*
X31923000Y-57335983D01*
X31923000Y-56964017D01*
X31780655Y-56620365D01*
X31517635Y-56357345D01*
X31173983Y-56215000D01*
X31058789Y-56215000D01*
X26283228Y-51439440D01*
X29037000Y-51439440D01*
X29284765Y-51390157D01*
X29494809Y-51249809D01*
X29564989Y-51144777D01*
X33863000Y-55442789D01*
X33863000Y-55557983D01*
X34005345Y-55901635D01*
X34268365Y-56164655D01*
X34612017Y-56307000D01*
X34983983Y-56307000D01*
X35327635Y-56164655D01*
X35590655Y-55901635D01*
X35733000Y-55557983D01*
X35733000Y-55186017D01*
X35590655Y-54842365D01*
X35327635Y-54579345D01*
X34983983Y-54437000D01*
X34868789Y-54437000D01*
X31871228Y-51439440D01*
X34087000Y-51439440D01*
X34334765Y-51390157D01*
X34544809Y-51249809D01*
X34685157Y-51039765D01*
X34734440Y-50792000D01*
X34734440Y-50410499D01*
X34866017Y-50465000D01*
X35237983Y-50465000D01*
X35581635Y-50322655D01*
X35692951Y-50211339D01*
X35864800Y-50383189D01*
X35864801Y-58316909D01*
X35783345Y-58398365D01*
X35641000Y-58742017D01*
X35641000Y-59113983D01*
X35783345Y-59457635D01*
X36046365Y-59720655D01*
X36390017Y-59863000D01*
X36761983Y-59863000D01*
X37105635Y-59720655D01*
X37368655Y-59457635D01*
X37511000Y-59113983D01*
X37511000Y-58742017D01*
X37368655Y-58398365D01*
X37287200Y-58316910D01*
X37287200Y-57885001D01*
X37307345Y-57933635D01*
X37570365Y-58196655D01*
X37914017Y-58339000D01*
X38285983Y-58339000D01*
X38629635Y-58196655D01*
X38711090Y-58115200D01*
X44379959Y-58115200D01*
X44450000Y-58129132D01*
X44520041Y-58115200D01*
X44520046Y-58115200D01*
X44727496Y-58073936D01*
X44962746Y-57916746D01*
X45002424Y-57857364D01*
X47697367Y-55162422D01*
X47756746Y-55122746D01*
X47796422Y-55063367D01*
X47796424Y-55063365D01*
X47913935Y-54887497D01*
X47913936Y-54887496D01*
X47955200Y-54680046D01*
X47955200Y-54680042D01*
X47969132Y-54610000D01*
X47955200Y-54539958D01*
X47955200Y-48871090D01*
X48036655Y-48789635D01*
X48179000Y-48445983D01*
X48179000Y-48074017D01*
X48036655Y-47730365D01*
X47773635Y-47467345D01*
X47429983Y-47325000D01*
X47058017Y-47325000D01*
X46714365Y-47467345D01*
X46451345Y-47730365D01*
X46309000Y-48074017D01*
X46309000Y-48445983D01*
X46383891Y-48626786D01*
X46218593Y-48461488D01*
X45874941Y-48319143D01*
X45502975Y-48319143D01*
X45159323Y-48461488D01*
X44896303Y-48724508D01*
X44753958Y-49068160D01*
X44753958Y-49072800D01*
X43029092Y-49072800D01*
X42947637Y-48991345D01*
X42603985Y-48849000D01*
X42232019Y-48849000D01*
X41888367Y-48991345D01*
X41625347Y-49254365D01*
X41483002Y-49598017D01*
X41483002Y-49969983D01*
X41625347Y-50313635D01*
X41888367Y-50576655D01*
X42232019Y-50719000D01*
X42603985Y-50719000D01*
X42947637Y-50576655D01*
X43029092Y-50495200D01*
X45448270Y-50495200D01*
X45518311Y-50509132D01*
X45588352Y-50495200D01*
X45588357Y-50495200D01*
X45795807Y-50453936D01*
X46031057Y-50296746D01*
X46070735Y-50237364D01*
X46142324Y-50165775D01*
X46201703Y-50126099D01*
X46241380Y-50066719D01*
X46241382Y-50066717D01*
X46327383Y-49938008D01*
X46481613Y-49783778D01*
X46532800Y-49660201D01*
X46532801Y-54315410D01*
X44155412Y-56692800D01*
X38711090Y-56692800D01*
X38629635Y-56611345D01*
X38285983Y-56469000D01*
X37914017Y-56469000D01*
X37570365Y-56611345D01*
X37307345Y-56874365D01*
X37287200Y-56922999D01*
X37287200Y-53916017D01*
X42499000Y-53916017D01*
X42499000Y-54287983D01*
X42641345Y-54631635D01*
X42904365Y-54894655D01*
X43248017Y-55037000D01*
X43619983Y-55037000D01*
X43963635Y-54894655D01*
X44226655Y-54631635D01*
X44369000Y-54287983D01*
X44369000Y-54172789D01*
X44649369Y-53892420D01*
X44708745Y-53852746D01*
X44748420Y-53793369D01*
X44748424Y-53793365D01*
X44865935Y-53617497D01*
X44865936Y-53617496D01*
X44898995Y-53451295D01*
X44988655Y-53361635D01*
X45131000Y-53017983D01*
X45131000Y-52646017D01*
X44988655Y-52302365D01*
X44725635Y-52039345D01*
X44381983Y-51897000D01*
X44010017Y-51897000D01*
X43666365Y-52039345D01*
X43403345Y-52302365D01*
X43261000Y-52646017D01*
X43261000Y-53017983D01*
X43322725Y-53167000D01*
X43248017Y-53167000D01*
X42904365Y-53309345D01*
X42641345Y-53572365D01*
X42499000Y-53916017D01*
X37287200Y-53916017D01*
X37287200Y-50158641D01*
X37301132Y-50088599D01*
X37287200Y-50018555D01*
X37287200Y-50018554D01*
X37245936Y-49811104D01*
X37243526Y-49807497D01*
X37128424Y-49635235D01*
X37128420Y-49635231D01*
X37088745Y-49575854D01*
X37029369Y-49536180D01*
X34791824Y-47298636D01*
X34752146Y-47239254D01*
X34728802Y-47223656D01*
X34685157Y-47004235D01*
X34544809Y-46794191D01*
X34334765Y-46653843D01*
X34087000Y-46604560D01*
X30937000Y-46604560D01*
X30689235Y-46653843D01*
X30479191Y-46794191D01*
X30338843Y-47004235D01*
X30289560Y-47252000D01*
X30289560Y-47846372D01*
X29741824Y-47298636D01*
X29702146Y-47239254D01*
X29678802Y-47223656D01*
X29635157Y-47004235D01*
X29494809Y-46794191D01*
X29284765Y-46653843D01*
X29037000Y-46604560D01*
X26000228Y-46604560D01*
X26245348Y-46359440D01*
X29037000Y-46359440D01*
X29284765Y-46310157D01*
X29494809Y-46169809D01*
X29635157Y-45959765D01*
X29684440Y-45712000D01*
X29684440Y-45497750D01*
X30302000Y-45497750D01*
X30302000Y-45838310D01*
X30398673Y-46071699D01*
X30577302Y-46250327D01*
X30810691Y-46347000D01*
X32226250Y-46347000D01*
X32385000Y-46188250D01*
X32385000Y-45339000D01*
X32639000Y-45339000D01*
X32639000Y-46188250D01*
X32797750Y-46347000D01*
X34213309Y-46347000D01*
X34446698Y-46250327D01*
X34625327Y-46071699D01*
X34722000Y-45838310D01*
X34722000Y-45497750D01*
X34563250Y-45339000D01*
X32639000Y-45339000D01*
X32385000Y-45339000D01*
X30460750Y-45339000D01*
X30302000Y-45497750D01*
X29684440Y-45497750D01*
X29684440Y-44712000D01*
X29659316Y-44585690D01*
X30302000Y-44585690D01*
X30302000Y-44926250D01*
X30460750Y-45085000D01*
X32385000Y-45085000D01*
X32385000Y-44235750D01*
X32639000Y-44235750D01*
X32639000Y-45085000D01*
X34563250Y-45085000D01*
X34722000Y-44926250D01*
X34722000Y-44585690D01*
X34625327Y-44352301D01*
X34446698Y-44173673D01*
X34213309Y-44077000D01*
X32797750Y-44077000D01*
X32639000Y-44235750D01*
X32385000Y-44235750D01*
X32226250Y-44077000D01*
X30810691Y-44077000D01*
X30577302Y-44173673D01*
X30398673Y-44352301D01*
X30302000Y-44585690D01*
X29659316Y-44585690D01*
X29635157Y-44464235D01*
X29494809Y-44254191D01*
X29284765Y-44113843D01*
X29037000Y-44064560D01*
X25887000Y-44064560D01*
X25639235Y-44113843D01*
X25429191Y-44254191D01*
X25288843Y-44464235D01*
X25239560Y-44712000D01*
X25239560Y-45353652D01*
X24692634Y-45900578D01*
X24633254Y-45940255D01*
X24593578Y-45999634D01*
X24593576Y-45999636D01*
X24545425Y-46071699D01*
X24476064Y-46175505D01*
X24434800Y-46382955D01*
X24434800Y-46382959D01*
X24420868Y-46453000D01*
X23595000Y-46453000D01*
X23595000Y-37465000D01*
X26035000Y-37465000D01*
X26035000Y-42418000D01*
G04 #@! TD*
M02*
