G04 #@! TF.GenerationSoftware,KiCad,Pcbnew,(5.1.0)-1*
G04 #@! TF.CreationDate,2019-04-21T11:53:59-04:00*
G04 #@! TF.ProjectId,tpms_silencer,74706d73-5f73-4696-9c65-6e6365722e6b,rev?*
G04 #@! TF.SameCoordinates,Original*
G04 #@! TF.FileFunction,Copper,L2,Bot*
G04 #@! TF.FilePolarity,Positive*
%FSLAX46Y46*%
G04 Gerber Fmt 4.6, Leading zero omitted, Abs format (unit mm)*
G04 Created by KiCad (PCBNEW (5.1.0)-1) date 2019-04-21 11:53:59*
%MOMM*%
%LPD*%
G04 APERTURE LIST*
%ADD10C,0.500000*%
%ADD11R,1.270000X5.080000*%
%ADD12R,3.960000X3.960000*%
%ADD13R,3.150000X1.000000*%
%ADD14C,0.600000*%
%ADD15C,0.228600*%
%ADD16C,0.152400*%
%ADD17C,0.254000*%
G04 APERTURE END LIST*
D10*
X23756000Y-38328600D03*
X24956000Y-38328600D03*
D11*
X50292000Y-63754000D03*
X28322000Y-63754000D03*
D12*
X39307000Y-63754000D03*
D13*
X27462000Y-50292000D03*
X32512000Y-50292000D03*
X27462000Y-47752000D03*
X32512000Y-47752000D03*
X27462000Y-45212000D03*
X32512000Y-45212000D03*
D14*
X26670000Y-62484000D03*
X52832000Y-60452000D03*
X47117000Y-68834000D03*
X25908000Y-49022000D03*
X54102000Y-54864000D03*
X51816000Y-54864000D03*
X49530000Y-58420000D03*
X51816000Y-44450000D03*
X49530000Y-49784000D03*
X45847000Y-53086000D03*
X25908000Y-53594000D03*
X41656000Y-67564000D03*
X33274000Y-51816000D03*
X34798000Y-45466000D03*
X30226000Y-46482000D03*
X29210000Y-70612000D03*
X44958000Y-48514000D03*
X34798000Y-55372000D03*
X35052000Y-49530000D03*
X36576000Y-58928000D03*
X30988000Y-57150000D03*
X42418002Y-49784000D03*
X45688958Y-49254143D03*
X43434000Y-54102000D03*
X44196000Y-52832000D03*
X47244000Y-48260000D03*
X38100000Y-57404000D03*
D15*
X26670000Y-62484000D02*
X27178000Y-62992000D01*
X27178000Y-62992000D02*
X28194000Y-62992000D01*
X51155600Y-63754000D02*
X52832000Y-62077600D01*
X52832000Y-62077600D02*
X52832000Y-60452000D01*
X50292000Y-63754000D02*
X51155600Y-63754000D01*
X50292000Y-65659000D02*
X47117000Y-68834000D01*
X50292000Y-63754000D02*
X50292000Y-65659000D01*
X47117000Y-68834000D02*
X33020000Y-68834000D01*
X33020000Y-68834000D02*
X28194000Y-64008000D01*
X29438400Y-49022000D02*
X25908000Y-49022000D01*
X32512000Y-50292000D02*
X30708400Y-50292000D01*
X30708400Y-50292000D02*
X29438400Y-49022000D01*
X34544000Y-45212000D02*
X32512000Y-45212000D01*
X34798000Y-45466000D02*
X34544000Y-45212000D01*
D16*
X27462000Y-50292000D02*
X29718000Y-50292000D01*
X29718000Y-50292000D02*
X34798000Y-55372000D01*
X30967400Y-49530000D02*
X35052000Y-49530000D01*
X27462000Y-47752000D02*
X29189400Y-47752000D01*
X29189400Y-47752000D02*
X30967400Y-49530000D01*
X36576000Y-50088600D02*
X36576000Y-58928000D01*
X32512000Y-47752000D02*
X34239400Y-47752000D01*
X34239400Y-47752000D02*
X36576000Y-50088600D01*
X25146000Y-51308000D02*
X30988000Y-57150000D01*
X25146000Y-46453000D02*
X25146000Y-51308000D01*
X27462000Y-45212000D02*
X26387000Y-45212000D01*
X26387000Y-45212000D02*
X25146000Y-46453000D01*
X45518311Y-49784000D02*
X45688958Y-49613353D01*
X42418002Y-49784000D02*
X45518311Y-49784000D01*
X45688958Y-49613353D02*
X45688958Y-49254143D01*
X44196000Y-53340000D02*
X44196000Y-52832000D01*
X43434000Y-54102000D02*
X44196000Y-53340000D01*
X47244000Y-48260000D02*
X47244000Y-54610000D01*
X47244000Y-54610000D02*
X44450000Y-57404000D01*
X44450000Y-57404000D02*
X38100000Y-57404000D01*
D17*
G36*
X26035000Y-42418000D02*
G01*
X26037440Y-42442776D01*
X26044667Y-42466601D01*
X26056403Y-42488557D01*
X26072197Y-42507803D01*
X26091443Y-42523597D01*
X26113399Y-42535333D01*
X26137224Y-42542560D01*
X26162000Y-42545000D01*
X49657000Y-42545000D01*
X49681776Y-42542560D01*
X49705601Y-42535333D01*
X49727557Y-42523597D01*
X49746803Y-42507803D01*
X49762597Y-42488557D01*
X49774333Y-42466601D01*
X49781560Y-42442776D01*
X49784000Y-42418000D01*
X49784000Y-40005000D01*
X55145000Y-40005000D01*
X55145001Y-69778068D01*
X54961749Y-69455486D01*
X54597664Y-69033689D01*
X54158585Y-68690644D01*
X53661238Y-68439416D01*
X53124566Y-68289574D01*
X52569009Y-68246826D01*
X52015731Y-68312801D01*
X51485804Y-68484984D01*
X50999413Y-68756819D01*
X50575085Y-69117950D01*
X50228982Y-69554623D01*
X49974288Y-70050204D01*
X49820703Y-70585818D01*
X49774078Y-71141062D01*
X49836189Y-71694788D01*
X50004669Y-72225904D01*
X50273101Y-72714181D01*
X50631261Y-73141020D01*
X51065507Y-73490162D01*
X51442023Y-73687000D01*
X23595000Y-73687000D01*
X23595000Y-62391911D01*
X25735000Y-62391911D01*
X25735000Y-62576089D01*
X25770932Y-62756729D01*
X25841414Y-62926889D01*
X25943738Y-63080028D01*
X26073972Y-63210262D01*
X26227111Y-63312586D01*
X26397271Y-63383068D01*
X26537240Y-63410910D01*
X26622141Y-63495811D01*
X26645602Y-63524398D01*
X26759697Y-63618034D01*
X26889868Y-63687612D01*
X27031112Y-63730458D01*
X27048928Y-63732213D01*
X27048928Y-66294000D01*
X27061188Y-66418482D01*
X27097498Y-66538180D01*
X27156463Y-66648494D01*
X27235815Y-66745185D01*
X27332506Y-66824537D01*
X27442820Y-66883502D01*
X27562518Y-66919812D01*
X27687000Y-66932072D01*
X28957000Y-66932072D01*
X29081482Y-66919812D01*
X29201180Y-66883502D01*
X29311494Y-66824537D01*
X29408185Y-66745185D01*
X29487537Y-66648494D01*
X29546502Y-66538180D01*
X29573968Y-66447638D01*
X32464146Y-69337817D01*
X32487602Y-69366398D01*
X32516183Y-69389854D01*
X32516190Y-69389861D01*
X32596155Y-69455486D01*
X32601697Y-69460034D01*
X32731868Y-69529612D01*
X32873112Y-69572458D01*
X32983194Y-69583300D01*
X32983202Y-69583300D01*
X33020000Y-69586924D01*
X33056798Y-69583300D01*
X46555451Y-69583300D01*
X46674111Y-69662586D01*
X46844271Y-69733068D01*
X47024911Y-69769000D01*
X47209089Y-69769000D01*
X47389729Y-69733068D01*
X47559889Y-69662586D01*
X47713028Y-69560262D01*
X47843262Y-69430028D01*
X47945586Y-69276889D01*
X48016068Y-69106729D01*
X48043910Y-68966759D01*
X50078598Y-66932072D01*
X50927000Y-66932072D01*
X51051482Y-66919812D01*
X51171180Y-66883502D01*
X51281494Y-66824537D01*
X51378185Y-66745185D01*
X51457537Y-66648494D01*
X51516502Y-66538180D01*
X51552812Y-66418482D01*
X51565072Y-66294000D01*
X51565072Y-64384754D01*
X51573903Y-64380034D01*
X51687998Y-64286398D01*
X51711463Y-64257806D01*
X53335818Y-62633453D01*
X53364398Y-62609998D01*
X53387854Y-62581417D01*
X53387861Y-62581410D01*
X53458034Y-62495903D01*
X53527612Y-62365732D01*
X53570458Y-62224488D01*
X53571760Y-62211271D01*
X53581300Y-62114406D01*
X53581300Y-62114398D01*
X53584924Y-62077600D01*
X53581300Y-62040802D01*
X53581300Y-61013549D01*
X53660586Y-60894889D01*
X53731068Y-60724729D01*
X53767000Y-60544089D01*
X53767000Y-60359911D01*
X53731068Y-60179271D01*
X53660586Y-60009111D01*
X53558262Y-59855972D01*
X53428028Y-59725738D01*
X53274889Y-59623414D01*
X53104729Y-59552932D01*
X52924089Y-59517000D01*
X52739911Y-59517000D01*
X52559271Y-59552932D01*
X52389111Y-59623414D01*
X52235972Y-59725738D01*
X52105738Y-59855972D01*
X52003414Y-60009111D01*
X51932932Y-60179271D01*
X51897000Y-60359911D01*
X51897000Y-60544089D01*
X51932932Y-60724729D01*
X52003414Y-60894889D01*
X52082701Y-61013550D01*
X52082700Y-61767229D01*
X51565072Y-62284858D01*
X51565072Y-61214000D01*
X51552812Y-61089518D01*
X51516502Y-60969820D01*
X51457537Y-60859506D01*
X51378185Y-60762815D01*
X51281494Y-60683463D01*
X51171180Y-60624498D01*
X51051482Y-60588188D01*
X50927000Y-60575928D01*
X49657000Y-60575928D01*
X49532518Y-60588188D01*
X49412820Y-60624498D01*
X49302506Y-60683463D01*
X49205815Y-60762815D01*
X49126463Y-60859506D01*
X49067498Y-60969820D01*
X49031188Y-61089518D01*
X49018928Y-61214000D01*
X49018928Y-65872402D01*
X46984241Y-67907090D01*
X46844271Y-67934932D01*
X46674111Y-68005414D01*
X46555451Y-68084700D01*
X33330371Y-68084700D01*
X30979670Y-65734000D01*
X36688928Y-65734000D01*
X36701188Y-65858482D01*
X36737498Y-65978180D01*
X36796463Y-66088494D01*
X36875815Y-66185185D01*
X36972506Y-66264537D01*
X37082820Y-66323502D01*
X37202518Y-66359812D01*
X37327000Y-66372072D01*
X39021250Y-66369000D01*
X39180000Y-66210250D01*
X39180000Y-63881000D01*
X39434000Y-63881000D01*
X39434000Y-66210250D01*
X39592750Y-66369000D01*
X41287000Y-66372072D01*
X41411482Y-66359812D01*
X41531180Y-66323502D01*
X41641494Y-66264537D01*
X41738185Y-66185185D01*
X41817537Y-66088494D01*
X41876502Y-65978180D01*
X41912812Y-65858482D01*
X41925072Y-65734000D01*
X41922000Y-64039750D01*
X41763250Y-63881000D01*
X39434000Y-63881000D01*
X39180000Y-63881000D01*
X36850750Y-63881000D01*
X36692000Y-64039750D01*
X36688928Y-65734000D01*
X30979670Y-65734000D01*
X29595072Y-64349403D01*
X29595072Y-61774000D01*
X36688928Y-61774000D01*
X36692000Y-63468250D01*
X36850750Y-63627000D01*
X39180000Y-63627000D01*
X39180000Y-61297750D01*
X39434000Y-61297750D01*
X39434000Y-63627000D01*
X41763250Y-63627000D01*
X41922000Y-63468250D01*
X41925072Y-61774000D01*
X41912812Y-61649518D01*
X41876502Y-61529820D01*
X41817537Y-61419506D01*
X41738185Y-61322815D01*
X41641494Y-61243463D01*
X41531180Y-61184498D01*
X41411482Y-61148188D01*
X41287000Y-61135928D01*
X39592750Y-61139000D01*
X39434000Y-61297750D01*
X39180000Y-61297750D01*
X39021250Y-61139000D01*
X37327000Y-61135928D01*
X37202518Y-61148188D01*
X37082820Y-61184498D01*
X36972506Y-61243463D01*
X36875815Y-61322815D01*
X36796463Y-61419506D01*
X36737498Y-61529820D01*
X36701188Y-61649518D01*
X36688928Y-61774000D01*
X29595072Y-61774000D01*
X29595072Y-61214000D01*
X29582812Y-61089518D01*
X29546502Y-60969820D01*
X29487537Y-60859506D01*
X29408185Y-60762815D01*
X29311494Y-60683463D01*
X29201180Y-60624498D01*
X29081482Y-60588188D01*
X28957000Y-60575928D01*
X27687000Y-60575928D01*
X27562518Y-60588188D01*
X27442820Y-60624498D01*
X27332506Y-60683463D01*
X27235815Y-60762815D01*
X27156463Y-60859506D01*
X27097498Y-60969820D01*
X27061188Y-61089518D01*
X27048928Y-61214000D01*
X27048928Y-61628921D01*
X26942729Y-61584932D01*
X26762089Y-61549000D01*
X26577911Y-61549000D01*
X26397271Y-61584932D01*
X26227111Y-61655414D01*
X26073972Y-61757738D01*
X25943738Y-61887972D01*
X25841414Y-62041111D01*
X25770932Y-62211271D01*
X25735000Y-62391911D01*
X23595000Y-62391911D01*
X23595000Y-46453000D01*
X24431360Y-46453000D01*
X24434800Y-46487926D01*
X24434801Y-51273064D01*
X24431360Y-51308000D01*
X24434801Y-51342936D01*
X24445092Y-51447420D01*
X24485759Y-51581481D01*
X24551799Y-51705033D01*
X24640674Y-51813327D01*
X24667810Y-51835597D01*
X30053000Y-57220789D01*
X30053000Y-57242089D01*
X30088932Y-57422729D01*
X30159414Y-57592889D01*
X30261738Y-57746028D01*
X30391972Y-57876262D01*
X30545111Y-57978586D01*
X30715271Y-58049068D01*
X30895911Y-58085000D01*
X31080089Y-58085000D01*
X31260729Y-58049068D01*
X31430889Y-57978586D01*
X31584028Y-57876262D01*
X31714262Y-57746028D01*
X31816586Y-57592889D01*
X31887068Y-57422729D01*
X31923000Y-57242089D01*
X31923000Y-57057911D01*
X31887068Y-56877271D01*
X31816586Y-56707111D01*
X31714262Y-56553972D01*
X31584028Y-56423738D01*
X31430889Y-56321414D01*
X31260729Y-56250932D01*
X31080089Y-56215000D01*
X31058789Y-56215000D01*
X26273859Y-51430072D01*
X29037000Y-51430072D01*
X29161482Y-51417812D01*
X29281180Y-51381502D01*
X29391494Y-51322537D01*
X29488185Y-51243185D01*
X29567163Y-51146950D01*
X33863000Y-55442788D01*
X33863000Y-55464089D01*
X33898932Y-55644729D01*
X33969414Y-55814889D01*
X34071738Y-55968028D01*
X34201972Y-56098262D01*
X34355111Y-56200586D01*
X34525271Y-56271068D01*
X34705911Y-56307000D01*
X34890089Y-56307000D01*
X35070729Y-56271068D01*
X35240889Y-56200586D01*
X35394028Y-56098262D01*
X35524262Y-55968028D01*
X35626586Y-55814889D01*
X35697068Y-55644729D01*
X35733000Y-55464089D01*
X35733000Y-55279911D01*
X35697068Y-55099271D01*
X35626586Y-54929111D01*
X35524262Y-54775972D01*
X35394028Y-54645738D01*
X35240889Y-54543414D01*
X35070729Y-54472932D01*
X34890089Y-54437000D01*
X34868788Y-54437000D01*
X31861859Y-51430072D01*
X34087000Y-51430072D01*
X34211482Y-51417812D01*
X34331180Y-51381502D01*
X34441494Y-51322537D01*
X34538185Y-51243185D01*
X34617537Y-51146494D01*
X34676502Y-51036180D01*
X34712812Y-50916482D01*
X34725072Y-50792000D01*
X34725072Y-50406618D01*
X34779271Y-50429068D01*
X34959911Y-50465000D01*
X35144089Y-50465000D01*
X35324729Y-50429068D01*
X35494889Y-50358586D01*
X35648028Y-50256262D01*
X35692951Y-50211339D01*
X35864800Y-50383189D01*
X35864801Y-58316909D01*
X35849738Y-58331972D01*
X35747414Y-58485111D01*
X35676932Y-58655271D01*
X35641000Y-58835911D01*
X35641000Y-59020089D01*
X35676932Y-59200729D01*
X35747414Y-59370889D01*
X35849738Y-59524028D01*
X35979972Y-59654262D01*
X36133111Y-59756586D01*
X36303271Y-59827068D01*
X36483911Y-59863000D01*
X36668089Y-59863000D01*
X36848729Y-59827068D01*
X37018889Y-59756586D01*
X37172028Y-59654262D01*
X37302262Y-59524028D01*
X37404586Y-59370889D01*
X37475068Y-59200729D01*
X37511000Y-59020089D01*
X37511000Y-58835911D01*
X37475068Y-58655271D01*
X37404586Y-58485111D01*
X37302262Y-58331972D01*
X37287200Y-58316910D01*
X37287200Y-57870514D01*
X37373738Y-58000028D01*
X37503972Y-58130262D01*
X37657111Y-58232586D01*
X37827271Y-58303068D01*
X38007911Y-58339000D01*
X38192089Y-58339000D01*
X38372729Y-58303068D01*
X38542889Y-58232586D01*
X38696028Y-58130262D01*
X38711090Y-58115200D01*
X44415074Y-58115200D01*
X44450000Y-58118640D01*
X44484926Y-58115200D01*
X44484936Y-58115200D01*
X44589420Y-58104909D01*
X44723481Y-58064242D01*
X44847033Y-57998202D01*
X44955327Y-57909327D01*
X44977602Y-57882185D01*
X47722196Y-55137593D01*
X47749327Y-55115327D01*
X47771593Y-55088196D01*
X47771598Y-55088191D01*
X47838202Y-55007033D01*
X47904242Y-54883482D01*
X47944909Y-54749420D01*
X47955200Y-54644936D01*
X47955200Y-54644929D01*
X47958640Y-54610000D01*
X47955200Y-54575072D01*
X47955200Y-48871090D01*
X47970262Y-48856028D01*
X48072586Y-48702889D01*
X48143068Y-48532729D01*
X48179000Y-48352089D01*
X48179000Y-48167911D01*
X48143068Y-47987271D01*
X48072586Y-47817111D01*
X47970262Y-47663972D01*
X47840028Y-47533738D01*
X47686889Y-47431414D01*
X47516729Y-47360932D01*
X47336089Y-47325000D01*
X47151911Y-47325000D01*
X46971271Y-47360932D01*
X46801111Y-47431414D01*
X46647972Y-47533738D01*
X46517738Y-47663972D01*
X46415414Y-47817111D01*
X46344932Y-47987271D01*
X46309000Y-48167911D01*
X46309000Y-48352089D01*
X46344932Y-48532729D01*
X46383892Y-48626787D01*
X46284986Y-48527881D01*
X46131847Y-48425557D01*
X45961687Y-48355075D01*
X45781047Y-48319143D01*
X45596869Y-48319143D01*
X45416229Y-48355075D01*
X45246069Y-48425557D01*
X45092930Y-48527881D01*
X44962696Y-48658115D01*
X44860372Y-48811254D01*
X44789890Y-48981414D01*
X44771712Y-49072800D01*
X43029092Y-49072800D01*
X43014030Y-49057738D01*
X42860891Y-48955414D01*
X42690731Y-48884932D01*
X42510091Y-48849000D01*
X42325913Y-48849000D01*
X42145273Y-48884932D01*
X41975113Y-48955414D01*
X41821974Y-49057738D01*
X41691740Y-49187972D01*
X41589416Y-49341111D01*
X41518934Y-49511271D01*
X41483002Y-49691911D01*
X41483002Y-49876089D01*
X41518934Y-50056729D01*
X41589416Y-50226889D01*
X41691740Y-50380028D01*
X41821974Y-50510262D01*
X41975113Y-50612586D01*
X42145273Y-50683068D01*
X42325913Y-50719000D01*
X42510091Y-50719000D01*
X42690731Y-50683068D01*
X42860891Y-50612586D01*
X43014030Y-50510262D01*
X43029092Y-50495200D01*
X45483385Y-50495200D01*
X45518311Y-50498640D01*
X45553237Y-50495200D01*
X45553247Y-50495200D01*
X45657731Y-50484909D01*
X45791792Y-50444242D01*
X45915344Y-50378202D01*
X46023638Y-50289327D01*
X46045912Y-50262186D01*
X46167152Y-50140947D01*
X46194284Y-50118680D01*
X46216551Y-50091548D01*
X46216555Y-50091544D01*
X46276485Y-50018519D01*
X46283160Y-50010386D01*
X46315490Y-49949901D01*
X46415220Y-49850171D01*
X46517544Y-49697032D01*
X46532800Y-49660200D01*
X46532801Y-54315410D01*
X44155413Y-56692800D01*
X38711090Y-56692800D01*
X38696028Y-56677738D01*
X38542889Y-56575414D01*
X38372729Y-56504932D01*
X38192089Y-56469000D01*
X38007911Y-56469000D01*
X37827271Y-56504932D01*
X37657111Y-56575414D01*
X37503972Y-56677738D01*
X37373738Y-56807972D01*
X37287200Y-56937486D01*
X37287200Y-54009911D01*
X42499000Y-54009911D01*
X42499000Y-54194089D01*
X42534932Y-54374729D01*
X42605414Y-54544889D01*
X42707738Y-54698028D01*
X42837972Y-54828262D01*
X42991111Y-54930586D01*
X43161271Y-55001068D01*
X43341911Y-55037000D01*
X43526089Y-55037000D01*
X43706729Y-55001068D01*
X43876889Y-54930586D01*
X44030028Y-54828262D01*
X44160262Y-54698028D01*
X44262586Y-54544889D01*
X44333068Y-54374729D01*
X44369000Y-54194089D01*
X44369000Y-54172788D01*
X44674200Y-53867589D01*
X44701326Y-53845327D01*
X44723588Y-53818201D01*
X44723598Y-53818191D01*
X44790202Y-53737033D01*
X44856242Y-53613482D01*
X44896909Y-53479420D01*
X44896909Y-53479419D01*
X44899754Y-53450536D01*
X44922262Y-53428028D01*
X45024586Y-53274889D01*
X45095068Y-53104729D01*
X45131000Y-52924089D01*
X45131000Y-52739911D01*
X45095068Y-52559271D01*
X45024586Y-52389111D01*
X44922262Y-52235972D01*
X44792028Y-52105738D01*
X44638889Y-52003414D01*
X44468729Y-51932932D01*
X44288089Y-51897000D01*
X44103911Y-51897000D01*
X43923271Y-51932932D01*
X43753111Y-52003414D01*
X43599972Y-52105738D01*
X43469738Y-52235972D01*
X43367414Y-52389111D01*
X43296932Y-52559271D01*
X43261000Y-52739911D01*
X43261000Y-52924089D01*
X43296932Y-53104729D01*
X43324186Y-53170526D01*
X43161271Y-53202932D01*
X42991111Y-53273414D01*
X42837972Y-53375738D01*
X42707738Y-53505972D01*
X42605414Y-53659111D01*
X42534932Y-53829271D01*
X42499000Y-54009911D01*
X37287200Y-54009911D01*
X37287200Y-50123525D01*
X37290640Y-50088599D01*
X37287200Y-50053673D01*
X37287200Y-50053664D01*
X37276909Y-49949180D01*
X37236242Y-49815119D01*
X37170202Y-49691567D01*
X37103597Y-49610408D01*
X37103588Y-49610399D01*
X37081326Y-49583273D01*
X37054201Y-49561012D01*
X34767002Y-47273815D01*
X34744727Y-47246673D01*
X34722773Y-47228656D01*
X34712812Y-47127518D01*
X34676502Y-47007820D01*
X34617537Y-46897506D01*
X34538185Y-46800815D01*
X34441494Y-46721463D01*
X34331180Y-46662498D01*
X34211482Y-46626188D01*
X34087000Y-46613928D01*
X30937000Y-46613928D01*
X30812518Y-46626188D01*
X30692820Y-46662498D01*
X30582506Y-46721463D01*
X30485815Y-46800815D01*
X30406463Y-46897506D01*
X30347498Y-47007820D01*
X30311188Y-47127518D01*
X30298928Y-47252000D01*
X30298928Y-47855740D01*
X29717002Y-47273815D01*
X29694727Y-47246673D01*
X29672773Y-47228656D01*
X29662812Y-47127518D01*
X29626502Y-47007820D01*
X29567537Y-46897506D01*
X29488185Y-46800815D01*
X29391494Y-46721463D01*
X29281180Y-46662498D01*
X29161482Y-46626188D01*
X29037000Y-46613928D01*
X25990859Y-46613928D01*
X26254715Y-46350072D01*
X29037000Y-46350072D01*
X29161482Y-46337812D01*
X29281180Y-46301502D01*
X29391494Y-46242537D01*
X29488185Y-46163185D01*
X29567537Y-46066494D01*
X29626502Y-45956180D01*
X29662812Y-45836482D01*
X29675072Y-45712000D01*
X30298928Y-45712000D01*
X30311188Y-45836482D01*
X30347498Y-45956180D01*
X30406463Y-46066494D01*
X30485815Y-46163185D01*
X30582506Y-46242537D01*
X30692820Y-46301502D01*
X30812518Y-46337812D01*
X30937000Y-46350072D01*
X32226250Y-46347000D01*
X32385000Y-46188250D01*
X32385000Y-45339000D01*
X32639000Y-45339000D01*
X32639000Y-46188250D01*
X32797750Y-46347000D01*
X34087000Y-46350072D01*
X34211482Y-46337812D01*
X34331180Y-46301502D01*
X34441494Y-46242537D01*
X34538185Y-46163185D01*
X34617537Y-46066494D01*
X34676502Y-45956180D01*
X34712812Y-45836482D01*
X34725072Y-45712000D01*
X34722000Y-45497750D01*
X34563250Y-45339000D01*
X32639000Y-45339000D01*
X32385000Y-45339000D01*
X30460750Y-45339000D01*
X30302000Y-45497750D01*
X30298928Y-45712000D01*
X29675072Y-45712000D01*
X29675072Y-44712000D01*
X30298928Y-44712000D01*
X30302000Y-44926250D01*
X30460750Y-45085000D01*
X32385000Y-45085000D01*
X32385000Y-44235750D01*
X32639000Y-44235750D01*
X32639000Y-45085000D01*
X34563250Y-45085000D01*
X34722000Y-44926250D01*
X34725072Y-44712000D01*
X34712812Y-44587518D01*
X34676502Y-44467820D01*
X34617537Y-44357506D01*
X34538185Y-44260815D01*
X34441494Y-44181463D01*
X34331180Y-44122498D01*
X34211482Y-44086188D01*
X34087000Y-44073928D01*
X32797750Y-44077000D01*
X32639000Y-44235750D01*
X32385000Y-44235750D01*
X32226250Y-44077000D01*
X30937000Y-44073928D01*
X30812518Y-44086188D01*
X30692820Y-44122498D01*
X30582506Y-44181463D01*
X30485815Y-44260815D01*
X30406463Y-44357506D01*
X30347498Y-44467820D01*
X30311188Y-44587518D01*
X30298928Y-44712000D01*
X29675072Y-44712000D01*
X29662812Y-44587518D01*
X29626502Y-44467820D01*
X29567537Y-44357506D01*
X29488185Y-44260815D01*
X29391494Y-44181463D01*
X29281180Y-44122498D01*
X29161482Y-44086188D01*
X29037000Y-44073928D01*
X25887000Y-44073928D01*
X25762518Y-44086188D01*
X25642820Y-44122498D01*
X25532506Y-44181463D01*
X25435815Y-44260815D01*
X25356463Y-44357506D01*
X25297498Y-44467820D01*
X25261188Y-44587518D01*
X25248928Y-44712000D01*
X25248928Y-45344285D01*
X24667810Y-45925403D01*
X24640673Y-45947674D01*
X24551798Y-46055968D01*
X24485758Y-46179520D01*
X24445091Y-46313581D01*
X24434800Y-46418065D01*
X24434800Y-46418074D01*
X24431360Y-46453000D01*
X23595000Y-46453000D01*
X23595000Y-37465000D01*
X26035000Y-37465000D01*
X26035000Y-42418000D01*
X26035000Y-42418000D01*
G37*
X26035000Y-42418000D02*
X26037440Y-42442776D01*
X26044667Y-42466601D01*
X26056403Y-42488557D01*
X26072197Y-42507803D01*
X26091443Y-42523597D01*
X26113399Y-42535333D01*
X26137224Y-42542560D01*
X26162000Y-42545000D01*
X49657000Y-42545000D01*
X49681776Y-42542560D01*
X49705601Y-42535333D01*
X49727557Y-42523597D01*
X49746803Y-42507803D01*
X49762597Y-42488557D01*
X49774333Y-42466601D01*
X49781560Y-42442776D01*
X49784000Y-42418000D01*
X49784000Y-40005000D01*
X55145000Y-40005000D01*
X55145001Y-69778068D01*
X54961749Y-69455486D01*
X54597664Y-69033689D01*
X54158585Y-68690644D01*
X53661238Y-68439416D01*
X53124566Y-68289574D01*
X52569009Y-68246826D01*
X52015731Y-68312801D01*
X51485804Y-68484984D01*
X50999413Y-68756819D01*
X50575085Y-69117950D01*
X50228982Y-69554623D01*
X49974288Y-70050204D01*
X49820703Y-70585818D01*
X49774078Y-71141062D01*
X49836189Y-71694788D01*
X50004669Y-72225904D01*
X50273101Y-72714181D01*
X50631261Y-73141020D01*
X51065507Y-73490162D01*
X51442023Y-73687000D01*
X23595000Y-73687000D01*
X23595000Y-62391911D01*
X25735000Y-62391911D01*
X25735000Y-62576089D01*
X25770932Y-62756729D01*
X25841414Y-62926889D01*
X25943738Y-63080028D01*
X26073972Y-63210262D01*
X26227111Y-63312586D01*
X26397271Y-63383068D01*
X26537240Y-63410910D01*
X26622141Y-63495811D01*
X26645602Y-63524398D01*
X26759697Y-63618034D01*
X26889868Y-63687612D01*
X27031112Y-63730458D01*
X27048928Y-63732213D01*
X27048928Y-66294000D01*
X27061188Y-66418482D01*
X27097498Y-66538180D01*
X27156463Y-66648494D01*
X27235815Y-66745185D01*
X27332506Y-66824537D01*
X27442820Y-66883502D01*
X27562518Y-66919812D01*
X27687000Y-66932072D01*
X28957000Y-66932072D01*
X29081482Y-66919812D01*
X29201180Y-66883502D01*
X29311494Y-66824537D01*
X29408185Y-66745185D01*
X29487537Y-66648494D01*
X29546502Y-66538180D01*
X29573968Y-66447638D01*
X32464146Y-69337817D01*
X32487602Y-69366398D01*
X32516183Y-69389854D01*
X32516190Y-69389861D01*
X32596155Y-69455486D01*
X32601697Y-69460034D01*
X32731868Y-69529612D01*
X32873112Y-69572458D01*
X32983194Y-69583300D01*
X32983202Y-69583300D01*
X33020000Y-69586924D01*
X33056798Y-69583300D01*
X46555451Y-69583300D01*
X46674111Y-69662586D01*
X46844271Y-69733068D01*
X47024911Y-69769000D01*
X47209089Y-69769000D01*
X47389729Y-69733068D01*
X47559889Y-69662586D01*
X47713028Y-69560262D01*
X47843262Y-69430028D01*
X47945586Y-69276889D01*
X48016068Y-69106729D01*
X48043910Y-68966759D01*
X50078598Y-66932072D01*
X50927000Y-66932072D01*
X51051482Y-66919812D01*
X51171180Y-66883502D01*
X51281494Y-66824537D01*
X51378185Y-66745185D01*
X51457537Y-66648494D01*
X51516502Y-66538180D01*
X51552812Y-66418482D01*
X51565072Y-66294000D01*
X51565072Y-64384754D01*
X51573903Y-64380034D01*
X51687998Y-64286398D01*
X51711463Y-64257806D01*
X53335818Y-62633453D01*
X53364398Y-62609998D01*
X53387854Y-62581417D01*
X53387861Y-62581410D01*
X53458034Y-62495903D01*
X53527612Y-62365732D01*
X53570458Y-62224488D01*
X53571760Y-62211271D01*
X53581300Y-62114406D01*
X53581300Y-62114398D01*
X53584924Y-62077600D01*
X53581300Y-62040802D01*
X53581300Y-61013549D01*
X53660586Y-60894889D01*
X53731068Y-60724729D01*
X53767000Y-60544089D01*
X53767000Y-60359911D01*
X53731068Y-60179271D01*
X53660586Y-60009111D01*
X53558262Y-59855972D01*
X53428028Y-59725738D01*
X53274889Y-59623414D01*
X53104729Y-59552932D01*
X52924089Y-59517000D01*
X52739911Y-59517000D01*
X52559271Y-59552932D01*
X52389111Y-59623414D01*
X52235972Y-59725738D01*
X52105738Y-59855972D01*
X52003414Y-60009111D01*
X51932932Y-60179271D01*
X51897000Y-60359911D01*
X51897000Y-60544089D01*
X51932932Y-60724729D01*
X52003414Y-60894889D01*
X52082701Y-61013550D01*
X52082700Y-61767229D01*
X51565072Y-62284858D01*
X51565072Y-61214000D01*
X51552812Y-61089518D01*
X51516502Y-60969820D01*
X51457537Y-60859506D01*
X51378185Y-60762815D01*
X51281494Y-60683463D01*
X51171180Y-60624498D01*
X51051482Y-60588188D01*
X50927000Y-60575928D01*
X49657000Y-60575928D01*
X49532518Y-60588188D01*
X49412820Y-60624498D01*
X49302506Y-60683463D01*
X49205815Y-60762815D01*
X49126463Y-60859506D01*
X49067498Y-60969820D01*
X49031188Y-61089518D01*
X49018928Y-61214000D01*
X49018928Y-65872402D01*
X46984241Y-67907090D01*
X46844271Y-67934932D01*
X46674111Y-68005414D01*
X46555451Y-68084700D01*
X33330371Y-68084700D01*
X30979670Y-65734000D01*
X36688928Y-65734000D01*
X36701188Y-65858482D01*
X36737498Y-65978180D01*
X36796463Y-66088494D01*
X36875815Y-66185185D01*
X36972506Y-66264537D01*
X37082820Y-66323502D01*
X37202518Y-66359812D01*
X37327000Y-66372072D01*
X39021250Y-66369000D01*
X39180000Y-66210250D01*
X39180000Y-63881000D01*
X39434000Y-63881000D01*
X39434000Y-66210250D01*
X39592750Y-66369000D01*
X41287000Y-66372072D01*
X41411482Y-66359812D01*
X41531180Y-66323502D01*
X41641494Y-66264537D01*
X41738185Y-66185185D01*
X41817537Y-66088494D01*
X41876502Y-65978180D01*
X41912812Y-65858482D01*
X41925072Y-65734000D01*
X41922000Y-64039750D01*
X41763250Y-63881000D01*
X39434000Y-63881000D01*
X39180000Y-63881000D01*
X36850750Y-63881000D01*
X36692000Y-64039750D01*
X36688928Y-65734000D01*
X30979670Y-65734000D01*
X29595072Y-64349403D01*
X29595072Y-61774000D01*
X36688928Y-61774000D01*
X36692000Y-63468250D01*
X36850750Y-63627000D01*
X39180000Y-63627000D01*
X39180000Y-61297750D01*
X39434000Y-61297750D01*
X39434000Y-63627000D01*
X41763250Y-63627000D01*
X41922000Y-63468250D01*
X41925072Y-61774000D01*
X41912812Y-61649518D01*
X41876502Y-61529820D01*
X41817537Y-61419506D01*
X41738185Y-61322815D01*
X41641494Y-61243463D01*
X41531180Y-61184498D01*
X41411482Y-61148188D01*
X41287000Y-61135928D01*
X39592750Y-61139000D01*
X39434000Y-61297750D01*
X39180000Y-61297750D01*
X39021250Y-61139000D01*
X37327000Y-61135928D01*
X37202518Y-61148188D01*
X37082820Y-61184498D01*
X36972506Y-61243463D01*
X36875815Y-61322815D01*
X36796463Y-61419506D01*
X36737498Y-61529820D01*
X36701188Y-61649518D01*
X36688928Y-61774000D01*
X29595072Y-61774000D01*
X29595072Y-61214000D01*
X29582812Y-61089518D01*
X29546502Y-60969820D01*
X29487537Y-60859506D01*
X29408185Y-60762815D01*
X29311494Y-60683463D01*
X29201180Y-60624498D01*
X29081482Y-60588188D01*
X28957000Y-60575928D01*
X27687000Y-60575928D01*
X27562518Y-60588188D01*
X27442820Y-60624498D01*
X27332506Y-60683463D01*
X27235815Y-60762815D01*
X27156463Y-60859506D01*
X27097498Y-60969820D01*
X27061188Y-61089518D01*
X27048928Y-61214000D01*
X27048928Y-61628921D01*
X26942729Y-61584932D01*
X26762089Y-61549000D01*
X26577911Y-61549000D01*
X26397271Y-61584932D01*
X26227111Y-61655414D01*
X26073972Y-61757738D01*
X25943738Y-61887972D01*
X25841414Y-62041111D01*
X25770932Y-62211271D01*
X25735000Y-62391911D01*
X23595000Y-62391911D01*
X23595000Y-46453000D01*
X24431360Y-46453000D01*
X24434800Y-46487926D01*
X24434801Y-51273064D01*
X24431360Y-51308000D01*
X24434801Y-51342936D01*
X24445092Y-51447420D01*
X24485759Y-51581481D01*
X24551799Y-51705033D01*
X24640674Y-51813327D01*
X24667810Y-51835597D01*
X30053000Y-57220789D01*
X30053000Y-57242089D01*
X30088932Y-57422729D01*
X30159414Y-57592889D01*
X30261738Y-57746028D01*
X30391972Y-57876262D01*
X30545111Y-57978586D01*
X30715271Y-58049068D01*
X30895911Y-58085000D01*
X31080089Y-58085000D01*
X31260729Y-58049068D01*
X31430889Y-57978586D01*
X31584028Y-57876262D01*
X31714262Y-57746028D01*
X31816586Y-57592889D01*
X31887068Y-57422729D01*
X31923000Y-57242089D01*
X31923000Y-57057911D01*
X31887068Y-56877271D01*
X31816586Y-56707111D01*
X31714262Y-56553972D01*
X31584028Y-56423738D01*
X31430889Y-56321414D01*
X31260729Y-56250932D01*
X31080089Y-56215000D01*
X31058789Y-56215000D01*
X26273859Y-51430072D01*
X29037000Y-51430072D01*
X29161482Y-51417812D01*
X29281180Y-51381502D01*
X29391494Y-51322537D01*
X29488185Y-51243185D01*
X29567163Y-51146950D01*
X33863000Y-55442788D01*
X33863000Y-55464089D01*
X33898932Y-55644729D01*
X33969414Y-55814889D01*
X34071738Y-55968028D01*
X34201972Y-56098262D01*
X34355111Y-56200586D01*
X34525271Y-56271068D01*
X34705911Y-56307000D01*
X34890089Y-56307000D01*
X35070729Y-56271068D01*
X35240889Y-56200586D01*
X35394028Y-56098262D01*
X35524262Y-55968028D01*
X35626586Y-55814889D01*
X35697068Y-55644729D01*
X35733000Y-55464089D01*
X35733000Y-55279911D01*
X35697068Y-55099271D01*
X35626586Y-54929111D01*
X35524262Y-54775972D01*
X35394028Y-54645738D01*
X35240889Y-54543414D01*
X35070729Y-54472932D01*
X34890089Y-54437000D01*
X34868788Y-54437000D01*
X31861859Y-51430072D01*
X34087000Y-51430072D01*
X34211482Y-51417812D01*
X34331180Y-51381502D01*
X34441494Y-51322537D01*
X34538185Y-51243185D01*
X34617537Y-51146494D01*
X34676502Y-51036180D01*
X34712812Y-50916482D01*
X34725072Y-50792000D01*
X34725072Y-50406618D01*
X34779271Y-50429068D01*
X34959911Y-50465000D01*
X35144089Y-50465000D01*
X35324729Y-50429068D01*
X35494889Y-50358586D01*
X35648028Y-50256262D01*
X35692951Y-50211339D01*
X35864800Y-50383189D01*
X35864801Y-58316909D01*
X35849738Y-58331972D01*
X35747414Y-58485111D01*
X35676932Y-58655271D01*
X35641000Y-58835911D01*
X35641000Y-59020089D01*
X35676932Y-59200729D01*
X35747414Y-59370889D01*
X35849738Y-59524028D01*
X35979972Y-59654262D01*
X36133111Y-59756586D01*
X36303271Y-59827068D01*
X36483911Y-59863000D01*
X36668089Y-59863000D01*
X36848729Y-59827068D01*
X37018889Y-59756586D01*
X37172028Y-59654262D01*
X37302262Y-59524028D01*
X37404586Y-59370889D01*
X37475068Y-59200729D01*
X37511000Y-59020089D01*
X37511000Y-58835911D01*
X37475068Y-58655271D01*
X37404586Y-58485111D01*
X37302262Y-58331972D01*
X37287200Y-58316910D01*
X37287200Y-57870514D01*
X37373738Y-58000028D01*
X37503972Y-58130262D01*
X37657111Y-58232586D01*
X37827271Y-58303068D01*
X38007911Y-58339000D01*
X38192089Y-58339000D01*
X38372729Y-58303068D01*
X38542889Y-58232586D01*
X38696028Y-58130262D01*
X38711090Y-58115200D01*
X44415074Y-58115200D01*
X44450000Y-58118640D01*
X44484926Y-58115200D01*
X44484936Y-58115200D01*
X44589420Y-58104909D01*
X44723481Y-58064242D01*
X44847033Y-57998202D01*
X44955327Y-57909327D01*
X44977602Y-57882185D01*
X47722196Y-55137593D01*
X47749327Y-55115327D01*
X47771593Y-55088196D01*
X47771598Y-55088191D01*
X47838202Y-55007033D01*
X47904242Y-54883482D01*
X47944909Y-54749420D01*
X47955200Y-54644936D01*
X47955200Y-54644929D01*
X47958640Y-54610000D01*
X47955200Y-54575072D01*
X47955200Y-48871090D01*
X47970262Y-48856028D01*
X48072586Y-48702889D01*
X48143068Y-48532729D01*
X48179000Y-48352089D01*
X48179000Y-48167911D01*
X48143068Y-47987271D01*
X48072586Y-47817111D01*
X47970262Y-47663972D01*
X47840028Y-47533738D01*
X47686889Y-47431414D01*
X47516729Y-47360932D01*
X47336089Y-47325000D01*
X47151911Y-47325000D01*
X46971271Y-47360932D01*
X46801111Y-47431414D01*
X46647972Y-47533738D01*
X46517738Y-47663972D01*
X46415414Y-47817111D01*
X46344932Y-47987271D01*
X46309000Y-48167911D01*
X46309000Y-48352089D01*
X46344932Y-48532729D01*
X46383892Y-48626787D01*
X46284986Y-48527881D01*
X46131847Y-48425557D01*
X45961687Y-48355075D01*
X45781047Y-48319143D01*
X45596869Y-48319143D01*
X45416229Y-48355075D01*
X45246069Y-48425557D01*
X45092930Y-48527881D01*
X44962696Y-48658115D01*
X44860372Y-48811254D01*
X44789890Y-48981414D01*
X44771712Y-49072800D01*
X43029092Y-49072800D01*
X43014030Y-49057738D01*
X42860891Y-48955414D01*
X42690731Y-48884932D01*
X42510091Y-48849000D01*
X42325913Y-48849000D01*
X42145273Y-48884932D01*
X41975113Y-48955414D01*
X41821974Y-49057738D01*
X41691740Y-49187972D01*
X41589416Y-49341111D01*
X41518934Y-49511271D01*
X41483002Y-49691911D01*
X41483002Y-49876089D01*
X41518934Y-50056729D01*
X41589416Y-50226889D01*
X41691740Y-50380028D01*
X41821974Y-50510262D01*
X41975113Y-50612586D01*
X42145273Y-50683068D01*
X42325913Y-50719000D01*
X42510091Y-50719000D01*
X42690731Y-50683068D01*
X42860891Y-50612586D01*
X43014030Y-50510262D01*
X43029092Y-50495200D01*
X45483385Y-50495200D01*
X45518311Y-50498640D01*
X45553237Y-50495200D01*
X45553247Y-50495200D01*
X45657731Y-50484909D01*
X45791792Y-50444242D01*
X45915344Y-50378202D01*
X46023638Y-50289327D01*
X46045912Y-50262186D01*
X46167152Y-50140947D01*
X46194284Y-50118680D01*
X46216551Y-50091548D01*
X46216555Y-50091544D01*
X46276485Y-50018519D01*
X46283160Y-50010386D01*
X46315490Y-49949901D01*
X46415220Y-49850171D01*
X46517544Y-49697032D01*
X46532800Y-49660200D01*
X46532801Y-54315410D01*
X44155413Y-56692800D01*
X38711090Y-56692800D01*
X38696028Y-56677738D01*
X38542889Y-56575414D01*
X38372729Y-56504932D01*
X38192089Y-56469000D01*
X38007911Y-56469000D01*
X37827271Y-56504932D01*
X37657111Y-56575414D01*
X37503972Y-56677738D01*
X37373738Y-56807972D01*
X37287200Y-56937486D01*
X37287200Y-54009911D01*
X42499000Y-54009911D01*
X42499000Y-54194089D01*
X42534932Y-54374729D01*
X42605414Y-54544889D01*
X42707738Y-54698028D01*
X42837972Y-54828262D01*
X42991111Y-54930586D01*
X43161271Y-55001068D01*
X43341911Y-55037000D01*
X43526089Y-55037000D01*
X43706729Y-55001068D01*
X43876889Y-54930586D01*
X44030028Y-54828262D01*
X44160262Y-54698028D01*
X44262586Y-54544889D01*
X44333068Y-54374729D01*
X44369000Y-54194089D01*
X44369000Y-54172788D01*
X44674200Y-53867589D01*
X44701326Y-53845327D01*
X44723588Y-53818201D01*
X44723598Y-53818191D01*
X44790202Y-53737033D01*
X44856242Y-53613482D01*
X44896909Y-53479420D01*
X44896909Y-53479419D01*
X44899754Y-53450536D01*
X44922262Y-53428028D01*
X45024586Y-53274889D01*
X45095068Y-53104729D01*
X45131000Y-52924089D01*
X45131000Y-52739911D01*
X45095068Y-52559271D01*
X45024586Y-52389111D01*
X44922262Y-52235972D01*
X44792028Y-52105738D01*
X44638889Y-52003414D01*
X44468729Y-51932932D01*
X44288089Y-51897000D01*
X44103911Y-51897000D01*
X43923271Y-51932932D01*
X43753111Y-52003414D01*
X43599972Y-52105738D01*
X43469738Y-52235972D01*
X43367414Y-52389111D01*
X43296932Y-52559271D01*
X43261000Y-52739911D01*
X43261000Y-52924089D01*
X43296932Y-53104729D01*
X43324186Y-53170526D01*
X43161271Y-53202932D01*
X42991111Y-53273414D01*
X42837972Y-53375738D01*
X42707738Y-53505972D01*
X42605414Y-53659111D01*
X42534932Y-53829271D01*
X42499000Y-54009911D01*
X37287200Y-54009911D01*
X37287200Y-50123525D01*
X37290640Y-50088599D01*
X37287200Y-50053673D01*
X37287200Y-50053664D01*
X37276909Y-49949180D01*
X37236242Y-49815119D01*
X37170202Y-49691567D01*
X37103597Y-49610408D01*
X37103588Y-49610399D01*
X37081326Y-49583273D01*
X37054201Y-49561012D01*
X34767002Y-47273815D01*
X34744727Y-47246673D01*
X34722773Y-47228656D01*
X34712812Y-47127518D01*
X34676502Y-47007820D01*
X34617537Y-46897506D01*
X34538185Y-46800815D01*
X34441494Y-46721463D01*
X34331180Y-46662498D01*
X34211482Y-46626188D01*
X34087000Y-46613928D01*
X30937000Y-46613928D01*
X30812518Y-46626188D01*
X30692820Y-46662498D01*
X30582506Y-46721463D01*
X30485815Y-46800815D01*
X30406463Y-46897506D01*
X30347498Y-47007820D01*
X30311188Y-47127518D01*
X30298928Y-47252000D01*
X30298928Y-47855740D01*
X29717002Y-47273815D01*
X29694727Y-47246673D01*
X29672773Y-47228656D01*
X29662812Y-47127518D01*
X29626502Y-47007820D01*
X29567537Y-46897506D01*
X29488185Y-46800815D01*
X29391494Y-46721463D01*
X29281180Y-46662498D01*
X29161482Y-46626188D01*
X29037000Y-46613928D01*
X25990859Y-46613928D01*
X26254715Y-46350072D01*
X29037000Y-46350072D01*
X29161482Y-46337812D01*
X29281180Y-46301502D01*
X29391494Y-46242537D01*
X29488185Y-46163185D01*
X29567537Y-46066494D01*
X29626502Y-45956180D01*
X29662812Y-45836482D01*
X29675072Y-45712000D01*
X30298928Y-45712000D01*
X30311188Y-45836482D01*
X30347498Y-45956180D01*
X30406463Y-46066494D01*
X30485815Y-46163185D01*
X30582506Y-46242537D01*
X30692820Y-46301502D01*
X30812518Y-46337812D01*
X30937000Y-46350072D01*
X32226250Y-46347000D01*
X32385000Y-46188250D01*
X32385000Y-45339000D01*
X32639000Y-45339000D01*
X32639000Y-46188250D01*
X32797750Y-46347000D01*
X34087000Y-46350072D01*
X34211482Y-46337812D01*
X34331180Y-46301502D01*
X34441494Y-46242537D01*
X34538185Y-46163185D01*
X34617537Y-46066494D01*
X34676502Y-45956180D01*
X34712812Y-45836482D01*
X34725072Y-45712000D01*
X34722000Y-45497750D01*
X34563250Y-45339000D01*
X32639000Y-45339000D01*
X32385000Y-45339000D01*
X30460750Y-45339000D01*
X30302000Y-45497750D01*
X30298928Y-45712000D01*
X29675072Y-45712000D01*
X29675072Y-44712000D01*
X30298928Y-44712000D01*
X30302000Y-44926250D01*
X30460750Y-45085000D01*
X32385000Y-45085000D01*
X32385000Y-44235750D01*
X32639000Y-44235750D01*
X32639000Y-45085000D01*
X34563250Y-45085000D01*
X34722000Y-44926250D01*
X34725072Y-44712000D01*
X34712812Y-44587518D01*
X34676502Y-44467820D01*
X34617537Y-44357506D01*
X34538185Y-44260815D01*
X34441494Y-44181463D01*
X34331180Y-44122498D01*
X34211482Y-44086188D01*
X34087000Y-44073928D01*
X32797750Y-44077000D01*
X32639000Y-44235750D01*
X32385000Y-44235750D01*
X32226250Y-44077000D01*
X30937000Y-44073928D01*
X30812518Y-44086188D01*
X30692820Y-44122498D01*
X30582506Y-44181463D01*
X30485815Y-44260815D01*
X30406463Y-44357506D01*
X30347498Y-44467820D01*
X30311188Y-44587518D01*
X30298928Y-44712000D01*
X29675072Y-44712000D01*
X29662812Y-44587518D01*
X29626502Y-44467820D01*
X29567537Y-44357506D01*
X29488185Y-44260815D01*
X29391494Y-44181463D01*
X29281180Y-44122498D01*
X29161482Y-44086188D01*
X29037000Y-44073928D01*
X25887000Y-44073928D01*
X25762518Y-44086188D01*
X25642820Y-44122498D01*
X25532506Y-44181463D01*
X25435815Y-44260815D01*
X25356463Y-44357506D01*
X25297498Y-44467820D01*
X25261188Y-44587518D01*
X25248928Y-44712000D01*
X25248928Y-45344285D01*
X24667810Y-45925403D01*
X24640673Y-45947674D01*
X24551798Y-46055968D01*
X24485758Y-46179520D01*
X24445091Y-46313581D01*
X24434800Y-46418065D01*
X24434800Y-46418074D01*
X24431360Y-46453000D01*
X23595000Y-46453000D01*
X23595000Y-37465000D01*
X26035000Y-37465000D01*
X26035000Y-42418000D01*
M02*
