G04 #@! TF.GenerationSoftware,KiCad,Pcbnew,(5.1.0)-1*
G04 #@! TF.CreationDate,2019-04-21T11:53:59-04:00*
G04 #@! TF.ProjectId,tpms_silencer,74706d73-5f73-4696-9c65-6e6365722e6b,rev?*
G04 #@! TF.SameCoordinates,Original*
G04 #@! TF.FileFunction,Copper,L1,Top*
G04 #@! TF.FilePolarity,Positive*
%FSLAX46Y46*%
G04 Gerber Fmt 4.6, Leading zero omitted, Abs format (unit mm)*
G04 Created by KiCad (PCBNEW (5.1.0)-1) date 2019-04-21 11:53:59*
%MOMM*%
%LPD*%
G04 APERTURE LIST*
%ADD10R,2.400000X2.000000*%
%ADD11R,2.000000X2.400000*%
%ADD12C,0.500000*%
%ADD13C,1.524000*%
%ADD14C,0.100000*%
%ADD15C,0.975000*%
%ADD16R,0.600000X1.500000*%
%ADD17R,0.300000X1.400000*%
%ADD18R,1.550000X1.300000*%
%ADD19C,0.600000*%
%ADD20C,0.228600*%
%ADD21C,0.152400*%
%ADD22C,0.304800*%
%ADD23C,1.000000*%
G04 APERTURE END LIST*
D10*
X40132000Y-50940000D03*
X40132000Y-47240000D03*
D11*
X30878000Y-65532000D03*
X27178000Y-65532000D03*
D12*
X23756000Y-38328600D03*
X24956000Y-38328600D03*
D13*
X54356000Y-38328600D03*
D14*
G36*
X52859142Y-23328622D02*
G01*
X52859491Y-23328606D01*
X52859892Y-23328627D01*
X52869962Y-23328697D01*
X52913558Y-23331440D01*
X52957056Y-23333720D01*
X52962229Y-23334502D01*
X52967469Y-23334832D01*
X53010594Y-23341817D01*
X53053657Y-23348329D01*
X53058731Y-23349613D01*
X53063912Y-23350452D01*
X53106117Y-23361603D01*
X53148372Y-23372295D01*
X53153302Y-23374070D01*
X53158370Y-23375409D01*
X53199246Y-23390611D01*
X53240296Y-23405390D01*
X53245033Y-23407639D01*
X53249942Y-23409465D01*
X53289183Y-23428604D01*
X53328550Y-23447297D01*
X53333032Y-23449990D01*
X53337754Y-23452293D01*
X53374948Y-23475175D01*
X53412296Y-23497616D01*
X53416505Y-23500742D01*
X53420967Y-23503487D01*
X53455728Y-23529872D01*
X53490730Y-23555867D01*
X53494608Y-23559383D01*
X53498788Y-23562556D01*
X53530802Y-23592201D01*
X53563107Y-23621493D01*
X55063107Y-25121493D01*
X55065319Y-25123736D01*
X55065571Y-25123966D01*
X55065834Y-25124258D01*
X55072911Y-25131434D01*
X55101804Y-25164207D01*
X55130944Y-25196571D01*
X55134051Y-25200785D01*
X55137520Y-25204720D01*
X55163052Y-25240121D01*
X55188921Y-25275208D01*
X55191603Y-25279708D01*
X55194671Y-25283961D01*
X55216601Y-25321641D01*
X55238948Y-25359128D01*
X55241183Y-25363878D01*
X55243815Y-25368400D01*
X55261950Y-25408010D01*
X55280546Y-25447530D01*
X55282306Y-25452472D01*
X55284485Y-25457232D01*
X55298687Y-25498476D01*
X55313319Y-25539568D01*
X55314585Y-25544647D01*
X55316294Y-25549609D01*
X55326409Y-25592068D01*
X55336955Y-25634366D01*
X55337721Y-25639552D01*
X55338935Y-25644649D01*
X55344851Y-25687840D01*
X55351227Y-25731017D01*
X55351483Y-25736256D01*
X55352194Y-25741445D01*
X55353868Y-25785003D01*
X55356000Y-25828600D01*
X55356000Y-38328600D01*
X55355903Y-38342562D01*
X55349768Y-38440069D01*
X55334148Y-38536512D01*
X55309191Y-38630970D01*
X55275135Y-38722542D01*
X55232307Y-38810354D01*
X55181113Y-38893567D01*
X55122044Y-38971388D01*
X55055663Y-39043073D01*
X54982604Y-39107938D01*
X54903563Y-39165364D01*
X54819296Y-39214804D01*
X54730607Y-39255784D01*
X54638341Y-39287914D01*
X54543381Y-39310887D01*
X54446633Y-39324484D01*
X54349019Y-39328576D01*
X54251472Y-39323122D01*
X54154922Y-39308175D01*
X54060292Y-39283878D01*
X53968484Y-39250463D01*
X53880376Y-39208249D01*
X53796807Y-39157638D01*
X53718576Y-39099113D01*
X53646429Y-39033234D01*
X53581056Y-38960629D01*
X53523079Y-38881992D01*
X53473052Y-38798072D01*
X53431454Y-38709670D01*
X53398681Y-38617632D01*
X53375045Y-38522834D01*
X53360773Y-38426183D01*
X53356000Y-38328600D01*
X53356000Y-26242814D01*
X52441786Y-25328600D01*
X26270214Y-25328600D01*
X25356000Y-26242814D01*
X25356000Y-38328600D01*
X25355903Y-38342562D01*
X25349768Y-38440069D01*
X25334148Y-38536512D01*
X25309191Y-38630970D01*
X25275135Y-38722542D01*
X25232307Y-38810354D01*
X25181113Y-38893567D01*
X25122044Y-38971388D01*
X25055663Y-39043073D01*
X24982604Y-39107938D01*
X24903563Y-39165364D01*
X24819296Y-39214804D01*
X24730607Y-39255784D01*
X24638341Y-39287914D01*
X24543381Y-39310887D01*
X24446633Y-39324484D01*
X24349019Y-39328576D01*
X24251472Y-39323122D01*
X24154922Y-39308175D01*
X24060292Y-39283878D01*
X23968484Y-39250463D01*
X23880376Y-39208249D01*
X23796807Y-39157638D01*
X23718576Y-39099113D01*
X23646429Y-39033234D01*
X23581056Y-38960629D01*
X23523079Y-38881992D01*
X23473052Y-38798072D01*
X23431454Y-38709670D01*
X23398681Y-38617632D01*
X23375045Y-38522834D01*
X23360773Y-38426183D01*
X23356000Y-38328600D01*
X23356000Y-25828600D01*
X23356022Y-25825458D01*
X23356006Y-25825109D01*
X23356027Y-25824708D01*
X23356097Y-25814638D01*
X23358840Y-25771042D01*
X23361120Y-25727544D01*
X23361902Y-25722371D01*
X23362232Y-25717131D01*
X23369217Y-25674006D01*
X23375729Y-25630943D01*
X23377013Y-25625869D01*
X23377852Y-25620688D01*
X23389003Y-25578483D01*
X23399695Y-25536228D01*
X23401470Y-25531298D01*
X23402809Y-25526230D01*
X23418011Y-25485354D01*
X23432790Y-25444304D01*
X23435039Y-25439567D01*
X23436865Y-25434658D01*
X23456004Y-25395417D01*
X23474697Y-25356050D01*
X23477390Y-25351568D01*
X23479693Y-25346846D01*
X23502575Y-25309652D01*
X23525016Y-25272304D01*
X23528142Y-25268095D01*
X23530887Y-25263633D01*
X23557272Y-25228872D01*
X23583267Y-25193870D01*
X23586783Y-25189992D01*
X23589956Y-25185812D01*
X23619601Y-25153798D01*
X23648893Y-25121493D01*
X25148893Y-23621493D01*
X25151136Y-23619281D01*
X25151366Y-23619029D01*
X25151658Y-23618766D01*
X25158834Y-23611689D01*
X25191607Y-23582796D01*
X25223971Y-23553656D01*
X25228185Y-23550549D01*
X25232120Y-23547080D01*
X25267521Y-23521548D01*
X25302608Y-23495679D01*
X25307108Y-23492997D01*
X25311361Y-23489929D01*
X25349041Y-23467999D01*
X25386528Y-23445652D01*
X25391278Y-23443417D01*
X25395800Y-23440785D01*
X25435410Y-23422650D01*
X25474930Y-23404054D01*
X25479872Y-23402294D01*
X25484632Y-23400115D01*
X25525876Y-23385913D01*
X25566968Y-23371281D01*
X25572047Y-23370015D01*
X25577009Y-23368306D01*
X25619468Y-23358191D01*
X25661766Y-23347645D01*
X25666952Y-23346879D01*
X25672049Y-23345665D01*
X25715240Y-23339749D01*
X25758417Y-23333373D01*
X25763656Y-23333117D01*
X25768845Y-23332406D01*
X25812403Y-23330732D01*
X25856000Y-23328600D01*
X52856000Y-23328600D01*
X52859142Y-23328622D01*
X52859142Y-23328622D01*
G37*
G36*
X25626142Y-56917674D02*
G01*
X25649803Y-56921184D01*
X25673007Y-56926996D01*
X25695529Y-56935054D01*
X25717153Y-56945282D01*
X25737670Y-56957579D01*
X25756883Y-56971829D01*
X25774607Y-56987893D01*
X25790671Y-57005617D01*
X25804921Y-57024830D01*
X25817218Y-57045347D01*
X25827446Y-57066971D01*
X25835504Y-57089493D01*
X25841316Y-57112697D01*
X25844826Y-57136358D01*
X25846000Y-57160250D01*
X25846000Y-57647750D01*
X25844826Y-57671642D01*
X25841316Y-57695303D01*
X25835504Y-57718507D01*
X25827446Y-57741029D01*
X25817218Y-57762653D01*
X25804921Y-57783170D01*
X25790671Y-57802383D01*
X25774607Y-57820107D01*
X25756883Y-57836171D01*
X25737670Y-57850421D01*
X25717153Y-57862718D01*
X25695529Y-57872946D01*
X25673007Y-57881004D01*
X25649803Y-57886816D01*
X25626142Y-57890326D01*
X25602250Y-57891500D01*
X24689750Y-57891500D01*
X24665858Y-57890326D01*
X24642197Y-57886816D01*
X24618993Y-57881004D01*
X24596471Y-57872946D01*
X24574847Y-57862718D01*
X24554330Y-57850421D01*
X24535117Y-57836171D01*
X24517393Y-57820107D01*
X24501329Y-57802383D01*
X24487079Y-57783170D01*
X24474782Y-57762653D01*
X24464554Y-57741029D01*
X24456496Y-57718507D01*
X24450684Y-57695303D01*
X24447174Y-57671642D01*
X24446000Y-57647750D01*
X24446000Y-57160250D01*
X24447174Y-57136358D01*
X24450684Y-57112697D01*
X24456496Y-57089493D01*
X24464554Y-57066971D01*
X24474782Y-57045347D01*
X24487079Y-57024830D01*
X24501329Y-57005617D01*
X24517393Y-56987893D01*
X24535117Y-56971829D01*
X24554330Y-56957579D01*
X24574847Y-56945282D01*
X24596471Y-56935054D01*
X24618993Y-56926996D01*
X24642197Y-56921184D01*
X24665858Y-56917674D01*
X24689750Y-56916500D01*
X25602250Y-56916500D01*
X25626142Y-56917674D01*
X25626142Y-56917674D01*
G37*
D15*
X25146000Y-57404000D03*
D14*
G36*
X25626142Y-55042674D02*
G01*
X25649803Y-55046184D01*
X25673007Y-55051996D01*
X25695529Y-55060054D01*
X25717153Y-55070282D01*
X25737670Y-55082579D01*
X25756883Y-55096829D01*
X25774607Y-55112893D01*
X25790671Y-55130617D01*
X25804921Y-55149830D01*
X25817218Y-55170347D01*
X25827446Y-55191971D01*
X25835504Y-55214493D01*
X25841316Y-55237697D01*
X25844826Y-55261358D01*
X25846000Y-55285250D01*
X25846000Y-55772750D01*
X25844826Y-55796642D01*
X25841316Y-55820303D01*
X25835504Y-55843507D01*
X25827446Y-55866029D01*
X25817218Y-55887653D01*
X25804921Y-55908170D01*
X25790671Y-55927383D01*
X25774607Y-55945107D01*
X25756883Y-55961171D01*
X25737670Y-55975421D01*
X25717153Y-55987718D01*
X25695529Y-55997946D01*
X25673007Y-56006004D01*
X25649803Y-56011816D01*
X25626142Y-56015326D01*
X25602250Y-56016500D01*
X24689750Y-56016500D01*
X24665858Y-56015326D01*
X24642197Y-56011816D01*
X24618993Y-56006004D01*
X24596471Y-55997946D01*
X24574847Y-55987718D01*
X24554330Y-55975421D01*
X24535117Y-55961171D01*
X24517393Y-55945107D01*
X24501329Y-55927383D01*
X24487079Y-55908170D01*
X24474782Y-55887653D01*
X24464554Y-55866029D01*
X24456496Y-55843507D01*
X24450684Y-55820303D01*
X24447174Y-55796642D01*
X24446000Y-55772750D01*
X24446000Y-55285250D01*
X24447174Y-55261358D01*
X24450684Y-55237697D01*
X24456496Y-55214493D01*
X24464554Y-55191971D01*
X24474782Y-55170347D01*
X24487079Y-55149830D01*
X24501329Y-55130617D01*
X24517393Y-55112893D01*
X24535117Y-55096829D01*
X24554330Y-55082579D01*
X24574847Y-55070282D01*
X24596471Y-55060054D01*
X24618993Y-55051996D01*
X24642197Y-55046184D01*
X24665858Y-55042674D01*
X24689750Y-55041500D01*
X25602250Y-55041500D01*
X25626142Y-55042674D01*
X25626142Y-55042674D01*
G37*
D15*
X25146000Y-55529000D03*
D14*
G36*
X27658142Y-68250674D02*
G01*
X27681803Y-68254184D01*
X27705007Y-68259996D01*
X27727529Y-68268054D01*
X27749153Y-68278282D01*
X27769670Y-68290579D01*
X27788883Y-68304829D01*
X27806607Y-68320893D01*
X27822671Y-68338617D01*
X27836921Y-68357830D01*
X27849218Y-68378347D01*
X27859446Y-68399971D01*
X27867504Y-68422493D01*
X27873316Y-68445697D01*
X27876826Y-68469358D01*
X27878000Y-68493250D01*
X27878000Y-68980750D01*
X27876826Y-69004642D01*
X27873316Y-69028303D01*
X27867504Y-69051507D01*
X27859446Y-69074029D01*
X27849218Y-69095653D01*
X27836921Y-69116170D01*
X27822671Y-69135383D01*
X27806607Y-69153107D01*
X27788883Y-69169171D01*
X27769670Y-69183421D01*
X27749153Y-69195718D01*
X27727529Y-69205946D01*
X27705007Y-69214004D01*
X27681803Y-69219816D01*
X27658142Y-69223326D01*
X27634250Y-69224500D01*
X26721750Y-69224500D01*
X26697858Y-69223326D01*
X26674197Y-69219816D01*
X26650993Y-69214004D01*
X26628471Y-69205946D01*
X26606847Y-69195718D01*
X26586330Y-69183421D01*
X26567117Y-69169171D01*
X26549393Y-69153107D01*
X26533329Y-69135383D01*
X26519079Y-69116170D01*
X26506782Y-69095653D01*
X26496554Y-69074029D01*
X26488496Y-69051507D01*
X26482684Y-69028303D01*
X26479174Y-69004642D01*
X26478000Y-68980750D01*
X26478000Y-68493250D01*
X26479174Y-68469358D01*
X26482684Y-68445697D01*
X26488496Y-68422493D01*
X26496554Y-68399971D01*
X26506782Y-68378347D01*
X26519079Y-68357830D01*
X26533329Y-68338617D01*
X26549393Y-68320893D01*
X26567117Y-68304829D01*
X26586330Y-68290579D01*
X26606847Y-68278282D01*
X26628471Y-68268054D01*
X26650993Y-68259996D01*
X26674197Y-68254184D01*
X26697858Y-68250674D01*
X26721750Y-68249500D01*
X27634250Y-68249500D01*
X27658142Y-68250674D01*
X27658142Y-68250674D01*
G37*
D15*
X27178000Y-68737000D03*
D14*
G36*
X27658142Y-70125674D02*
G01*
X27681803Y-70129184D01*
X27705007Y-70134996D01*
X27727529Y-70143054D01*
X27749153Y-70153282D01*
X27769670Y-70165579D01*
X27788883Y-70179829D01*
X27806607Y-70195893D01*
X27822671Y-70213617D01*
X27836921Y-70232830D01*
X27849218Y-70253347D01*
X27859446Y-70274971D01*
X27867504Y-70297493D01*
X27873316Y-70320697D01*
X27876826Y-70344358D01*
X27878000Y-70368250D01*
X27878000Y-70855750D01*
X27876826Y-70879642D01*
X27873316Y-70903303D01*
X27867504Y-70926507D01*
X27859446Y-70949029D01*
X27849218Y-70970653D01*
X27836921Y-70991170D01*
X27822671Y-71010383D01*
X27806607Y-71028107D01*
X27788883Y-71044171D01*
X27769670Y-71058421D01*
X27749153Y-71070718D01*
X27727529Y-71080946D01*
X27705007Y-71089004D01*
X27681803Y-71094816D01*
X27658142Y-71098326D01*
X27634250Y-71099500D01*
X26721750Y-71099500D01*
X26697858Y-71098326D01*
X26674197Y-71094816D01*
X26650993Y-71089004D01*
X26628471Y-71080946D01*
X26606847Y-71070718D01*
X26586330Y-71058421D01*
X26567117Y-71044171D01*
X26549393Y-71028107D01*
X26533329Y-71010383D01*
X26519079Y-70991170D01*
X26506782Y-70970653D01*
X26496554Y-70949029D01*
X26488496Y-70926507D01*
X26482684Y-70903303D01*
X26479174Y-70879642D01*
X26478000Y-70855750D01*
X26478000Y-70368250D01*
X26479174Y-70344358D01*
X26482684Y-70320697D01*
X26488496Y-70297493D01*
X26496554Y-70274971D01*
X26506782Y-70253347D01*
X26519079Y-70232830D01*
X26533329Y-70213617D01*
X26549393Y-70195893D01*
X26567117Y-70179829D01*
X26586330Y-70165579D01*
X26606847Y-70153282D01*
X26628471Y-70143054D01*
X26650993Y-70134996D01*
X26674197Y-70129184D01*
X26697858Y-70125674D01*
X26721750Y-70124500D01*
X27634250Y-70124500D01*
X27658142Y-70125674D01*
X27658142Y-70125674D01*
G37*
D15*
X27178000Y-70612000D03*
D14*
G36*
X31468142Y-70125674D02*
G01*
X31491803Y-70129184D01*
X31515007Y-70134996D01*
X31537529Y-70143054D01*
X31559153Y-70153282D01*
X31579670Y-70165579D01*
X31598883Y-70179829D01*
X31616607Y-70195893D01*
X31632671Y-70213617D01*
X31646921Y-70232830D01*
X31659218Y-70253347D01*
X31669446Y-70274971D01*
X31677504Y-70297493D01*
X31683316Y-70320697D01*
X31686826Y-70344358D01*
X31688000Y-70368250D01*
X31688000Y-70855750D01*
X31686826Y-70879642D01*
X31683316Y-70903303D01*
X31677504Y-70926507D01*
X31669446Y-70949029D01*
X31659218Y-70970653D01*
X31646921Y-70991170D01*
X31632671Y-71010383D01*
X31616607Y-71028107D01*
X31598883Y-71044171D01*
X31579670Y-71058421D01*
X31559153Y-71070718D01*
X31537529Y-71080946D01*
X31515007Y-71089004D01*
X31491803Y-71094816D01*
X31468142Y-71098326D01*
X31444250Y-71099500D01*
X30531750Y-71099500D01*
X30507858Y-71098326D01*
X30484197Y-71094816D01*
X30460993Y-71089004D01*
X30438471Y-71080946D01*
X30416847Y-71070718D01*
X30396330Y-71058421D01*
X30377117Y-71044171D01*
X30359393Y-71028107D01*
X30343329Y-71010383D01*
X30329079Y-70991170D01*
X30316782Y-70970653D01*
X30306554Y-70949029D01*
X30298496Y-70926507D01*
X30292684Y-70903303D01*
X30289174Y-70879642D01*
X30288000Y-70855750D01*
X30288000Y-70368250D01*
X30289174Y-70344358D01*
X30292684Y-70320697D01*
X30298496Y-70297493D01*
X30306554Y-70274971D01*
X30316782Y-70253347D01*
X30329079Y-70232830D01*
X30343329Y-70213617D01*
X30359393Y-70195893D01*
X30377117Y-70179829D01*
X30396330Y-70165579D01*
X30416847Y-70153282D01*
X30438471Y-70143054D01*
X30460993Y-70134996D01*
X30484197Y-70129184D01*
X30507858Y-70125674D01*
X30531750Y-70124500D01*
X31444250Y-70124500D01*
X31468142Y-70125674D01*
X31468142Y-70125674D01*
G37*
D15*
X30988000Y-70612000D03*
D14*
G36*
X31468142Y-68250674D02*
G01*
X31491803Y-68254184D01*
X31515007Y-68259996D01*
X31537529Y-68268054D01*
X31559153Y-68278282D01*
X31579670Y-68290579D01*
X31598883Y-68304829D01*
X31616607Y-68320893D01*
X31632671Y-68338617D01*
X31646921Y-68357830D01*
X31659218Y-68378347D01*
X31669446Y-68399971D01*
X31677504Y-68422493D01*
X31683316Y-68445697D01*
X31686826Y-68469358D01*
X31688000Y-68493250D01*
X31688000Y-68980750D01*
X31686826Y-69004642D01*
X31683316Y-69028303D01*
X31677504Y-69051507D01*
X31669446Y-69074029D01*
X31659218Y-69095653D01*
X31646921Y-69116170D01*
X31632671Y-69135383D01*
X31616607Y-69153107D01*
X31598883Y-69169171D01*
X31579670Y-69183421D01*
X31559153Y-69195718D01*
X31537529Y-69205946D01*
X31515007Y-69214004D01*
X31491803Y-69219816D01*
X31468142Y-69223326D01*
X31444250Y-69224500D01*
X30531750Y-69224500D01*
X30507858Y-69223326D01*
X30484197Y-69219816D01*
X30460993Y-69214004D01*
X30438471Y-69205946D01*
X30416847Y-69195718D01*
X30396330Y-69183421D01*
X30377117Y-69169171D01*
X30359393Y-69153107D01*
X30343329Y-69135383D01*
X30329079Y-69116170D01*
X30316782Y-69095653D01*
X30306554Y-69074029D01*
X30298496Y-69051507D01*
X30292684Y-69028303D01*
X30289174Y-69004642D01*
X30288000Y-68980750D01*
X30288000Y-68493250D01*
X30289174Y-68469358D01*
X30292684Y-68445697D01*
X30298496Y-68422493D01*
X30306554Y-68399971D01*
X30316782Y-68378347D01*
X30329079Y-68357830D01*
X30343329Y-68338617D01*
X30359393Y-68320893D01*
X30377117Y-68304829D01*
X30396330Y-68290579D01*
X30416847Y-68278282D01*
X30438471Y-68268054D01*
X30460993Y-68259996D01*
X30484197Y-68254184D01*
X30507858Y-68250674D01*
X30531750Y-68249500D01*
X31444250Y-68249500D01*
X31468142Y-68250674D01*
X31468142Y-68250674D01*
G37*
D15*
X30988000Y-68737000D03*
D14*
G36*
X36335642Y-46291174D02*
G01*
X36359303Y-46294684D01*
X36382507Y-46300496D01*
X36405029Y-46308554D01*
X36426653Y-46318782D01*
X36447170Y-46331079D01*
X36466383Y-46345329D01*
X36484107Y-46361393D01*
X36500171Y-46379117D01*
X36514421Y-46398330D01*
X36526718Y-46418847D01*
X36536946Y-46440471D01*
X36545004Y-46462993D01*
X36550816Y-46486197D01*
X36554326Y-46509858D01*
X36555500Y-46533750D01*
X36555500Y-47446250D01*
X36554326Y-47470142D01*
X36550816Y-47493803D01*
X36545004Y-47517007D01*
X36536946Y-47539529D01*
X36526718Y-47561153D01*
X36514421Y-47581670D01*
X36500171Y-47600883D01*
X36484107Y-47618607D01*
X36466383Y-47634671D01*
X36447170Y-47648921D01*
X36426653Y-47661218D01*
X36405029Y-47671446D01*
X36382507Y-47679504D01*
X36359303Y-47685316D01*
X36335642Y-47688826D01*
X36311750Y-47690000D01*
X35824250Y-47690000D01*
X35800358Y-47688826D01*
X35776697Y-47685316D01*
X35753493Y-47679504D01*
X35730971Y-47671446D01*
X35709347Y-47661218D01*
X35688830Y-47648921D01*
X35669617Y-47634671D01*
X35651893Y-47618607D01*
X35635829Y-47600883D01*
X35621579Y-47581670D01*
X35609282Y-47561153D01*
X35599054Y-47539529D01*
X35590996Y-47517007D01*
X35585184Y-47493803D01*
X35581674Y-47470142D01*
X35580500Y-47446250D01*
X35580500Y-46533750D01*
X35581674Y-46509858D01*
X35585184Y-46486197D01*
X35590996Y-46462993D01*
X35599054Y-46440471D01*
X35609282Y-46418847D01*
X35621579Y-46398330D01*
X35635829Y-46379117D01*
X35651893Y-46361393D01*
X35669617Y-46345329D01*
X35688830Y-46331079D01*
X35709347Y-46318782D01*
X35730971Y-46308554D01*
X35753493Y-46300496D01*
X35776697Y-46294684D01*
X35800358Y-46291174D01*
X35824250Y-46290000D01*
X36311750Y-46290000D01*
X36335642Y-46291174D01*
X36335642Y-46291174D01*
G37*
D15*
X36068000Y-46990000D03*
D14*
G36*
X34460642Y-46291174D02*
G01*
X34484303Y-46294684D01*
X34507507Y-46300496D01*
X34530029Y-46308554D01*
X34551653Y-46318782D01*
X34572170Y-46331079D01*
X34591383Y-46345329D01*
X34609107Y-46361393D01*
X34625171Y-46379117D01*
X34639421Y-46398330D01*
X34651718Y-46418847D01*
X34661946Y-46440471D01*
X34670004Y-46462993D01*
X34675816Y-46486197D01*
X34679326Y-46509858D01*
X34680500Y-46533750D01*
X34680500Y-47446250D01*
X34679326Y-47470142D01*
X34675816Y-47493803D01*
X34670004Y-47517007D01*
X34661946Y-47539529D01*
X34651718Y-47561153D01*
X34639421Y-47581670D01*
X34625171Y-47600883D01*
X34609107Y-47618607D01*
X34591383Y-47634671D01*
X34572170Y-47648921D01*
X34551653Y-47661218D01*
X34530029Y-47671446D01*
X34507507Y-47679504D01*
X34484303Y-47685316D01*
X34460642Y-47688826D01*
X34436750Y-47690000D01*
X33949250Y-47690000D01*
X33925358Y-47688826D01*
X33901697Y-47685316D01*
X33878493Y-47679504D01*
X33855971Y-47671446D01*
X33834347Y-47661218D01*
X33813830Y-47648921D01*
X33794617Y-47634671D01*
X33776893Y-47618607D01*
X33760829Y-47600883D01*
X33746579Y-47581670D01*
X33734282Y-47561153D01*
X33724054Y-47539529D01*
X33715996Y-47517007D01*
X33710184Y-47493803D01*
X33706674Y-47470142D01*
X33705500Y-47446250D01*
X33705500Y-46533750D01*
X33706674Y-46509858D01*
X33710184Y-46486197D01*
X33715996Y-46462993D01*
X33724054Y-46440471D01*
X33734282Y-46418847D01*
X33746579Y-46398330D01*
X33760829Y-46379117D01*
X33776893Y-46361393D01*
X33794617Y-46345329D01*
X33813830Y-46331079D01*
X33834347Y-46318782D01*
X33855971Y-46308554D01*
X33878493Y-46300496D01*
X33901697Y-46294684D01*
X33925358Y-46291174D01*
X33949250Y-46290000D01*
X34436750Y-46290000D01*
X34460642Y-46291174D01*
X34460642Y-46291174D01*
G37*
D15*
X34193000Y-46990000D03*
D14*
G36*
X36335642Y-50101174D02*
G01*
X36359303Y-50104684D01*
X36382507Y-50110496D01*
X36405029Y-50118554D01*
X36426653Y-50128782D01*
X36447170Y-50141079D01*
X36466383Y-50155329D01*
X36484107Y-50171393D01*
X36500171Y-50189117D01*
X36514421Y-50208330D01*
X36526718Y-50228847D01*
X36536946Y-50250471D01*
X36545004Y-50272993D01*
X36550816Y-50296197D01*
X36554326Y-50319858D01*
X36555500Y-50343750D01*
X36555500Y-51256250D01*
X36554326Y-51280142D01*
X36550816Y-51303803D01*
X36545004Y-51327007D01*
X36536946Y-51349529D01*
X36526718Y-51371153D01*
X36514421Y-51391670D01*
X36500171Y-51410883D01*
X36484107Y-51428607D01*
X36466383Y-51444671D01*
X36447170Y-51458921D01*
X36426653Y-51471218D01*
X36405029Y-51481446D01*
X36382507Y-51489504D01*
X36359303Y-51495316D01*
X36335642Y-51498826D01*
X36311750Y-51500000D01*
X35824250Y-51500000D01*
X35800358Y-51498826D01*
X35776697Y-51495316D01*
X35753493Y-51489504D01*
X35730971Y-51481446D01*
X35709347Y-51471218D01*
X35688830Y-51458921D01*
X35669617Y-51444671D01*
X35651893Y-51428607D01*
X35635829Y-51410883D01*
X35621579Y-51391670D01*
X35609282Y-51371153D01*
X35599054Y-51349529D01*
X35590996Y-51327007D01*
X35585184Y-51303803D01*
X35581674Y-51280142D01*
X35580500Y-51256250D01*
X35580500Y-50343750D01*
X35581674Y-50319858D01*
X35585184Y-50296197D01*
X35590996Y-50272993D01*
X35599054Y-50250471D01*
X35609282Y-50228847D01*
X35621579Y-50208330D01*
X35635829Y-50189117D01*
X35651893Y-50171393D01*
X35669617Y-50155329D01*
X35688830Y-50141079D01*
X35709347Y-50128782D01*
X35730971Y-50118554D01*
X35753493Y-50110496D01*
X35776697Y-50104684D01*
X35800358Y-50101174D01*
X35824250Y-50100000D01*
X36311750Y-50100000D01*
X36335642Y-50101174D01*
X36335642Y-50101174D01*
G37*
D15*
X36068000Y-50800000D03*
D14*
G36*
X34460642Y-50101174D02*
G01*
X34484303Y-50104684D01*
X34507507Y-50110496D01*
X34530029Y-50118554D01*
X34551653Y-50128782D01*
X34572170Y-50141079D01*
X34591383Y-50155329D01*
X34609107Y-50171393D01*
X34625171Y-50189117D01*
X34639421Y-50208330D01*
X34651718Y-50228847D01*
X34661946Y-50250471D01*
X34670004Y-50272993D01*
X34675816Y-50296197D01*
X34679326Y-50319858D01*
X34680500Y-50343750D01*
X34680500Y-51256250D01*
X34679326Y-51280142D01*
X34675816Y-51303803D01*
X34670004Y-51327007D01*
X34661946Y-51349529D01*
X34651718Y-51371153D01*
X34639421Y-51391670D01*
X34625171Y-51410883D01*
X34609107Y-51428607D01*
X34591383Y-51444671D01*
X34572170Y-51458921D01*
X34551653Y-51471218D01*
X34530029Y-51481446D01*
X34507507Y-51489504D01*
X34484303Y-51495316D01*
X34460642Y-51498826D01*
X34436750Y-51500000D01*
X33949250Y-51500000D01*
X33925358Y-51498826D01*
X33901697Y-51495316D01*
X33878493Y-51489504D01*
X33855971Y-51481446D01*
X33834347Y-51471218D01*
X33813830Y-51458921D01*
X33794617Y-51444671D01*
X33776893Y-51428607D01*
X33760829Y-51410883D01*
X33746579Y-51391670D01*
X33734282Y-51371153D01*
X33724054Y-51349529D01*
X33715996Y-51327007D01*
X33710184Y-51303803D01*
X33706674Y-51280142D01*
X33705500Y-51256250D01*
X33705500Y-50343750D01*
X33706674Y-50319858D01*
X33710184Y-50296197D01*
X33715996Y-50272993D01*
X33724054Y-50250471D01*
X33734282Y-50228847D01*
X33746579Y-50208330D01*
X33760829Y-50189117D01*
X33776893Y-50171393D01*
X33794617Y-50155329D01*
X33813830Y-50141079D01*
X33834347Y-50128782D01*
X33855971Y-50118554D01*
X33878493Y-50110496D01*
X33901697Y-50104684D01*
X33925358Y-50101174D01*
X33949250Y-50100000D01*
X34436750Y-50100000D01*
X34460642Y-50101174D01*
X34460642Y-50101174D01*
G37*
D15*
X34193000Y-50800000D03*
D14*
G36*
X47003642Y-53911174D02*
G01*
X47027303Y-53914684D01*
X47050507Y-53920496D01*
X47073029Y-53928554D01*
X47094653Y-53938782D01*
X47115170Y-53951079D01*
X47134383Y-53965329D01*
X47152107Y-53981393D01*
X47168171Y-53999117D01*
X47182421Y-54018330D01*
X47194718Y-54038847D01*
X47204946Y-54060471D01*
X47213004Y-54082993D01*
X47218816Y-54106197D01*
X47222326Y-54129858D01*
X47223500Y-54153750D01*
X47223500Y-55066250D01*
X47222326Y-55090142D01*
X47218816Y-55113803D01*
X47213004Y-55137007D01*
X47204946Y-55159529D01*
X47194718Y-55181153D01*
X47182421Y-55201670D01*
X47168171Y-55220883D01*
X47152107Y-55238607D01*
X47134383Y-55254671D01*
X47115170Y-55268921D01*
X47094653Y-55281218D01*
X47073029Y-55291446D01*
X47050507Y-55299504D01*
X47027303Y-55305316D01*
X47003642Y-55308826D01*
X46979750Y-55310000D01*
X46492250Y-55310000D01*
X46468358Y-55308826D01*
X46444697Y-55305316D01*
X46421493Y-55299504D01*
X46398971Y-55291446D01*
X46377347Y-55281218D01*
X46356830Y-55268921D01*
X46337617Y-55254671D01*
X46319893Y-55238607D01*
X46303829Y-55220883D01*
X46289579Y-55201670D01*
X46277282Y-55181153D01*
X46267054Y-55159529D01*
X46258996Y-55137007D01*
X46253184Y-55113803D01*
X46249674Y-55090142D01*
X46248500Y-55066250D01*
X46248500Y-54153750D01*
X46249674Y-54129858D01*
X46253184Y-54106197D01*
X46258996Y-54082993D01*
X46267054Y-54060471D01*
X46277282Y-54038847D01*
X46289579Y-54018330D01*
X46303829Y-53999117D01*
X46319893Y-53981393D01*
X46337617Y-53965329D01*
X46356830Y-53951079D01*
X46377347Y-53938782D01*
X46398971Y-53928554D01*
X46421493Y-53920496D01*
X46444697Y-53914684D01*
X46468358Y-53911174D01*
X46492250Y-53910000D01*
X46979750Y-53910000D01*
X47003642Y-53911174D01*
X47003642Y-53911174D01*
G37*
D15*
X46736000Y-54610000D03*
D14*
G36*
X45128642Y-53911174D02*
G01*
X45152303Y-53914684D01*
X45175507Y-53920496D01*
X45198029Y-53928554D01*
X45219653Y-53938782D01*
X45240170Y-53951079D01*
X45259383Y-53965329D01*
X45277107Y-53981393D01*
X45293171Y-53999117D01*
X45307421Y-54018330D01*
X45319718Y-54038847D01*
X45329946Y-54060471D01*
X45338004Y-54082993D01*
X45343816Y-54106197D01*
X45347326Y-54129858D01*
X45348500Y-54153750D01*
X45348500Y-55066250D01*
X45347326Y-55090142D01*
X45343816Y-55113803D01*
X45338004Y-55137007D01*
X45329946Y-55159529D01*
X45319718Y-55181153D01*
X45307421Y-55201670D01*
X45293171Y-55220883D01*
X45277107Y-55238607D01*
X45259383Y-55254671D01*
X45240170Y-55268921D01*
X45219653Y-55281218D01*
X45198029Y-55291446D01*
X45175507Y-55299504D01*
X45152303Y-55305316D01*
X45128642Y-55308826D01*
X45104750Y-55310000D01*
X44617250Y-55310000D01*
X44593358Y-55308826D01*
X44569697Y-55305316D01*
X44546493Y-55299504D01*
X44523971Y-55291446D01*
X44502347Y-55281218D01*
X44481830Y-55268921D01*
X44462617Y-55254671D01*
X44444893Y-55238607D01*
X44428829Y-55220883D01*
X44414579Y-55201670D01*
X44402282Y-55181153D01*
X44392054Y-55159529D01*
X44383996Y-55137007D01*
X44378184Y-55113803D01*
X44374674Y-55090142D01*
X44373500Y-55066250D01*
X44373500Y-54153750D01*
X44374674Y-54129858D01*
X44378184Y-54106197D01*
X44383996Y-54082993D01*
X44392054Y-54060471D01*
X44402282Y-54038847D01*
X44414579Y-54018330D01*
X44428829Y-53999117D01*
X44444893Y-53981393D01*
X44462617Y-53965329D01*
X44481830Y-53951079D01*
X44502347Y-53938782D01*
X44523971Y-53928554D01*
X44546493Y-53920496D01*
X44569697Y-53914684D01*
X44593358Y-53911174D01*
X44617250Y-53910000D01*
X45104750Y-53910000D01*
X45128642Y-53911174D01*
X45128642Y-53911174D01*
G37*
D15*
X44861000Y-54610000D03*
D14*
G36*
X50010142Y-56663674D02*
G01*
X50033803Y-56667184D01*
X50057007Y-56672996D01*
X50079529Y-56681054D01*
X50101153Y-56691282D01*
X50121670Y-56703579D01*
X50140883Y-56717829D01*
X50158607Y-56733893D01*
X50174671Y-56751617D01*
X50188921Y-56770830D01*
X50201218Y-56791347D01*
X50211446Y-56812971D01*
X50219504Y-56835493D01*
X50225316Y-56858697D01*
X50228826Y-56882358D01*
X50230000Y-56906250D01*
X50230000Y-57393750D01*
X50228826Y-57417642D01*
X50225316Y-57441303D01*
X50219504Y-57464507D01*
X50211446Y-57487029D01*
X50201218Y-57508653D01*
X50188921Y-57529170D01*
X50174671Y-57548383D01*
X50158607Y-57566107D01*
X50140883Y-57582171D01*
X50121670Y-57596421D01*
X50101153Y-57608718D01*
X50079529Y-57618946D01*
X50057007Y-57627004D01*
X50033803Y-57632816D01*
X50010142Y-57636326D01*
X49986250Y-57637500D01*
X49073750Y-57637500D01*
X49049858Y-57636326D01*
X49026197Y-57632816D01*
X49002993Y-57627004D01*
X48980471Y-57618946D01*
X48958847Y-57608718D01*
X48938330Y-57596421D01*
X48919117Y-57582171D01*
X48901393Y-57566107D01*
X48885329Y-57548383D01*
X48871079Y-57529170D01*
X48858782Y-57508653D01*
X48848554Y-57487029D01*
X48840496Y-57464507D01*
X48834684Y-57441303D01*
X48831174Y-57417642D01*
X48830000Y-57393750D01*
X48830000Y-56906250D01*
X48831174Y-56882358D01*
X48834684Y-56858697D01*
X48840496Y-56835493D01*
X48848554Y-56812971D01*
X48858782Y-56791347D01*
X48871079Y-56770830D01*
X48885329Y-56751617D01*
X48901393Y-56733893D01*
X48919117Y-56717829D01*
X48938330Y-56703579D01*
X48958847Y-56691282D01*
X48980471Y-56681054D01*
X49002993Y-56672996D01*
X49026197Y-56667184D01*
X49049858Y-56663674D01*
X49073750Y-56662500D01*
X49986250Y-56662500D01*
X50010142Y-56663674D01*
X50010142Y-56663674D01*
G37*
D15*
X49530000Y-57150000D03*
D14*
G36*
X50010142Y-54788674D02*
G01*
X50033803Y-54792184D01*
X50057007Y-54797996D01*
X50079529Y-54806054D01*
X50101153Y-54816282D01*
X50121670Y-54828579D01*
X50140883Y-54842829D01*
X50158607Y-54858893D01*
X50174671Y-54876617D01*
X50188921Y-54895830D01*
X50201218Y-54916347D01*
X50211446Y-54937971D01*
X50219504Y-54960493D01*
X50225316Y-54983697D01*
X50228826Y-55007358D01*
X50230000Y-55031250D01*
X50230000Y-55518750D01*
X50228826Y-55542642D01*
X50225316Y-55566303D01*
X50219504Y-55589507D01*
X50211446Y-55612029D01*
X50201218Y-55633653D01*
X50188921Y-55654170D01*
X50174671Y-55673383D01*
X50158607Y-55691107D01*
X50140883Y-55707171D01*
X50121670Y-55721421D01*
X50101153Y-55733718D01*
X50079529Y-55743946D01*
X50057007Y-55752004D01*
X50033803Y-55757816D01*
X50010142Y-55761326D01*
X49986250Y-55762500D01*
X49073750Y-55762500D01*
X49049858Y-55761326D01*
X49026197Y-55757816D01*
X49002993Y-55752004D01*
X48980471Y-55743946D01*
X48958847Y-55733718D01*
X48938330Y-55721421D01*
X48919117Y-55707171D01*
X48901393Y-55691107D01*
X48885329Y-55673383D01*
X48871079Y-55654170D01*
X48858782Y-55633653D01*
X48848554Y-55612029D01*
X48840496Y-55589507D01*
X48834684Y-55566303D01*
X48831174Y-55542642D01*
X48830000Y-55518750D01*
X48830000Y-55031250D01*
X48831174Y-55007358D01*
X48834684Y-54983697D01*
X48840496Y-54960493D01*
X48848554Y-54937971D01*
X48858782Y-54916347D01*
X48871079Y-54895830D01*
X48885329Y-54876617D01*
X48901393Y-54858893D01*
X48919117Y-54842829D01*
X48938330Y-54828579D01*
X48958847Y-54816282D01*
X48980471Y-54806054D01*
X49002993Y-54797996D01*
X49026197Y-54792184D01*
X49049858Y-54788674D01*
X49073750Y-54787500D01*
X49986250Y-54787500D01*
X50010142Y-54788674D01*
X50010142Y-54788674D01*
G37*
D15*
X49530000Y-55275000D03*
D14*
G36*
X50010142Y-48027674D02*
G01*
X50033803Y-48031184D01*
X50057007Y-48036996D01*
X50079529Y-48045054D01*
X50101153Y-48055282D01*
X50121670Y-48067579D01*
X50140883Y-48081829D01*
X50158607Y-48097893D01*
X50174671Y-48115617D01*
X50188921Y-48134830D01*
X50201218Y-48155347D01*
X50211446Y-48176971D01*
X50219504Y-48199493D01*
X50225316Y-48222697D01*
X50228826Y-48246358D01*
X50230000Y-48270250D01*
X50230000Y-48757750D01*
X50228826Y-48781642D01*
X50225316Y-48805303D01*
X50219504Y-48828507D01*
X50211446Y-48851029D01*
X50201218Y-48872653D01*
X50188921Y-48893170D01*
X50174671Y-48912383D01*
X50158607Y-48930107D01*
X50140883Y-48946171D01*
X50121670Y-48960421D01*
X50101153Y-48972718D01*
X50079529Y-48982946D01*
X50057007Y-48991004D01*
X50033803Y-48996816D01*
X50010142Y-49000326D01*
X49986250Y-49001500D01*
X49073750Y-49001500D01*
X49049858Y-49000326D01*
X49026197Y-48996816D01*
X49002993Y-48991004D01*
X48980471Y-48982946D01*
X48958847Y-48972718D01*
X48938330Y-48960421D01*
X48919117Y-48946171D01*
X48901393Y-48930107D01*
X48885329Y-48912383D01*
X48871079Y-48893170D01*
X48858782Y-48872653D01*
X48848554Y-48851029D01*
X48840496Y-48828507D01*
X48834684Y-48805303D01*
X48831174Y-48781642D01*
X48830000Y-48757750D01*
X48830000Y-48270250D01*
X48831174Y-48246358D01*
X48834684Y-48222697D01*
X48840496Y-48199493D01*
X48848554Y-48176971D01*
X48858782Y-48155347D01*
X48871079Y-48134830D01*
X48885329Y-48115617D01*
X48901393Y-48097893D01*
X48919117Y-48081829D01*
X48938330Y-48067579D01*
X48958847Y-48055282D01*
X48980471Y-48045054D01*
X49002993Y-48036996D01*
X49026197Y-48031184D01*
X49049858Y-48027674D01*
X49073750Y-48026500D01*
X49986250Y-48026500D01*
X50010142Y-48027674D01*
X50010142Y-48027674D01*
G37*
D15*
X49530000Y-48514000D03*
D14*
G36*
X50010142Y-46152674D02*
G01*
X50033803Y-46156184D01*
X50057007Y-46161996D01*
X50079529Y-46170054D01*
X50101153Y-46180282D01*
X50121670Y-46192579D01*
X50140883Y-46206829D01*
X50158607Y-46222893D01*
X50174671Y-46240617D01*
X50188921Y-46259830D01*
X50201218Y-46280347D01*
X50211446Y-46301971D01*
X50219504Y-46324493D01*
X50225316Y-46347697D01*
X50228826Y-46371358D01*
X50230000Y-46395250D01*
X50230000Y-46882750D01*
X50228826Y-46906642D01*
X50225316Y-46930303D01*
X50219504Y-46953507D01*
X50211446Y-46976029D01*
X50201218Y-46997653D01*
X50188921Y-47018170D01*
X50174671Y-47037383D01*
X50158607Y-47055107D01*
X50140883Y-47071171D01*
X50121670Y-47085421D01*
X50101153Y-47097718D01*
X50079529Y-47107946D01*
X50057007Y-47116004D01*
X50033803Y-47121816D01*
X50010142Y-47125326D01*
X49986250Y-47126500D01*
X49073750Y-47126500D01*
X49049858Y-47125326D01*
X49026197Y-47121816D01*
X49002993Y-47116004D01*
X48980471Y-47107946D01*
X48958847Y-47097718D01*
X48938330Y-47085421D01*
X48919117Y-47071171D01*
X48901393Y-47055107D01*
X48885329Y-47037383D01*
X48871079Y-47018170D01*
X48858782Y-46997653D01*
X48848554Y-46976029D01*
X48840496Y-46953507D01*
X48834684Y-46930303D01*
X48831174Y-46906642D01*
X48830000Y-46882750D01*
X48830000Y-46395250D01*
X48831174Y-46371358D01*
X48834684Y-46347697D01*
X48840496Y-46324493D01*
X48848554Y-46301971D01*
X48858782Y-46280347D01*
X48871079Y-46259830D01*
X48885329Y-46240617D01*
X48901393Y-46222893D01*
X48919117Y-46206829D01*
X48938330Y-46192579D01*
X48958847Y-46180282D01*
X48980471Y-46170054D01*
X49002993Y-46161996D01*
X49026197Y-46156184D01*
X49049858Y-46152674D01*
X49073750Y-46151500D01*
X49986250Y-46151500D01*
X50010142Y-46152674D01*
X50010142Y-46152674D01*
G37*
D15*
X49530000Y-46639000D03*
D14*
G36*
X54582142Y-52950674D02*
G01*
X54605803Y-52954184D01*
X54629007Y-52959996D01*
X54651529Y-52968054D01*
X54673153Y-52978282D01*
X54693670Y-52990579D01*
X54712883Y-53004829D01*
X54730607Y-53020893D01*
X54746671Y-53038617D01*
X54760921Y-53057830D01*
X54773218Y-53078347D01*
X54783446Y-53099971D01*
X54791504Y-53122493D01*
X54797316Y-53145697D01*
X54800826Y-53169358D01*
X54802000Y-53193250D01*
X54802000Y-53680750D01*
X54800826Y-53704642D01*
X54797316Y-53728303D01*
X54791504Y-53751507D01*
X54783446Y-53774029D01*
X54773218Y-53795653D01*
X54760921Y-53816170D01*
X54746671Y-53835383D01*
X54730607Y-53853107D01*
X54712883Y-53869171D01*
X54693670Y-53883421D01*
X54673153Y-53895718D01*
X54651529Y-53905946D01*
X54629007Y-53914004D01*
X54605803Y-53919816D01*
X54582142Y-53923326D01*
X54558250Y-53924500D01*
X53645750Y-53924500D01*
X53621858Y-53923326D01*
X53598197Y-53919816D01*
X53574993Y-53914004D01*
X53552471Y-53905946D01*
X53530847Y-53895718D01*
X53510330Y-53883421D01*
X53491117Y-53869171D01*
X53473393Y-53853107D01*
X53457329Y-53835383D01*
X53443079Y-53816170D01*
X53430782Y-53795653D01*
X53420554Y-53774029D01*
X53412496Y-53751507D01*
X53406684Y-53728303D01*
X53403174Y-53704642D01*
X53402000Y-53680750D01*
X53402000Y-53193250D01*
X53403174Y-53169358D01*
X53406684Y-53145697D01*
X53412496Y-53122493D01*
X53420554Y-53099971D01*
X53430782Y-53078347D01*
X53443079Y-53057830D01*
X53457329Y-53038617D01*
X53473393Y-53020893D01*
X53491117Y-53004829D01*
X53510330Y-52990579D01*
X53530847Y-52978282D01*
X53552471Y-52968054D01*
X53574993Y-52959996D01*
X53598197Y-52954184D01*
X53621858Y-52950674D01*
X53645750Y-52949500D01*
X54558250Y-52949500D01*
X54582142Y-52950674D01*
X54582142Y-52950674D01*
G37*
D15*
X54102000Y-53437000D03*
D14*
G36*
X54582142Y-51075674D02*
G01*
X54605803Y-51079184D01*
X54629007Y-51084996D01*
X54651529Y-51093054D01*
X54673153Y-51103282D01*
X54693670Y-51115579D01*
X54712883Y-51129829D01*
X54730607Y-51145893D01*
X54746671Y-51163617D01*
X54760921Y-51182830D01*
X54773218Y-51203347D01*
X54783446Y-51224971D01*
X54791504Y-51247493D01*
X54797316Y-51270697D01*
X54800826Y-51294358D01*
X54802000Y-51318250D01*
X54802000Y-51805750D01*
X54800826Y-51829642D01*
X54797316Y-51853303D01*
X54791504Y-51876507D01*
X54783446Y-51899029D01*
X54773218Y-51920653D01*
X54760921Y-51941170D01*
X54746671Y-51960383D01*
X54730607Y-51978107D01*
X54712883Y-51994171D01*
X54693670Y-52008421D01*
X54673153Y-52020718D01*
X54651529Y-52030946D01*
X54629007Y-52039004D01*
X54605803Y-52044816D01*
X54582142Y-52048326D01*
X54558250Y-52049500D01*
X53645750Y-52049500D01*
X53621858Y-52048326D01*
X53598197Y-52044816D01*
X53574993Y-52039004D01*
X53552471Y-52030946D01*
X53530847Y-52020718D01*
X53510330Y-52008421D01*
X53491117Y-51994171D01*
X53473393Y-51978107D01*
X53457329Y-51960383D01*
X53443079Y-51941170D01*
X53430782Y-51920653D01*
X53420554Y-51899029D01*
X53412496Y-51876507D01*
X53406684Y-51853303D01*
X53403174Y-51829642D01*
X53402000Y-51805750D01*
X53402000Y-51318250D01*
X53403174Y-51294358D01*
X53406684Y-51270697D01*
X53412496Y-51247493D01*
X53420554Y-51224971D01*
X53430782Y-51203347D01*
X53443079Y-51182830D01*
X53457329Y-51163617D01*
X53473393Y-51145893D01*
X53491117Y-51129829D01*
X53510330Y-51115579D01*
X53530847Y-51103282D01*
X53552471Y-51093054D01*
X53574993Y-51084996D01*
X53598197Y-51079184D01*
X53621858Y-51075674D01*
X53645750Y-51074500D01*
X54558250Y-51074500D01*
X54582142Y-51075674D01*
X54582142Y-51075674D01*
G37*
D15*
X54102000Y-51562000D03*
D14*
G36*
X50010142Y-52950674D02*
G01*
X50033803Y-52954184D01*
X50057007Y-52959996D01*
X50079529Y-52968054D01*
X50101153Y-52978282D01*
X50121670Y-52990579D01*
X50140883Y-53004829D01*
X50158607Y-53020893D01*
X50174671Y-53038617D01*
X50188921Y-53057830D01*
X50201218Y-53078347D01*
X50211446Y-53099971D01*
X50219504Y-53122493D01*
X50225316Y-53145697D01*
X50228826Y-53169358D01*
X50230000Y-53193250D01*
X50230000Y-53680750D01*
X50228826Y-53704642D01*
X50225316Y-53728303D01*
X50219504Y-53751507D01*
X50211446Y-53774029D01*
X50201218Y-53795653D01*
X50188921Y-53816170D01*
X50174671Y-53835383D01*
X50158607Y-53853107D01*
X50140883Y-53869171D01*
X50121670Y-53883421D01*
X50101153Y-53895718D01*
X50079529Y-53905946D01*
X50057007Y-53914004D01*
X50033803Y-53919816D01*
X50010142Y-53923326D01*
X49986250Y-53924500D01*
X49073750Y-53924500D01*
X49049858Y-53923326D01*
X49026197Y-53919816D01*
X49002993Y-53914004D01*
X48980471Y-53905946D01*
X48958847Y-53895718D01*
X48938330Y-53883421D01*
X48919117Y-53869171D01*
X48901393Y-53853107D01*
X48885329Y-53835383D01*
X48871079Y-53816170D01*
X48858782Y-53795653D01*
X48848554Y-53774029D01*
X48840496Y-53751507D01*
X48834684Y-53728303D01*
X48831174Y-53704642D01*
X48830000Y-53680750D01*
X48830000Y-53193250D01*
X48831174Y-53169358D01*
X48834684Y-53145697D01*
X48840496Y-53122493D01*
X48848554Y-53099971D01*
X48858782Y-53078347D01*
X48871079Y-53057830D01*
X48885329Y-53038617D01*
X48901393Y-53020893D01*
X48919117Y-53004829D01*
X48938330Y-52990579D01*
X48958847Y-52978282D01*
X48980471Y-52968054D01*
X49002993Y-52959996D01*
X49026197Y-52954184D01*
X49049858Y-52950674D01*
X49073750Y-52949500D01*
X49986250Y-52949500D01*
X50010142Y-52950674D01*
X50010142Y-52950674D01*
G37*
D15*
X49530000Y-53437000D03*
D14*
G36*
X50010142Y-51075674D02*
G01*
X50033803Y-51079184D01*
X50057007Y-51084996D01*
X50079529Y-51093054D01*
X50101153Y-51103282D01*
X50121670Y-51115579D01*
X50140883Y-51129829D01*
X50158607Y-51145893D01*
X50174671Y-51163617D01*
X50188921Y-51182830D01*
X50201218Y-51203347D01*
X50211446Y-51224971D01*
X50219504Y-51247493D01*
X50225316Y-51270697D01*
X50228826Y-51294358D01*
X50230000Y-51318250D01*
X50230000Y-51805750D01*
X50228826Y-51829642D01*
X50225316Y-51853303D01*
X50219504Y-51876507D01*
X50211446Y-51899029D01*
X50201218Y-51920653D01*
X50188921Y-51941170D01*
X50174671Y-51960383D01*
X50158607Y-51978107D01*
X50140883Y-51994171D01*
X50121670Y-52008421D01*
X50101153Y-52020718D01*
X50079529Y-52030946D01*
X50057007Y-52039004D01*
X50033803Y-52044816D01*
X50010142Y-52048326D01*
X49986250Y-52049500D01*
X49073750Y-52049500D01*
X49049858Y-52048326D01*
X49026197Y-52044816D01*
X49002993Y-52039004D01*
X48980471Y-52030946D01*
X48958847Y-52020718D01*
X48938330Y-52008421D01*
X48919117Y-51994171D01*
X48901393Y-51978107D01*
X48885329Y-51960383D01*
X48871079Y-51941170D01*
X48858782Y-51920653D01*
X48848554Y-51899029D01*
X48840496Y-51876507D01*
X48834684Y-51853303D01*
X48831174Y-51829642D01*
X48830000Y-51805750D01*
X48830000Y-51318250D01*
X48831174Y-51294358D01*
X48834684Y-51270697D01*
X48840496Y-51247493D01*
X48848554Y-51224971D01*
X48858782Y-51203347D01*
X48871079Y-51182830D01*
X48885329Y-51163617D01*
X48901393Y-51145893D01*
X48919117Y-51129829D01*
X48938330Y-51115579D01*
X48958847Y-51103282D01*
X48980471Y-51093054D01*
X49002993Y-51084996D01*
X49026197Y-51079184D01*
X49049858Y-51075674D01*
X49073750Y-51074500D01*
X49986250Y-51074500D01*
X50010142Y-51075674D01*
X50010142Y-51075674D01*
G37*
D15*
X49530000Y-51562000D03*
D14*
G36*
X54582142Y-48027674D02*
G01*
X54605803Y-48031184D01*
X54629007Y-48036996D01*
X54651529Y-48045054D01*
X54673153Y-48055282D01*
X54693670Y-48067579D01*
X54712883Y-48081829D01*
X54730607Y-48097893D01*
X54746671Y-48115617D01*
X54760921Y-48134830D01*
X54773218Y-48155347D01*
X54783446Y-48176971D01*
X54791504Y-48199493D01*
X54797316Y-48222697D01*
X54800826Y-48246358D01*
X54802000Y-48270250D01*
X54802000Y-48757750D01*
X54800826Y-48781642D01*
X54797316Y-48805303D01*
X54791504Y-48828507D01*
X54783446Y-48851029D01*
X54773218Y-48872653D01*
X54760921Y-48893170D01*
X54746671Y-48912383D01*
X54730607Y-48930107D01*
X54712883Y-48946171D01*
X54693670Y-48960421D01*
X54673153Y-48972718D01*
X54651529Y-48982946D01*
X54629007Y-48991004D01*
X54605803Y-48996816D01*
X54582142Y-49000326D01*
X54558250Y-49001500D01*
X53645750Y-49001500D01*
X53621858Y-49000326D01*
X53598197Y-48996816D01*
X53574993Y-48991004D01*
X53552471Y-48982946D01*
X53530847Y-48972718D01*
X53510330Y-48960421D01*
X53491117Y-48946171D01*
X53473393Y-48930107D01*
X53457329Y-48912383D01*
X53443079Y-48893170D01*
X53430782Y-48872653D01*
X53420554Y-48851029D01*
X53412496Y-48828507D01*
X53406684Y-48805303D01*
X53403174Y-48781642D01*
X53402000Y-48757750D01*
X53402000Y-48270250D01*
X53403174Y-48246358D01*
X53406684Y-48222697D01*
X53412496Y-48199493D01*
X53420554Y-48176971D01*
X53430782Y-48155347D01*
X53443079Y-48134830D01*
X53457329Y-48115617D01*
X53473393Y-48097893D01*
X53491117Y-48081829D01*
X53510330Y-48067579D01*
X53530847Y-48055282D01*
X53552471Y-48045054D01*
X53574993Y-48036996D01*
X53598197Y-48031184D01*
X53621858Y-48027674D01*
X53645750Y-48026500D01*
X54558250Y-48026500D01*
X54582142Y-48027674D01*
X54582142Y-48027674D01*
G37*
D15*
X54102000Y-48514000D03*
D14*
G36*
X54582142Y-46152674D02*
G01*
X54605803Y-46156184D01*
X54629007Y-46161996D01*
X54651529Y-46170054D01*
X54673153Y-46180282D01*
X54693670Y-46192579D01*
X54712883Y-46206829D01*
X54730607Y-46222893D01*
X54746671Y-46240617D01*
X54760921Y-46259830D01*
X54773218Y-46280347D01*
X54783446Y-46301971D01*
X54791504Y-46324493D01*
X54797316Y-46347697D01*
X54800826Y-46371358D01*
X54802000Y-46395250D01*
X54802000Y-46882750D01*
X54800826Y-46906642D01*
X54797316Y-46930303D01*
X54791504Y-46953507D01*
X54783446Y-46976029D01*
X54773218Y-46997653D01*
X54760921Y-47018170D01*
X54746671Y-47037383D01*
X54730607Y-47055107D01*
X54712883Y-47071171D01*
X54693670Y-47085421D01*
X54673153Y-47097718D01*
X54651529Y-47107946D01*
X54629007Y-47116004D01*
X54605803Y-47121816D01*
X54582142Y-47125326D01*
X54558250Y-47126500D01*
X53645750Y-47126500D01*
X53621858Y-47125326D01*
X53598197Y-47121816D01*
X53574993Y-47116004D01*
X53552471Y-47107946D01*
X53530847Y-47097718D01*
X53510330Y-47085421D01*
X53491117Y-47071171D01*
X53473393Y-47055107D01*
X53457329Y-47037383D01*
X53443079Y-47018170D01*
X53430782Y-46997653D01*
X53420554Y-46976029D01*
X53412496Y-46953507D01*
X53406684Y-46930303D01*
X53403174Y-46906642D01*
X53402000Y-46882750D01*
X53402000Y-46395250D01*
X53403174Y-46371358D01*
X53406684Y-46347697D01*
X53412496Y-46324493D01*
X53420554Y-46301971D01*
X53430782Y-46280347D01*
X53443079Y-46259830D01*
X53457329Y-46240617D01*
X53473393Y-46222893D01*
X53491117Y-46206829D01*
X53510330Y-46192579D01*
X53530847Y-46180282D01*
X53552471Y-46170054D01*
X53574993Y-46161996D01*
X53598197Y-46156184D01*
X53621858Y-46152674D01*
X53645750Y-46151500D01*
X54558250Y-46151500D01*
X54582142Y-46152674D01*
X54582142Y-46152674D01*
G37*
D15*
X54102000Y-46639000D03*
D14*
G36*
X52296142Y-52950674D02*
G01*
X52319803Y-52954184D01*
X52343007Y-52959996D01*
X52365529Y-52968054D01*
X52387153Y-52978282D01*
X52407670Y-52990579D01*
X52426883Y-53004829D01*
X52444607Y-53020893D01*
X52460671Y-53038617D01*
X52474921Y-53057830D01*
X52487218Y-53078347D01*
X52497446Y-53099971D01*
X52505504Y-53122493D01*
X52511316Y-53145697D01*
X52514826Y-53169358D01*
X52516000Y-53193250D01*
X52516000Y-53680750D01*
X52514826Y-53704642D01*
X52511316Y-53728303D01*
X52505504Y-53751507D01*
X52497446Y-53774029D01*
X52487218Y-53795653D01*
X52474921Y-53816170D01*
X52460671Y-53835383D01*
X52444607Y-53853107D01*
X52426883Y-53869171D01*
X52407670Y-53883421D01*
X52387153Y-53895718D01*
X52365529Y-53905946D01*
X52343007Y-53914004D01*
X52319803Y-53919816D01*
X52296142Y-53923326D01*
X52272250Y-53924500D01*
X51359750Y-53924500D01*
X51335858Y-53923326D01*
X51312197Y-53919816D01*
X51288993Y-53914004D01*
X51266471Y-53905946D01*
X51244847Y-53895718D01*
X51224330Y-53883421D01*
X51205117Y-53869171D01*
X51187393Y-53853107D01*
X51171329Y-53835383D01*
X51157079Y-53816170D01*
X51144782Y-53795653D01*
X51134554Y-53774029D01*
X51126496Y-53751507D01*
X51120684Y-53728303D01*
X51117174Y-53704642D01*
X51116000Y-53680750D01*
X51116000Y-53193250D01*
X51117174Y-53169358D01*
X51120684Y-53145697D01*
X51126496Y-53122493D01*
X51134554Y-53099971D01*
X51144782Y-53078347D01*
X51157079Y-53057830D01*
X51171329Y-53038617D01*
X51187393Y-53020893D01*
X51205117Y-53004829D01*
X51224330Y-52990579D01*
X51244847Y-52978282D01*
X51266471Y-52968054D01*
X51288993Y-52959996D01*
X51312197Y-52954184D01*
X51335858Y-52950674D01*
X51359750Y-52949500D01*
X52272250Y-52949500D01*
X52296142Y-52950674D01*
X52296142Y-52950674D01*
G37*
D15*
X51816000Y-53437000D03*
D14*
G36*
X52296142Y-51075674D02*
G01*
X52319803Y-51079184D01*
X52343007Y-51084996D01*
X52365529Y-51093054D01*
X52387153Y-51103282D01*
X52407670Y-51115579D01*
X52426883Y-51129829D01*
X52444607Y-51145893D01*
X52460671Y-51163617D01*
X52474921Y-51182830D01*
X52487218Y-51203347D01*
X52497446Y-51224971D01*
X52505504Y-51247493D01*
X52511316Y-51270697D01*
X52514826Y-51294358D01*
X52516000Y-51318250D01*
X52516000Y-51805750D01*
X52514826Y-51829642D01*
X52511316Y-51853303D01*
X52505504Y-51876507D01*
X52497446Y-51899029D01*
X52487218Y-51920653D01*
X52474921Y-51941170D01*
X52460671Y-51960383D01*
X52444607Y-51978107D01*
X52426883Y-51994171D01*
X52407670Y-52008421D01*
X52387153Y-52020718D01*
X52365529Y-52030946D01*
X52343007Y-52039004D01*
X52319803Y-52044816D01*
X52296142Y-52048326D01*
X52272250Y-52049500D01*
X51359750Y-52049500D01*
X51335858Y-52048326D01*
X51312197Y-52044816D01*
X51288993Y-52039004D01*
X51266471Y-52030946D01*
X51244847Y-52020718D01*
X51224330Y-52008421D01*
X51205117Y-51994171D01*
X51187393Y-51978107D01*
X51171329Y-51960383D01*
X51157079Y-51941170D01*
X51144782Y-51920653D01*
X51134554Y-51899029D01*
X51126496Y-51876507D01*
X51120684Y-51853303D01*
X51117174Y-51829642D01*
X51116000Y-51805750D01*
X51116000Y-51318250D01*
X51117174Y-51294358D01*
X51120684Y-51270697D01*
X51126496Y-51247493D01*
X51134554Y-51224971D01*
X51144782Y-51203347D01*
X51157079Y-51182830D01*
X51171329Y-51163617D01*
X51187393Y-51145893D01*
X51205117Y-51129829D01*
X51224330Y-51115579D01*
X51244847Y-51103282D01*
X51266471Y-51093054D01*
X51288993Y-51084996D01*
X51312197Y-51079184D01*
X51335858Y-51075674D01*
X51359750Y-51074500D01*
X52272250Y-51074500D01*
X52296142Y-51075674D01*
X52296142Y-51075674D01*
G37*
D15*
X51816000Y-51562000D03*
D14*
G36*
X52296142Y-42693674D02*
G01*
X52319803Y-42697184D01*
X52343007Y-42702996D01*
X52365529Y-42711054D01*
X52387153Y-42721282D01*
X52407670Y-42733579D01*
X52426883Y-42747829D01*
X52444607Y-42763893D01*
X52460671Y-42781617D01*
X52474921Y-42800830D01*
X52487218Y-42821347D01*
X52497446Y-42842971D01*
X52505504Y-42865493D01*
X52511316Y-42888697D01*
X52514826Y-42912358D01*
X52516000Y-42936250D01*
X52516000Y-43423750D01*
X52514826Y-43447642D01*
X52511316Y-43471303D01*
X52505504Y-43494507D01*
X52497446Y-43517029D01*
X52487218Y-43538653D01*
X52474921Y-43559170D01*
X52460671Y-43578383D01*
X52444607Y-43596107D01*
X52426883Y-43612171D01*
X52407670Y-43626421D01*
X52387153Y-43638718D01*
X52365529Y-43648946D01*
X52343007Y-43657004D01*
X52319803Y-43662816D01*
X52296142Y-43666326D01*
X52272250Y-43667500D01*
X51359750Y-43667500D01*
X51335858Y-43666326D01*
X51312197Y-43662816D01*
X51288993Y-43657004D01*
X51266471Y-43648946D01*
X51244847Y-43638718D01*
X51224330Y-43626421D01*
X51205117Y-43612171D01*
X51187393Y-43596107D01*
X51171329Y-43578383D01*
X51157079Y-43559170D01*
X51144782Y-43538653D01*
X51134554Y-43517029D01*
X51126496Y-43494507D01*
X51120684Y-43471303D01*
X51117174Y-43447642D01*
X51116000Y-43423750D01*
X51116000Y-42936250D01*
X51117174Y-42912358D01*
X51120684Y-42888697D01*
X51126496Y-42865493D01*
X51134554Y-42842971D01*
X51144782Y-42821347D01*
X51157079Y-42800830D01*
X51171329Y-42781617D01*
X51187393Y-42763893D01*
X51205117Y-42747829D01*
X51224330Y-42733579D01*
X51244847Y-42721282D01*
X51266471Y-42711054D01*
X51288993Y-42702996D01*
X51312197Y-42697184D01*
X51335858Y-42693674D01*
X51359750Y-42692500D01*
X52272250Y-42692500D01*
X52296142Y-42693674D01*
X52296142Y-42693674D01*
G37*
D15*
X51816000Y-43180000D03*
D14*
G36*
X52296142Y-40818674D02*
G01*
X52319803Y-40822184D01*
X52343007Y-40827996D01*
X52365529Y-40836054D01*
X52387153Y-40846282D01*
X52407670Y-40858579D01*
X52426883Y-40872829D01*
X52444607Y-40888893D01*
X52460671Y-40906617D01*
X52474921Y-40925830D01*
X52487218Y-40946347D01*
X52497446Y-40967971D01*
X52505504Y-40990493D01*
X52511316Y-41013697D01*
X52514826Y-41037358D01*
X52516000Y-41061250D01*
X52516000Y-41548750D01*
X52514826Y-41572642D01*
X52511316Y-41596303D01*
X52505504Y-41619507D01*
X52497446Y-41642029D01*
X52487218Y-41663653D01*
X52474921Y-41684170D01*
X52460671Y-41703383D01*
X52444607Y-41721107D01*
X52426883Y-41737171D01*
X52407670Y-41751421D01*
X52387153Y-41763718D01*
X52365529Y-41773946D01*
X52343007Y-41782004D01*
X52319803Y-41787816D01*
X52296142Y-41791326D01*
X52272250Y-41792500D01*
X51359750Y-41792500D01*
X51335858Y-41791326D01*
X51312197Y-41787816D01*
X51288993Y-41782004D01*
X51266471Y-41773946D01*
X51244847Y-41763718D01*
X51224330Y-41751421D01*
X51205117Y-41737171D01*
X51187393Y-41721107D01*
X51171329Y-41703383D01*
X51157079Y-41684170D01*
X51144782Y-41663653D01*
X51134554Y-41642029D01*
X51126496Y-41619507D01*
X51120684Y-41596303D01*
X51117174Y-41572642D01*
X51116000Y-41548750D01*
X51116000Y-41061250D01*
X51117174Y-41037358D01*
X51120684Y-41013697D01*
X51126496Y-40990493D01*
X51134554Y-40967971D01*
X51144782Y-40946347D01*
X51157079Y-40925830D01*
X51171329Y-40906617D01*
X51187393Y-40888893D01*
X51205117Y-40872829D01*
X51224330Y-40858579D01*
X51244847Y-40846282D01*
X51266471Y-40836054D01*
X51288993Y-40827996D01*
X51312197Y-40822184D01*
X51335858Y-40818674D01*
X51359750Y-40817500D01*
X52272250Y-40817500D01*
X52296142Y-40818674D01*
X52296142Y-40818674D01*
G37*
D15*
X51816000Y-41305000D03*
D14*
G36*
X52296142Y-46152674D02*
G01*
X52319803Y-46156184D01*
X52343007Y-46161996D01*
X52365529Y-46170054D01*
X52387153Y-46180282D01*
X52407670Y-46192579D01*
X52426883Y-46206829D01*
X52444607Y-46222893D01*
X52460671Y-46240617D01*
X52474921Y-46259830D01*
X52487218Y-46280347D01*
X52497446Y-46301971D01*
X52505504Y-46324493D01*
X52511316Y-46347697D01*
X52514826Y-46371358D01*
X52516000Y-46395250D01*
X52516000Y-46882750D01*
X52514826Y-46906642D01*
X52511316Y-46930303D01*
X52505504Y-46953507D01*
X52497446Y-46976029D01*
X52487218Y-46997653D01*
X52474921Y-47018170D01*
X52460671Y-47037383D01*
X52444607Y-47055107D01*
X52426883Y-47071171D01*
X52407670Y-47085421D01*
X52387153Y-47097718D01*
X52365529Y-47107946D01*
X52343007Y-47116004D01*
X52319803Y-47121816D01*
X52296142Y-47125326D01*
X52272250Y-47126500D01*
X51359750Y-47126500D01*
X51335858Y-47125326D01*
X51312197Y-47121816D01*
X51288993Y-47116004D01*
X51266471Y-47107946D01*
X51244847Y-47097718D01*
X51224330Y-47085421D01*
X51205117Y-47071171D01*
X51187393Y-47055107D01*
X51171329Y-47037383D01*
X51157079Y-47018170D01*
X51144782Y-46997653D01*
X51134554Y-46976029D01*
X51126496Y-46953507D01*
X51120684Y-46930303D01*
X51117174Y-46906642D01*
X51116000Y-46882750D01*
X51116000Y-46395250D01*
X51117174Y-46371358D01*
X51120684Y-46347697D01*
X51126496Y-46324493D01*
X51134554Y-46301971D01*
X51144782Y-46280347D01*
X51157079Y-46259830D01*
X51171329Y-46240617D01*
X51187393Y-46222893D01*
X51205117Y-46206829D01*
X51224330Y-46192579D01*
X51244847Y-46180282D01*
X51266471Y-46170054D01*
X51288993Y-46161996D01*
X51312197Y-46156184D01*
X51335858Y-46152674D01*
X51359750Y-46151500D01*
X52272250Y-46151500D01*
X52296142Y-46152674D01*
X52296142Y-46152674D01*
G37*
D15*
X51816000Y-46639000D03*
D14*
G36*
X52296142Y-48027674D02*
G01*
X52319803Y-48031184D01*
X52343007Y-48036996D01*
X52365529Y-48045054D01*
X52387153Y-48055282D01*
X52407670Y-48067579D01*
X52426883Y-48081829D01*
X52444607Y-48097893D01*
X52460671Y-48115617D01*
X52474921Y-48134830D01*
X52487218Y-48155347D01*
X52497446Y-48176971D01*
X52505504Y-48199493D01*
X52511316Y-48222697D01*
X52514826Y-48246358D01*
X52516000Y-48270250D01*
X52516000Y-48757750D01*
X52514826Y-48781642D01*
X52511316Y-48805303D01*
X52505504Y-48828507D01*
X52497446Y-48851029D01*
X52487218Y-48872653D01*
X52474921Y-48893170D01*
X52460671Y-48912383D01*
X52444607Y-48930107D01*
X52426883Y-48946171D01*
X52407670Y-48960421D01*
X52387153Y-48972718D01*
X52365529Y-48982946D01*
X52343007Y-48991004D01*
X52319803Y-48996816D01*
X52296142Y-49000326D01*
X52272250Y-49001500D01*
X51359750Y-49001500D01*
X51335858Y-49000326D01*
X51312197Y-48996816D01*
X51288993Y-48991004D01*
X51266471Y-48982946D01*
X51244847Y-48972718D01*
X51224330Y-48960421D01*
X51205117Y-48946171D01*
X51187393Y-48930107D01*
X51171329Y-48912383D01*
X51157079Y-48893170D01*
X51144782Y-48872653D01*
X51134554Y-48851029D01*
X51126496Y-48828507D01*
X51120684Y-48805303D01*
X51117174Y-48781642D01*
X51116000Y-48757750D01*
X51116000Y-48270250D01*
X51117174Y-48246358D01*
X51120684Y-48222697D01*
X51126496Y-48199493D01*
X51134554Y-48176971D01*
X51144782Y-48155347D01*
X51157079Y-48134830D01*
X51171329Y-48115617D01*
X51187393Y-48097893D01*
X51205117Y-48081829D01*
X51224330Y-48067579D01*
X51244847Y-48055282D01*
X51266471Y-48045054D01*
X51288993Y-48036996D01*
X51312197Y-48031184D01*
X51335858Y-48027674D01*
X51359750Y-48026500D01*
X52272250Y-48026500D01*
X52296142Y-48027674D01*
X52296142Y-48027674D01*
G37*
D15*
X51816000Y-48514000D03*
D14*
G36*
X54582142Y-40818674D02*
G01*
X54605803Y-40822184D01*
X54629007Y-40827996D01*
X54651529Y-40836054D01*
X54673153Y-40846282D01*
X54693670Y-40858579D01*
X54712883Y-40872829D01*
X54730607Y-40888893D01*
X54746671Y-40906617D01*
X54760921Y-40925830D01*
X54773218Y-40946347D01*
X54783446Y-40967971D01*
X54791504Y-40990493D01*
X54797316Y-41013697D01*
X54800826Y-41037358D01*
X54802000Y-41061250D01*
X54802000Y-41548750D01*
X54800826Y-41572642D01*
X54797316Y-41596303D01*
X54791504Y-41619507D01*
X54783446Y-41642029D01*
X54773218Y-41663653D01*
X54760921Y-41684170D01*
X54746671Y-41703383D01*
X54730607Y-41721107D01*
X54712883Y-41737171D01*
X54693670Y-41751421D01*
X54673153Y-41763718D01*
X54651529Y-41773946D01*
X54629007Y-41782004D01*
X54605803Y-41787816D01*
X54582142Y-41791326D01*
X54558250Y-41792500D01*
X53645750Y-41792500D01*
X53621858Y-41791326D01*
X53598197Y-41787816D01*
X53574993Y-41782004D01*
X53552471Y-41773946D01*
X53530847Y-41763718D01*
X53510330Y-41751421D01*
X53491117Y-41737171D01*
X53473393Y-41721107D01*
X53457329Y-41703383D01*
X53443079Y-41684170D01*
X53430782Y-41663653D01*
X53420554Y-41642029D01*
X53412496Y-41619507D01*
X53406684Y-41596303D01*
X53403174Y-41572642D01*
X53402000Y-41548750D01*
X53402000Y-41061250D01*
X53403174Y-41037358D01*
X53406684Y-41013697D01*
X53412496Y-40990493D01*
X53420554Y-40967971D01*
X53430782Y-40946347D01*
X53443079Y-40925830D01*
X53457329Y-40906617D01*
X53473393Y-40888893D01*
X53491117Y-40872829D01*
X53510330Y-40858579D01*
X53530847Y-40846282D01*
X53552471Y-40836054D01*
X53574993Y-40827996D01*
X53598197Y-40822184D01*
X53621858Y-40818674D01*
X53645750Y-40817500D01*
X54558250Y-40817500D01*
X54582142Y-40818674D01*
X54582142Y-40818674D01*
G37*
D15*
X54102000Y-41305000D03*
D14*
G36*
X54582142Y-42693674D02*
G01*
X54605803Y-42697184D01*
X54629007Y-42702996D01*
X54651529Y-42711054D01*
X54673153Y-42721282D01*
X54693670Y-42733579D01*
X54712883Y-42747829D01*
X54730607Y-42763893D01*
X54746671Y-42781617D01*
X54760921Y-42800830D01*
X54773218Y-42821347D01*
X54783446Y-42842971D01*
X54791504Y-42865493D01*
X54797316Y-42888697D01*
X54800826Y-42912358D01*
X54802000Y-42936250D01*
X54802000Y-43423750D01*
X54800826Y-43447642D01*
X54797316Y-43471303D01*
X54791504Y-43494507D01*
X54783446Y-43517029D01*
X54773218Y-43538653D01*
X54760921Y-43559170D01*
X54746671Y-43578383D01*
X54730607Y-43596107D01*
X54712883Y-43612171D01*
X54693670Y-43626421D01*
X54673153Y-43638718D01*
X54651529Y-43648946D01*
X54629007Y-43657004D01*
X54605803Y-43662816D01*
X54582142Y-43666326D01*
X54558250Y-43667500D01*
X53645750Y-43667500D01*
X53621858Y-43666326D01*
X53598197Y-43662816D01*
X53574993Y-43657004D01*
X53552471Y-43648946D01*
X53530847Y-43638718D01*
X53510330Y-43626421D01*
X53491117Y-43612171D01*
X53473393Y-43596107D01*
X53457329Y-43578383D01*
X53443079Y-43559170D01*
X53430782Y-43538653D01*
X53420554Y-43517029D01*
X53412496Y-43494507D01*
X53406684Y-43471303D01*
X53403174Y-43447642D01*
X53402000Y-43423750D01*
X53402000Y-42936250D01*
X53403174Y-42912358D01*
X53406684Y-42888697D01*
X53412496Y-42865493D01*
X53420554Y-42842971D01*
X53430782Y-42821347D01*
X53443079Y-42800830D01*
X53457329Y-42781617D01*
X53473393Y-42763893D01*
X53491117Y-42747829D01*
X53510330Y-42733579D01*
X53530847Y-42721282D01*
X53552471Y-42711054D01*
X53574993Y-42702996D01*
X53598197Y-42697184D01*
X53621858Y-42693674D01*
X53645750Y-42692500D01*
X54558250Y-42692500D01*
X54582142Y-42693674D01*
X54582142Y-42693674D01*
G37*
D15*
X54102000Y-43180000D03*
D14*
G36*
X28928142Y-46406674D02*
G01*
X28951803Y-46410184D01*
X28975007Y-46415996D01*
X28997529Y-46424054D01*
X29019153Y-46434282D01*
X29039670Y-46446579D01*
X29058883Y-46460829D01*
X29076607Y-46476893D01*
X29092671Y-46494617D01*
X29106921Y-46513830D01*
X29119218Y-46534347D01*
X29129446Y-46555971D01*
X29137504Y-46578493D01*
X29143316Y-46601697D01*
X29146826Y-46625358D01*
X29148000Y-46649250D01*
X29148000Y-47136750D01*
X29146826Y-47160642D01*
X29143316Y-47184303D01*
X29137504Y-47207507D01*
X29129446Y-47230029D01*
X29119218Y-47251653D01*
X29106921Y-47272170D01*
X29092671Y-47291383D01*
X29076607Y-47309107D01*
X29058883Y-47325171D01*
X29039670Y-47339421D01*
X29019153Y-47351718D01*
X28997529Y-47361946D01*
X28975007Y-47370004D01*
X28951803Y-47375816D01*
X28928142Y-47379326D01*
X28904250Y-47380500D01*
X27991750Y-47380500D01*
X27967858Y-47379326D01*
X27944197Y-47375816D01*
X27920993Y-47370004D01*
X27898471Y-47361946D01*
X27876847Y-47351718D01*
X27856330Y-47339421D01*
X27837117Y-47325171D01*
X27819393Y-47309107D01*
X27803329Y-47291383D01*
X27789079Y-47272170D01*
X27776782Y-47251653D01*
X27766554Y-47230029D01*
X27758496Y-47207507D01*
X27752684Y-47184303D01*
X27749174Y-47160642D01*
X27748000Y-47136750D01*
X27748000Y-46649250D01*
X27749174Y-46625358D01*
X27752684Y-46601697D01*
X27758496Y-46578493D01*
X27766554Y-46555971D01*
X27776782Y-46534347D01*
X27789079Y-46513830D01*
X27803329Y-46494617D01*
X27819393Y-46476893D01*
X27837117Y-46460829D01*
X27856330Y-46446579D01*
X27876847Y-46434282D01*
X27898471Y-46424054D01*
X27920993Y-46415996D01*
X27944197Y-46410184D01*
X27967858Y-46406674D01*
X27991750Y-46405500D01*
X28904250Y-46405500D01*
X28928142Y-46406674D01*
X28928142Y-46406674D01*
G37*
D15*
X28448000Y-46893000D03*
D14*
G36*
X28928142Y-48281674D02*
G01*
X28951803Y-48285184D01*
X28975007Y-48290996D01*
X28997529Y-48299054D01*
X29019153Y-48309282D01*
X29039670Y-48321579D01*
X29058883Y-48335829D01*
X29076607Y-48351893D01*
X29092671Y-48369617D01*
X29106921Y-48388830D01*
X29119218Y-48409347D01*
X29129446Y-48430971D01*
X29137504Y-48453493D01*
X29143316Y-48476697D01*
X29146826Y-48500358D01*
X29148000Y-48524250D01*
X29148000Y-49011750D01*
X29146826Y-49035642D01*
X29143316Y-49059303D01*
X29137504Y-49082507D01*
X29129446Y-49105029D01*
X29119218Y-49126653D01*
X29106921Y-49147170D01*
X29092671Y-49166383D01*
X29076607Y-49184107D01*
X29058883Y-49200171D01*
X29039670Y-49214421D01*
X29019153Y-49226718D01*
X28997529Y-49236946D01*
X28975007Y-49245004D01*
X28951803Y-49250816D01*
X28928142Y-49254326D01*
X28904250Y-49255500D01*
X27991750Y-49255500D01*
X27967858Y-49254326D01*
X27944197Y-49250816D01*
X27920993Y-49245004D01*
X27898471Y-49236946D01*
X27876847Y-49226718D01*
X27856330Y-49214421D01*
X27837117Y-49200171D01*
X27819393Y-49184107D01*
X27803329Y-49166383D01*
X27789079Y-49147170D01*
X27776782Y-49126653D01*
X27766554Y-49105029D01*
X27758496Y-49082507D01*
X27752684Y-49059303D01*
X27749174Y-49035642D01*
X27748000Y-49011750D01*
X27748000Y-48524250D01*
X27749174Y-48500358D01*
X27752684Y-48476697D01*
X27758496Y-48453493D01*
X27766554Y-48430971D01*
X27776782Y-48409347D01*
X27789079Y-48388830D01*
X27803329Y-48369617D01*
X27819393Y-48351893D01*
X27837117Y-48335829D01*
X27856330Y-48321579D01*
X27876847Y-48309282D01*
X27898471Y-48299054D01*
X27920993Y-48290996D01*
X27944197Y-48285184D01*
X27967858Y-48281674D01*
X27991750Y-48280500D01*
X28904250Y-48280500D01*
X28928142Y-48281674D01*
X28928142Y-48281674D01*
G37*
D15*
X28448000Y-48768000D03*
D14*
G36*
X46592642Y-43243174D02*
G01*
X46616303Y-43246684D01*
X46639507Y-43252496D01*
X46662029Y-43260554D01*
X46683653Y-43270782D01*
X46704170Y-43283079D01*
X46723383Y-43297329D01*
X46741107Y-43313393D01*
X46757171Y-43331117D01*
X46771421Y-43350330D01*
X46783718Y-43370847D01*
X46793946Y-43392471D01*
X46802004Y-43414993D01*
X46807816Y-43438197D01*
X46811326Y-43461858D01*
X46812500Y-43485750D01*
X46812500Y-44398250D01*
X46811326Y-44422142D01*
X46807816Y-44445803D01*
X46802004Y-44469007D01*
X46793946Y-44491529D01*
X46783718Y-44513153D01*
X46771421Y-44533670D01*
X46757171Y-44552883D01*
X46741107Y-44570607D01*
X46723383Y-44586671D01*
X46704170Y-44600921D01*
X46683653Y-44613218D01*
X46662029Y-44623446D01*
X46639507Y-44631504D01*
X46616303Y-44637316D01*
X46592642Y-44640826D01*
X46568750Y-44642000D01*
X46081250Y-44642000D01*
X46057358Y-44640826D01*
X46033697Y-44637316D01*
X46010493Y-44631504D01*
X45987971Y-44623446D01*
X45966347Y-44613218D01*
X45945830Y-44600921D01*
X45926617Y-44586671D01*
X45908893Y-44570607D01*
X45892829Y-44552883D01*
X45878579Y-44533670D01*
X45866282Y-44513153D01*
X45856054Y-44491529D01*
X45847996Y-44469007D01*
X45842184Y-44445803D01*
X45838674Y-44422142D01*
X45837500Y-44398250D01*
X45837500Y-43485750D01*
X45838674Y-43461858D01*
X45842184Y-43438197D01*
X45847996Y-43414993D01*
X45856054Y-43392471D01*
X45866282Y-43370847D01*
X45878579Y-43350330D01*
X45892829Y-43331117D01*
X45908893Y-43313393D01*
X45926617Y-43297329D01*
X45945830Y-43283079D01*
X45966347Y-43270782D01*
X45987971Y-43260554D01*
X46010493Y-43252496D01*
X46033697Y-43246684D01*
X46057358Y-43243174D01*
X46081250Y-43242000D01*
X46568750Y-43242000D01*
X46592642Y-43243174D01*
X46592642Y-43243174D01*
G37*
D15*
X46325000Y-43942000D03*
D14*
G36*
X44717642Y-43243174D02*
G01*
X44741303Y-43246684D01*
X44764507Y-43252496D01*
X44787029Y-43260554D01*
X44808653Y-43270782D01*
X44829170Y-43283079D01*
X44848383Y-43297329D01*
X44866107Y-43313393D01*
X44882171Y-43331117D01*
X44896421Y-43350330D01*
X44908718Y-43370847D01*
X44918946Y-43392471D01*
X44927004Y-43414993D01*
X44932816Y-43438197D01*
X44936326Y-43461858D01*
X44937500Y-43485750D01*
X44937500Y-44398250D01*
X44936326Y-44422142D01*
X44932816Y-44445803D01*
X44927004Y-44469007D01*
X44918946Y-44491529D01*
X44908718Y-44513153D01*
X44896421Y-44533670D01*
X44882171Y-44552883D01*
X44866107Y-44570607D01*
X44848383Y-44586671D01*
X44829170Y-44600921D01*
X44808653Y-44613218D01*
X44787029Y-44623446D01*
X44764507Y-44631504D01*
X44741303Y-44637316D01*
X44717642Y-44640826D01*
X44693750Y-44642000D01*
X44206250Y-44642000D01*
X44182358Y-44640826D01*
X44158697Y-44637316D01*
X44135493Y-44631504D01*
X44112971Y-44623446D01*
X44091347Y-44613218D01*
X44070830Y-44600921D01*
X44051617Y-44586671D01*
X44033893Y-44570607D01*
X44017829Y-44552883D01*
X44003579Y-44533670D01*
X43991282Y-44513153D01*
X43981054Y-44491529D01*
X43972996Y-44469007D01*
X43967184Y-44445803D01*
X43963674Y-44422142D01*
X43962500Y-44398250D01*
X43962500Y-43485750D01*
X43963674Y-43461858D01*
X43967184Y-43438197D01*
X43972996Y-43414993D01*
X43981054Y-43392471D01*
X43991282Y-43370847D01*
X44003579Y-43350330D01*
X44017829Y-43331117D01*
X44033893Y-43313393D01*
X44051617Y-43297329D01*
X44070830Y-43283079D01*
X44091347Y-43270782D01*
X44112971Y-43260554D01*
X44135493Y-43252496D01*
X44158697Y-43246684D01*
X44182358Y-43243174D01*
X44206250Y-43242000D01*
X44693750Y-43242000D01*
X44717642Y-43243174D01*
X44717642Y-43243174D01*
G37*
D15*
X44450000Y-43942000D03*
D16*
X27178000Y-53594000D03*
X28448000Y-53594000D03*
X29718000Y-53594000D03*
X30988000Y-53594000D03*
X32258000Y-53594000D03*
X33528000Y-53594000D03*
X34798000Y-53594000D03*
X34798000Y-58994000D03*
X33528000Y-58994000D03*
X32258000Y-58994000D03*
X30988000Y-58994000D03*
X29718000Y-58994000D03*
X28448000Y-58994000D03*
X27178000Y-58994000D03*
D17*
X44212000Y-46822000D03*
X44712000Y-46822000D03*
X45212000Y-46822000D03*
X45712000Y-46822000D03*
X46212000Y-46822000D03*
X46212000Y-51222000D03*
X45712000Y-51222000D03*
X45212000Y-51222000D03*
X44712000Y-51222000D03*
X44212000Y-51222000D03*
D14*
G36*
X40358142Y-69516074D02*
G01*
X40381803Y-69519584D01*
X40405007Y-69525396D01*
X40427529Y-69533454D01*
X40449153Y-69543682D01*
X40469670Y-69555979D01*
X40488883Y-69570229D01*
X40506607Y-69586293D01*
X40522671Y-69604017D01*
X40536921Y-69623230D01*
X40549218Y-69643747D01*
X40559446Y-69665371D01*
X40567504Y-69687893D01*
X40573316Y-69711097D01*
X40576826Y-69734758D01*
X40578000Y-69758650D01*
X40578000Y-70246150D01*
X40576826Y-70270042D01*
X40573316Y-70293703D01*
X40567504Y-70316907D01*
X40559446Y-70339429D01*
X40549218Y-70361053D01*
X40536921Y-70381570D01*
X40522671Y-70400783D01*
X40506607Y-70418507D01*
X40488883Y-70434571D01*
X40469670Y-70448821D01*
X40449153Y-70461118D01*
X40427529Y-70471346D01*
X40405007Y-70479404D01*
X40381803Y-70485216D01*
X40358142Y-70488726D01*
X40334250Y-70489900D01*
X39421750Y-70489900D01*
X39397858Y-70488726D01*
X39374197Y-70485216D01*
X39350993Y-70479404D01*
X39328471Y-70471346D01*
X39306847Y-70461118D01*
X39286330Y-70448821D01*
X39267117Y-70434571D01*
X39249393Y-70418507D01*
X39233329Y-70400783D01*
X39219079Y-70381570D01*
X39206782Y-70361053D01*
X39196554Y-70339429D01*
X39188496Y-70316907D01*
X39182684Y-70293703D01*
X39179174Y-70270042D01*
X39178000Y-70246150D01*
X39178000Y-69758650D01*
X39179174Y-69734758D01*
X39182684Y-69711097D01*
X39188496Y-69687893D01*
X39196554Y-69665371D01*
X39206782Y-69643747D01*
X39219079Y-69623230D01*
X39233329Y-69604017D01*
X39249393Y-69586293D01*
X39267117Y-69570229D01*
X39286330Y-69555979D01*
X39306847Y-69543682D01*
X39328471Y-69533454D01*
X39350993Y-69525396D01*
X39374197Y-69519584D01*
X39397858Y-69516074D01*
X39421750Y-69514900D01*
X40334250Y-69514900D01*
X40358142Y-69516074D01*
X40358142Y-69516074D01*
G37*
D15*
X39878000Y-70002400D03*
D14*
G36*
X40358142Y-71391074D02*
G01*
X40381803Y-71394584D01*
X40405007Y-71400396D01*
X40427529Y-71408454D01*
X40449153Y-71418682D01*
X40469670Y-71430979D01*
X40488883Y-71445229D01*
X40506607Y-71461293D01*
X40522671Y-71479017D01*
X40536921Y-71498230D01*
X40549218Y-71518747D01*
X40559446Y-71540371D01*
X40567504Y-71562893D01*
X40573316Y-71586097D01*
X40576826Y-71609758D01*
X40578000Y-71633650D01*
X40578000Y-72121150D01*
X40576826Y-72145042D01*
X40573316Y-72168703D01*
X40567504Y-72191907D01*
X40559446Y-72214429D01*
X40549218Y-72236053D01*
X40536921Y-72256570D01*
X40522671Y-72275783D01*
X40506607Y-72293507D01*
X40488883Y-72309571D01*
X40469670Y-72323821D01*
X40449153Y-72336118D01*
X40427529Y-72346346D01*
X40405007Y-72354404D01*
X40381803Y-72360216D01*
X40358142Y-72363726D01*
X40334250Y-72364900D01*
X39421750Y-72364900D01*
X39397858Y-72363726D01*
X39374197Y-72360216D01*
X39350993Y-72354404D01*
X39328471Y-72346346D01*
X39306847Y-72336118D01*
X39286330Y-72323821D01*
X39267117Y-72309571D01*
X39249393Y-72293507D01*
X39233329Y-72275783D01*
X39219079Y-72256570D01*
X39206782Y-72236053D01*
X39196554Y-72214429D01*
X39188496Y-72191907D01*
X39182684Y-72168703D01*
X39179174Y-72145042D01*
X39178000Y-72121150D01*
X39178000Y-71633650D01*
X39179174Y-71609758D01*
X39182684Y-71586097D01*
X39188496Y-71562893D01*
X39196554Y-71540371D01*
X39206782Y-71518747D01*
X39219079Y-71498230D01*
X39233329Y-71479017D01*
X39249393Y-71461293D01*
X39267117Y-71445229D01*
X39286330Y-71430979D01*
X39306847Y-71418682D01*
X39328471Y-71408454D01*
X39350993Y-71400396D01*
X39374197Y-71394584D01*
X39397858Y-71391074D01*
X39421750Y-71389900D01*
X40334250Y-71389900D01*
X40358142Y-71391074D01*
X40358142Y-71391074D01*
G37*
D15*
X39878000Y-71877400D03*
D18*
X35306000Y-65989200D03*
X35306000Y-61489200D03*
X43266000Y-61489200D03*
X43266000Y-65989200D03*
D19*
X26670000Y-62484000D03*
X52832000Y-60452000D03*
X47117000Y-68834000D03*
X25908000Y-49022000D03*
X54102000Y-54864000D03*
X51816000Y-54864000D03*
X49530000Y-58420000D03*
X51816000Y-44450000D03*
X49530000Y-49784000D03*
X45847000Y-53086000D03*
X25908000Y-53594000D03*
X41656000Y-67564000D03*
X33274000Y-51816000D03*
X34798000Y-45466000D03*
X30226000Y-46482000D03*
X29210000Y-70612000D03*
X44958000Y-48514000D03*
X34798000Y-55372000D03*
X35052000Y-49530000D03*
X36576000Y-58928000D03*
X30988000Y-57150000D03*
X42418002Y-49784000D03*
X45688958Y-49254143D03*
X43434000Y-54102000D03*
X44196000Y-52832000D03*
X47244000Y-48260000D03*
X38100000Y-57404000D03*
D20*
X49530000Y-55275000D02*
X48260000Y-54005000D01*
X48260000Y-52832000D02*
X49530000Y-51562000D01*
X48260000Y-54005000D02*
X48260000Y-52832000D01*
X49530000Y-51562000D02*
X51816000Y-51562000D01*
X44212000Y-44180000D02*
X44450000Y-43942000D01*
X44212000Y-46822000D02*
X44212000Y-44180000D01*
X27178000Y-58994000D02*
X27178000Y-61976000D01*
X27178000Y-61976000D02*
X26670000Y-62484000D01*
X49530000Y-55372000D02*
X52832000Y-58674000D01*
X52798000Y-60486000D02*
X52832000Y-60452000D01*
X52832000Y-58674000D02*
X52832000Y-60452000D01*
X39878000Y-71877400D02*
X44073600Y-71877400D01*
X44073600Y-71877400D02*
X47117000Y-68834000D01*
X25146000Y-60960000D02*
X26670000Y-62484000D01*
X25146000Y-57404000D02*
X25146000Y-60960000D01*
X44183298Y-49271938D02*
X44183298Y-46824902D01*
X44183298Y-46824902D02*
X44221400Y-46786800D01*
X44936672Y-50025312D02*
X44183298Y-49271938D01*
X47993312Y-50025312D02*
X44936672Y-50025312D01*
X49530000Y-51562000D02*
X47993312Y-50025312D01*
X25908000Y-49022000D02*
X23876000Y-51054000D01*
X23876000Y-56134000D02*
X25146000Y-57404000D01*
X23876000Y-51054000D02*
X23876000Y-56134000D01*
X54102000Y-53437000D02*
X54102000Y-54864000D01*
X51816000Y-53437000D02*
X51816000Y-54864000D01*
X49530000Y-57150000D02*
X49530000Y-58420000D01*
X51816000Y-43180000D02*
X51816000Y-44450000D01*
X54102000Y-53437000D02*
X49530000Y-53437000D01*
X49530000Y-48514000D02*
X49530000Y-49784000D01*
X25908000Y-53594000D02*
X27178000Y-53594000D01*
X25146000Y-55529000D02*
X25146000Y-54356000D01*
X25146000Y-54356000D02*
X25908000Y-53594000D01*
X42586000Y-65989200D02*
X42586000Y-66634000D01*
X42586000Y-66634000D02*
X41656000Y-67564000D01*
X34193000Y-50800000D02*
X34193000Y-50897000D01*
X34193000Y-50897000D02*
X33274000Y-51816000D01*
X34193000Y-46990000D02*
X34193000Y-46071000D01*
X34193000Y-46071000D02*
X34798000Y-45466000D01*
X28448000Y-46893000D02*
X29815000Y-46893000D01*
X29815000Y-46893000D02*
X30226000Y-46482000D01*
X30988000Y-70612000D02*
X29210000Y-70612000D01*
X29210000Y-70612000D02*
X27178000Y-70612000D01*
X45720000Y-51230000D02*
X45712000Y-51222000D01*
X45847000Y-53086000D02*
X45720000Y-52959000D01*
X45720000Y-52959000D02*
X45720000Y-51230000D01*
X45212000Y-48260000D02*
X44958000Y-48514000D01*
X45212000Y-46822000D02*
X45212000Y-48260000D01*
X35306000Y-65989200D02*
X43266000Y-65989200D01*
D21*
X28448000Y-58994000D02*
X28448000Y-62738000D01*
X27178000Y-64008000D02*
X27178000Y-65532000D01*
X28448000Y-62738000D02*
X27178000Y-64008000D01*
X27178000Y-65532000D02*
X27178000Y-68737000D01*
X29718000Y-58994000D02*
X29718000Y-62484000D01*
X30878000Y-63644000D02*
X30878000Y-65532000D01*
X29718000Y-62484000D02*
X30878000Y-63644000D01*
X30878000Y-68627000D02*
X30988000Y-68737000D01*
X30878000Y-65532000D02*
X30878000Y-68627000D01*
D20*
X41560600Y-47240000D02*
X40132000Y-47240000D01*
X41612531Y-47240000D02*
X41560600Y-47240000D01*
X44712000Y-50339469D02*
X41612531Y-47240000D01*
X44712000Y-51222000D02*
X44712000Y-50339469D01*
X39882000Y-46990000D02*
X40132000Y-47240000D01*
X36068000Y-46990000D02*
X39882000Y-46990000D01*
X45212000Y-52150600D02*
X45212000Y-51222000D01*
X44958000Y-52404600D02*
X45212000Y-52150600D01*
X44958000Y-54610000D02*
X44958000Y-52404600D01*
X39992000Y-50800000D02*
X40132000Y-50940000D01*
X36068000Y-50800000D02*
X39992000Y-50800000D01*
X40332000Y-50940000D02*
X40132000Y-50940000D01*
X42790701Y-53398701D02*
X40332000Y-50940000D01*
X44468017Y-53398701D02*
X42790701Y-53398701D01*
X44958000Y-52908718D02*
X44468017Y-53398701D01*
X44958000Y-52404600D02*
X44958000Y-52908718D01*
X46212000Y-52308000D02*
X46212000Y-51222000D01*
X46609000Y-52705000D02*
X46212000Y-52308000D01*
X47087000Y-54356000D02*
X46609000Y-53878000D01*
X46609000Y-53878000D02*
X46609000Y-52705000D01*
X49530000Y-46639000D02*
X51816000Y-46639000D01*
X46833000Y-43942000D02*
X46325000Y-43942000D01*
X49530000Y-46639000D02*
X46833000Y-43942000D01*
D22*
X54102000Y-48514000D02*
X51816000Y-48514000D01*
X54102000Y-48514000D02*
X54102000Y-51562000D01*
X44704000Y-45720000D02*
X44704000Y-46837600D01*
X45085000Y-45339000D02*
X44704000Y-45720000D01*
X46674028Y-45339000D02*
X45085000Y-45339000D01*
X48909228Y-47574200D02*
X46674028Y-45339000D01*
X51816000Y-48514000D02*
X50876200Y-47574200D01*
X50876200Y-47574200D02*
X48909228Y-47574200D01*
X54102000Y-43180000D02*
X54102000Y-46639000D01*
X54102000Y-43180000D02*
X54127400Y-43205400D01*
X51816000Y-41305000D02*
X54102000Y-41305000D01*
D23*
X54102000Y-40717500D02*
X54305200Y-40514300D01*
X54102000Y-41305000D02*
X54102000Y-40717500D01*
X54305200Y-40514300D02*
X54305200Y-38176200D01*
D21*
X34798000Y-55372000D02*
X34798000Y-53594000D01*
X33528000Y-53144000D02*
X33528000Y-53594000D01*
X35052000Y-51620000D02*
X33528000Y-53144000D01*
X35052000Y-49530000D02*
X35052000Y-51620000D01*
X34864000Y-58928000D02*
X34798000Y-58994000D01*
X36576000Y-58928000D02*
X34864000Y-58928000D01*
X30988000Y-57150000D02*
X30988000Y-58994000D01*
X39776400Y-70104000D02*
X39878000Y-70002400D01*
X36322000Y-70104000D02*
X39776400Y-70104000D01*
X33528000Y-67310000D02*
X36322000Y-70104000D01*
X33528000Y-64770000D02*
X33528000Y-67310000D01*
X30988000Y-58994000D02*
X30988000Y-62230000D01*
X30988000Y-62230000D02*
X33528000Y-64770000D01*
X28448000Y-53594000D02*
X28448000Y-48768000D01*
X45720000Y-46990000D02*
X45688958Y-47021042D01*
X45688958Y-47021042D02*
X45688958Y-49254143D01*
X41402002Y-48768000D02*
X28448000Y-48768000D01*
X42418002Y-49784000D02*
X41402002Y-48768000D01*
X30988000Y-54882934D02*
X30988000Y-53594000D01*
X44212000Y-51222000D02*
X44212000Y-51292000D01*
X44212000Y-51292000D02*
X44196000Y-51308000D01*
X41351200Y-56184800D02*
X32289866Y-56184800D01*
X43434000Y-54102000D02*
X41351200Y-56184800D01*
X32289866Y-56184800D02*
X30988000Y-54882934D01*
X44212000Y-52816000D02*
X44196000Y-52832000D01*
X44212000Y-51222000D02*
X44212000Y-52816000D01*
X47100000Y-48260000D02*
X47244000Y-48260000D01*
X46212000Y-46822000D02*
X46212000Y-47372000D01*
X46212000Y-47372000D02*
X47100000Y-48260000D01*
X29718000Y-54610000D02*
X29718000Y-53594000D01*
X38100000Y-57404000D02*
X32512000Y-57404000D01*
X32512000Y-57404000D02*
X29718000Y-54610000D01*
X35181000Y-61489200D02*
X35306000Y-61489200D01*
X33528000Y-59836200D02*
X35181000Y-61489200D01*
X33528000Y-58994000D02*
X33528000Y-59836200D01*
X35306000Y-61489200D02*
X43266000Y-61489200D01*
M02*
